G75*
%MOIN*%
%OFA0B0*%
%FSLAX25Y25*%
%IPPOS*%
%LPD*%
%AMOC8*
5,1,8,0,0,1.08239X$1,22.5*
%
%ADD10R,0.04134X0.04252*%
%ADD11R,0.03937X0.04331*%
%ADD12R,0.04331X0.03937*%
%ADD13R,0.04252X0.04134*%
%ADD14R,0.07087X0.06299*%
%ADD15R,0.24409X0.22835*%
%ADD16R,0.11811X0.06299*%
%ADD17R,0.03150X0.03543*%
%ADD18R,0.03543X0.03150*%
%ADD19R,0.03937X0.02953*%
%ADD20R,0.03563X0.01949*%
%ADD21R,0.07087X0.07874*%
%ADD22R,0.01870X0.02953*%
%ADD23C,0.01102*%
%ADD24R,0.03346X0.03346*%
%ADD25R,0.04724X0.01181*%
%ADD26R,0.01378X0.03346*%
%ADD27R,0.12205X0.21654*%
%ADD28R,0.05000X0.02402*%
%ADD29R,0.12795X0.06496*%
%ADD30R,0.03346X0.01378*%
%ADD31R,0.02402X0.05000*%
%ADD32R,0.07106X0.12795*%
%ADD33R,0.07087X0.10630*%
%ADD34R,0.05906X0.05118*%
%ADD35R,0.05118X0.05906*%
%ADD36R,0.06299X0.07098*%
%ADD37R,0.20866X0.07874*%
D10*
X0109815Y0189591D03*
X0116705Y0189591D03*
X0104705Y0210591D03*
X0097815Y0210591D03*
X0218815Y0200591D03*
X0225705Y0200591D03*
X0225705Y0194591D03*
X0218815Y0194591D03*
D11*
X0202299Y0165890D03*
X0202299Y0159197D03*
X0180480Y0158598D03*
X0180480Y0165291D03*
X0172606Y0186591D03*
X0165913Y0186591D03*
X0146606Y0180591D03*
X0139913Y0180591D03*
X0139913Y0172591D03*
X0146606Y0172591D03*
X0146606Y0164591D03*
X0139913Y0164591D03*
X0157260Y0147937D03*
X0157260Y0141244D03*
X0140260Y0133937D03*
X0140260Y0127244D03*
X0184976Y0106441D03*
X0184976Y0099748D03*
X0103606Y0187591D03*
X0096913Y0187591D03*
X0096913Y0195929D03*
X0103606Y0195929D03*
X0126913Y0218591D03*
X0133606Y0218591D03*
X0143913Y0240591D03*
X0150606Y0240591D03*
X0103260Y0233937D03*
X0103260Y0227244D03*
X0104606Y0220591D03*
X0097913Y0220591D03*
X0090606Y0220591D03*
X0083913Y0220591D03*
X0041598Y0254378D03*
X0034906Y0254378D03*
X0034906Y0292378D03*
X0041598Y0292378D03*
D12*
X0099748Y0256165D03*
X0106441Y0256165D03*
X0113189Y0256701D03*
X0113189Y0263394D03*
X0149260Y0233937D03*
X0149260Y0227244D03*
X0128260Y0225244D03*
X0128260Y0231937D03*
X0148260Y0202937D03*
X0148260Y0196244D03*
X0165913Y0178591D03*
X0164260Y0171937D03*
X0164260Y0165244D03*
X0172260Y0165244D03*
X0172260Y0171937D03*
X0172606Y0178591D03*
X0187181Y0156717D03*
X0193874Y0156717D03*
X0165260Y0150937D03*
X0165260Y0144244D03*
X0148260Y0133937D03*
X0148260Y0127244D03*
X0131260Y0138244D03*
X0131260Y0144937D03*
X0102260Y0141937D03*
X0102260Y0135244D03*
X0118260Y0173244D03*
X0118260Y0179937D03*
X0077260Y0198244D03*
X0077260Y0204937D03*
X0170457Y0230693D03*
X0170457Y0237386D03*
X0292795Y0154559D03*
X0292795Y0147866D03*
X0186787Y0124866D03*
X0180094Y0124866D03*
X0174150Y0126323D03*
X0167457Y0126323D03*
D13*
X0125260Y0173146D03*
X0125260Y0180035D03*
X0077260Y0211146D03*
X0077260Y0218035D03*
X0170457Y0216594D03*
X0170457Y0223484D03*
X0284850Y0147752D03*
X0284850Y0140862D03*
D14*
X0220409Y0160969D03*
X0210961Y0160969D03*
X0210961Y0171992D03*
X0220409Y0171992D03*
X0176669Y0107504D03*
X0176669Y0096480D03*
X0162929Y0096402D03*
X0162929Y0107425D03*
D15*
X0137898Y0289984D03*
D16*
X0109630Y0280988D03*
X0109630Y0298980D03*
D17*
X0152780Y0182720D03*
X0160260Y0182720D03*
X0156520Y0174846D03*
X0141491Y0155138D03*
X0134011Y0155138D03*
X0137751Y0147264D03*
X0183165Y0174815D03*
X0190646Y0174815D03*
X0186906Y0166941D03*
D18*
X0153421Y0214850D03*
X0153421Y0222331D03*
X0161295Y0218591D03*
X0119098Y0224850D03*
X0119098Y0232331D03*
X0111224Y0228591D03*
D19*
X0077677Y0058618D03*
X0077677Y0053618D03*
X0077677Y0048618D03*
X0077677Y0043618D03*
D20*
X0068455Y0041167D03*
X0068455Y0061069D03*
D21*
X0068366Y0056157D03*
X0059488Y0056157D03*
X0059488Y0046079D03*
X0068366Y0046079D03*
D22*
X0055010Y0043618D03*
X0055010Y0058618D03*
D23*
X0172103Y0139827D02*
X0174543Y0139827D01*
X0174543Y0141795D02*
X0172103Y0141795D01*
X0172103Y0143764D02*
X0174543Y0143764D01*
X0174543Y0145732D02*
X0172103Y0145732D01*
X0177457Y0148646D02*
X0177457Y0151086D01*
X0179425Y0151086D02*
X0179425Y0148646D01*
X0181394Y0148646D02*
X0181394Y0151086D01*
X0183362Y0151086D02*
X0183362Y0148646D01*
X0186276Y0145732D02*
X0188716Y0145732D01*
X0188716Y0143764D02*
X0186276Y0143764D01*
X0186276Y0141795D02*
X0188716Y0141795D01*
X0188716Y0139827D02*
X0186276Y0139827D01*
X0183362Y0136913D02*
X0183362Y0134473D01*
X0181394Y0134473D02*
X0181394Y0136913D01*
X0179425Y0136913D02*
X0179425Y0134473D01*
X0177457Y0134473D02*
X0177457Y0136913D01*
D24*
X0178146Y0140516D03*
X0182673Y0140516D03*
X0182673Y0145043D03*
X0178146Y0145043D03*
D25*
X0201843Y0208075D03*
X0201843Y0210634D03*
X0201843Y0213193D03*
X0201843Y0215752D03*
X0201843Y0218311D03*
X0201843Y0220870D03*
X0201843Y0223429D03*
X0201843Y0225988D03*
X0201843Y0228547D03*
X0201843Y0231106D03*
X0224678Y0231106D03*
X0224678Y0228547D03*
X0224678Y0225988D03*
X0224678Y0223429D03*
X0224678Y0220870D03*
X0224678Y0218311D03*
X0224678Y0215752D03*
X0224678Y0213193D03*
X0224678Y0210634D03*
X0224678Y0208075D03*
D26*
X0092094Y0209323D03*
X0089535Y0209323D03*
X0086976Y0209323D03*
X0086976Y0200661D03*
X0089535Y0200661D03*
X0092094Y0200661D03*
D27*
X0196295Y0102701D03*
X0235075Y0102701D03*
D28*
X0220252Y0134217D03*
X0220252Y0139217D03*
X0220252Y0144217D03*
X0220252Y0149217D03*
X0199228Y0149217D03*
X0199228Y0144217D03*
X0199228Y0139217D03*
X0199228Y0134217D03*
D29*
X0211354Y0137268D03*
X0211354Y0146165D03*
D30*
X0140591Y0199031D03*
X0140591Y0201591D03*
X0140591Y0204150D03*
X0131929Y0204150D03*
X0131929Y0201591D03*
X0131929Y0199031D03*
X0134929Y0228031D03*
X0134929Y0230591D03*
X0134929Y0233150D03*
X0143591Y0233150D03*
X0143591Y0230591D03*
X0143591Y0228031D03*
D31*
X0132634Y0091606D03*
X0127634Y0091606D03*
X0122634Y0091606D03*
X0117634Y0091606D03*
X0117634Y0070583D03*
X0122634Y0070583D03*
X0127634Y0070583D03*
X0132634Y0070583D03*
D32*
X0129278Y0079480D03*
X0120990Y0079480D03*
D33*
X0096921Y0169591D03*
X0079598Y0169591D03*
D34*
X0124260Y0165331D03*
X0124260Y0157850D03*
D35*
X0141520Y0140591D03*
X0149000Y0140591D03*
D36*
X0165205Y0116874D03*
X0176402Y0116874D03*
D37*
X0320260Y0120268D03*
X0320260Y0146252D03*
M02*
