%
M48
M72
T01C0.01181
T02C0.01969
T03C0.03150
T04C0.03200
T05C0.03937
T06C0.05906
T07C0.13780
%
T01
X178441Y140811
X182378Y140811
X182378Y144748
X178441Y144748
T02
X160803Y153677
X156118Y162024
X130260Y169591
X139378Y185583
X128260Y192591
X123260Y202591
X109858Y196276
X97260Y201591
X83260Y209591
X87260Y214591
X92260Y226591
X139260Y218591
X138260Y210591
X160760Y195091
X190693Y179622
X217260Y214591
X217260Y227591
X217260Y232591
X237760Y232591
X237760Y227591
X237760Y222591
X166693Y261591
X158260Y240591
X108260Y139591
X185094Y129787
X284260Y154260
X292260Y160260
T03
X230449Y205409
X164866Y137772
T04
X37016Y263252
X37016Y273252
X37016Y283252
T05
X122961Y187039
X181457Y212039
X181457Y222039
X181457Y232039
X181457Y242039
X210961Y192039
X203260Y172591
X197260Y172591
X192457Y137031
X325409Y161866
X325409Y171866
X325409Y181866
T06
X216945Y299819
X197260Y299819
X177575Y299819
X44307Y229740
X44307Y209740
X44307Y189740
X44307Y169740
X44307Y149740
X44307Y129740
X177575Y43913
X197260Y43913
X216945Y43913
T07
X73441Y81315
X73441Y262417
X297850Y262417
X297850Y73441
M30
