G75*
%MOIN*%
%OFA0B0*%
%FSLAX25Y25*%
%IPPOS*%
%LPD*%
%AMOC8*
5,1,8,0,0,1.08239X$1,22.5*
%
%ADD10R,0.03315X0.00166*%
%ADD11R,0.05635X0.00166*%
%ADD12R,0.07293X0.00166*%
%ADD13R,0.08619X0.00166*%
%ADD14R,0.09613X0.00166*%
%ADD15R,0.10607X0.00166*%
%ADD16R,0.11602X0.00166*%
%ADD17R,0.12266X0.00166*%
%ADD18R,0.12929X0.00166*%
%ADD19R,0.13592X0.00166*%
%ADD20R,0.14254X0.00166*%
%ADD21R,0.14917X0.00166*%
%ADD22R,0.15580X0.00166*%
%ADD23R,0.16243X0.00166*%
%ADD24R,0.16906X0.00166*%
%ADD25R,0.17238X0.00166*%
%ADD26R,0.17901X0.00166*%
%ADD27R,0.18232X0.00166*%
%ADD28R,0.18564X0.00166*%
%ADD29R,0.19227X0.00166*%
%ADD30R,0.19558X0.00166*%
%ADD31R,0.19889X0.00166*%
%ADD32R,0.20221X0.00166*%
%ADD33R,0.20884X0.00166*%
%ADD34R,0.21216X0.00166*%
%ADD35R,0.21547X0.00166*%
%ADD36R,0.21879X0.00166*%
%ADD37R,0.22210X0.00166*%
%ADD38R,0.22541X0.00166*%
%ADD39R,0.22873X0.00166*%
%ADD40R,0.23205X0.00166*%
%ADD41R,0.23537X0.00166*%
%ADD42R,0.23868X0.00166*%
%ADD43R,0.24199X0.00166*%
%ADD44R,0.24531X0.00166*%
%ADD45R,0.24862X0.00166*%
%ADD46R,0.25194X0.00166*%
%ADD47R,0.25525X0.00166*%
%ADD48R,0.25857X0.00166*%
%ADD49R,0.26188X0.00166*%
%ADD50R,0.26520X0.00166*%
%ADD51R,0.26851X0.00166*%
%ADD52R,0.27183X0.00166*%
%ADD53R,0.27514X0.00166*%
%ADD54R,0.27846X0.00166*%
%ADD55R,0.07956X0.00166*%
%ADD56R,0.07127X0.00166*%
%ADD57R,0.09448X0.00166*%
%ADD58R,0.07790X0.00166*%
%ADD59R,0.06133X0.00166*%
%ADD60R,0.08950X0.00166*%
%ADD61R,0.07624X0.00166*%
%ADD62R,0.05470X0.00166*%
%ADD63R,0.08453X0.00166*%
%ADD64R,0.07624X0.00166*%
%ADD65R,0.04973X0.00166*%
%ADD66R,0.08288X0.00166*%
%ADD67R,0.07458X0.00166*%
%ADD68R,0.04476X0.00166*%
%ADD69R,0.07956X0.00166*%
%ADD70R,0.07459X0.00166*%
%ADD71R,0.04144X0.00166*%
%ADD72R,0.07956X0.00166*%
%ADD73R,0.03813X0.00166*%
%ADD74R,0.03647X0.00166*%
%ADD75R,0.07625X0.00166*%
%ADD76R,0.07459X0.00166*%
%ADD77R,0.03149X0.00166*%
%ADD78R,0.02983X0.00166*%
%ADD79R,0.07293X0.00166*%
%ADD80R,0.02818X0.00166*%
%ADD81R,0.07790X0.00166*%
%ADD82R,0.02652X0.00166*%
%ADD83R,0.06961X0.00166*%
%ADD84R,0.02486X0.00166*%
%ADD85R,0.06796X0.00166*%
%ADD86R,0.02320X0.00166*%
%ADD87R,0.06795X0.00166*%
%ADD88R,0.02155X0.00166*%
%ADD89R,0.08122X0.00166*%
%ADD90R,0.01989X0.00166*%
%ADD91R,0.01491X0.00166*%
%ADD92R,0.06630X0.00166*%
%ADD93R,0.01823X0.00166*%
%ADD94R,0.08287X0.00166*%
%ADD95R,0.06630X0.00166*%
%ADD96R,0.01657X0.00166*%
%ADD97R,0.03481X0.00166*%
%ADD98R,0.03812X0.00166*%
%ADD99R,0.06464X0.00166*%
%ADD100R,0.04309X0.00166*%
%ADD101R,0.01492X0.00166*%
%ADD102R,0.04475X0.00166*%
%ADD103R,0.04641X0.00166*%
%ADD104R,0.06464X0.00166*%
%ADD105R,0.04807X0.00166*%
%ADD106R,0.08619X0.00166*%
%ADD107R,0.03978X0.00166*%
%ADD108R,0.07127X0.00166*%
%ADD109R,0.01161X0.00166*%
%ADD110R,0.03978X0.00166*%
%ADD111R,0.08785X0.00166*%
%ADD112R,0.08950X0.00166*%
%ADD113R,0.04641X0.00166*%
%ADD114R,0.09281X0.00166*%
%ADD115R,0.05139X0.00166*%
%ADD116R,0.09613X0.00166*%
%ADD117R,0.05801X0.00166*%
%ADD118R,0.09779X0.00166*%
%ADD119R,0.09116X0.00166*%
%ADD120R,0.10276X0.00166*%
%ADD121R,0.17735X0.00166*%
%ADD122R,0.11105X0.00166*%
%ADD123R,0.30498X0.00166*%
%ADD124R,0.30166X0.00166*%
%ADD125R,0.29834X0.00166*%
%ADD126R,0.29503X0.00166*%
%ADD127R,0.29172X0.00166*%
%ADD128R,0.19559X0.00166*%
%ADD129R,0.19061X0.00166*%
%ADD130R,0.18730X0.00166*%
%ADD131R,0.18398X0.00166*%
%ADD132R,0.18233X0.00166*%
%ADD133R,0.18067X0.00166*%
%ADD134R,0.17901X0.00166*%
%ADD135R,0.17735X0.00166*%
%ADD136R,0.17569X0.00166*%
%ADD137R,0.17404X0.00166*%
%ADD138C,0.00300*%
%ADD139C,0.01200*%
%ADD140C,0.00800*%
%ADD141C,0.01181*%
%ADD142C,0.00600*%
%ADD143C,0.00500*%
%ADD144C,0.01000*%
D10*
X0177106Y0041935D03*
X0177106Y0050388D03*
X0179260Y0063482D03*
X0179260Y0032156D03*
D11*
X0179261Y0032321D03*
X0179261Y0063316D03*
D12*
X0179261Y0063150D03*
X0179261Y0032487D03*
D13*
X0179260Y0032653D03*
X0167990Y0050388D03*
X0167990Y0050554D03*
X0168155Y0051051D03*
X0168155Y0051217D03*
X0179260Y0062985D03*
D14*
X0179260Y0062819D03*
X0179260Y0032819D03*
D15*
X0179261Y0032984D03*
X0179261Y0062653D03*
D16*
X0179261Y0062487D03*
X0179261Y0033150D03*
D17*
X0179261Y0033316D03*
X0179261Y0062322D03*
D18*
X0179261Y0062156D03*
X0179261Y0033481D03*
D19*
X0179261Y0033647D03*
X0179261Y0061990D03*
D20*
X0179260Y0061824D03*
X0179260Y0033813D03*
D21*
X0179260Y0033979D03*
X0179260Y0061659D03*
D22*
X0179260Y0061493D03*
X0179260Y0034144D03*
D23*
X0179260Y0034310D03*
X0179260Y0061327D03*
D24*
X0179261Y0061161D03*
X0179261Y0034476D03*
D25*
X0179261Y0034642D03*
X0184067Y0056023D03*
X0183901Y0056355D03*
X0183736Y0056520D03*
X0179261Y0060996D03*
D26*
X0179261Y0060830D03*
X0179261Y0034807D03*
D27*
X0179260Y0034973D03*
X0179260Y0060664D03*
D28*
X0179261Y0060498D03*
X0179261Y0035139D03*
D29*
X0179260Y0035305D03*
X0179260Y0060333D03*
D30*
X0179261Y0060167D03*
X0179261Y0035470D03*
D31*
X0179261Y0035636D03*
X0179261Y0060001D03*
D32*
X0179260Y0059835D03*
X0179260Y0035802D03*
D33*
X0179260Y0035968D03*
X0179260Y0059670D03*
D34*
X0179260Y0059504D03*
X0179260Y0036133D03*
D35*
X0179260Y0036299D03*
X0179260Y0059338D03*
D36*
X0179260Y0059172D03*
X0179260Y0036465D03*
D37*
X0179261Y0036631D03*
X0179261Y0059007D03*
D38*
X0179261Y0058841D03*
X0179261Y0036796D03*
D39*
X0179261Y0036962D03*
X0179261Y0058675D03*
D40*
X0179260Y0058509D03*
X0179260Y0037128D03*
D41*
X0179261Y0037294D03*
X0179261Y0058344D03*
D42*
X0179260Y0058178D03*
X0179260Y0058012D03*
X0179260Y0037625D03*
X0179260Y0037459D03*
D43*
X0179261Y0037791D03*
X0179261Y0057846D03*
D44*
X0179260Y0057681D03*
X0179260Y0037957D03*
D45*
X0179260Y0038122D03*
X0179260Y0057515D03*
D46*
X0179260Y0057349D03*
X0179260Y0057183D03*
X0179260Y0038454D03*
X0179260Y0038288D03*
D47*
X0179261Y0038620D03*
D48*
X0179260Y0038785D03*
D49*
X0179260Y0038951D03*
X0179260Y0039117D03*
D50*
X0179260Y0039283D03*
D51*
X0179261Y0039448D03*
X0179261Y0039614D03*
D52*
X0179260Y0039780D03*
X0179260Y0039946D03*
D53*
X0179260Y0040111D03*
X0179260Y0040277D03*
D54*
X0179261Y0040443D03*
D55*
X0169316Y0040609D03*
X0168155Y0043095D03*
X0168155Y0043261D03*
X0168155Y0043426D03*
X0168818Y0054200D03*
X0190863Y0050056D03*
D56*
X0190614Y0042598D03*
X0190448Y0042432D03*
X0178017Y0040609D03*
X0168735Y0054863D03*
D57*
X0188460Y0040609D03*
D58*
X0190946Y0049891D03*
X0169067Y0040774D03*
D59*
X0177852Y0040774D03*
D60*
X0188874Y0040774D03*
X0168487Y0051548D03*
D61*
X0168321Y0042432D03*
X0168321Y0042266D03*
X0168321Y0042100D03*
X0168984Y0040940D03*
X0191029Y0049559D03*
X0191029Y0049725D03*
X0191194Y0049393D03*
D62*
X0177686Y0040940D03*
D63*
X0167907Y0045084D03*
X0167907Y0045250D03*
X0167907Y0045415D03*
X0167907Y0045581D03*
X0167907Y0045747D03*
X0167907Y0045913D03*
X0167907Y0046078D03*
X0167907Y0049559D03*
X0167907Y0049725D03*
X0167907Y0049891D03*
X0167907Y0050056D03*
X0167907Y0050222D03*
X0168072Y0050719D03*
X0168072Y0050885D03*
X0189122Y0040940D03*
X0190614Y0050554D03*
X0190448Y0050719D03*
D64*
X0189869Y0041603D03*
X0168819Y0041106D03*
X0168487Y0041769D03*
X0168487Y0041935D03*
X0168819Y0054366D03*
D65*
X0177603Y0041106D03*
D66*
X0189371Y0041106D03*
D67*
X0191277Y0049062D03*
X0191277Y0049228D03*
X0168736Y0054531D03*
X0168736Y0041272D03*
D68*
X0177520Y0041272D03*
D69*
X0189537Y0041272D03*
D70*
X0190283Y0042100D03*
X0168570Y0041603D03*
X0168570Y0041437D03*
D71*
X0177355Y0041437D03*
X0182658Y0044918D03*
X0182658Y0047404D03*
D72*
X0189703Y0041437D03*
D73*
X0177355Y0041603D03*
D74*
X0177272Y0041769D03*
X0177272Y0050719D03*
D75*
X0190034Y0041769D03*
D76*
X0190117Y0041935D03*
D77*
X0182658Y0044421D03*
X0182658Y0048067D03*
X0177023Y0050222D03*
X0177023Y0042100D03*
D78*
X0176940Y0042266D03*
X0176940Y0050056D03*
D79*
X0168818Y0054697D03*
X0191360Y0048896D03*
X0191360Y0048730D03*
X0190366Y0042266D03*
D80*
X0182658Y0044255D03*
X0176857Y0042598D03*
X0176857Y0042432D03*
X0176857Y0049891D03*
D81*
X0168238Y0042929D03*
X0168238Y0042763D03*
X0168238Y0042598D03*
D82*
X0176774Y0042763D03*
X0182575Y0048233D03*
X0176774Y0049725D03*
D83*
X0168818Y0055029D03*
X0168818Y0055194D03*
X0191526Y0048233D03*
X0191526Y0048067D03*
X0191526Y0047902D03*
X0190863Y0043095D03*
X0190697Y0042763D03*
D84*
X0176691Y0042929D03*
X0176691Y0049393D03*
X0176691Y0049559D03*
D85*
X0168901Y0055360D03*
X0191111Y0043758D03*
X0191111Y0043592D03*
X0190780Y0042929D03*
D86*
X0182575Y0044089D03*
X0176608Y0043261D03*
X0176608Y0043095D03*
X0176608Y0049228D03*
D87*
X0169896Y0057018D03*
X0191609Y0047736D03*
X0191609Y0047570D03*
X0191609Y0047404D03*
X0191609Y0047239D03*
X0191609Y0047073D03*
X0190946Y0043426D03*
X0190946Y0043261D03*
D88*
X0182658Y0048399D03*
X0176526Y0048896D03*
X0176526Y0049062D03*
X0176526Y0043592D03*
X0176526Y0043426D03*
D89*
X0168072Y0043592D03*
X0168072Y0043758D03*
X0168072Y0043924D03*
X0168072Y0044089D03*
X0168901Y0054034D03*
X0190780Y0050222D03*
D90*
X0176443Y0048730D03*
X0176443Y0048565D03*
X0176443Y0043924D03*
X0176443Y0043758D03*
D91*
X0182658Y0043924D03*
D92*
X0191195Y0043924D03*
X0191195Y0044089D03*
X0191526Y0045084D03*
X0191526Y0045250D03*
X0191526Y0045415D03*
D93*
X0176360Y0044421D03*
X0176360Y0044255D03*
X0176360Y0044089D03*
X0176360Y0048067D03*
X0176360Y0048233D03*
X0176360Y0048399D03*
D94*
X0167990Y0044918D03*
X0167990Y0044752D03*
X0167990Y0044587D03*
X0167990Y0044421D03*
X0167990Y0044255D03*
X0190697Y0050388D03*
D95*
X0191692Y0046907D03*
X0191692Y0046741D03*
X0191692Y0046576D03*
X0191692Y0046410D03*
X0191692Y0046244D03*
X0191360Y0044587D03*
X0191360Y0044421D03*
X0191360Y0044255D03*
X0169647Y0056852D03*
X0169481Y0056686D03*
X0168984Y0055857D03*
X0168984Y0055692D03*
X0168818Y0055526D03*
D96*
X0176277Y0047902D03*
X0176277Y0047736D03*
X0176277Y0047570D03*
X0176277Y0047404D03*
X0176277Y0045084D03*
X0176277Y0044918D03*
X0176277Y0044752D03*
X0176277Y0044587D03*
D97*
X0182658Y0044587D03*
X0182658Y0047902D03*
X0177189Y0050554D03*
D98*
X0182658Y0047736D03*
X0182658Y0044752D03*
D99*
X0191443Y0044752D03*
X0191443Y0044918D03*
X0169067Y0056023D03*
X0169067Y0056189D03*
D100*
X0177437Y0051051D03*
X0182576Y0045084D03*
D101*
X0176194Y0045250D03*
X0176194Y0045415D03*
X0176194Y0045581D03*
X0176194Y0045747D03*
X0176194Y0045913D03*
X0176194Y0046078D03*
X0176194Y0046244D03*
X0176194Y0046410D03*
X0176194Y0046576D03*
X0176194Y0046741D03*
X0176194Y0046907D03*
X0176194Y0047073D03*
X0176194Y0047239D03*
D102*
X0182658Y0047239D03*
X0182658Y0047073D03*
X0182658Y0045415D03*
X0182658Y0045250D03*
D103*
X0182575Y0045581D03*
X0182575Y0046907D03*
D104*
X0177686Y0051714D03*
X0169398Y0056520D03*
X0169233Y0056355D03*
X0191609Y0046078D03*
X0191609Y0045913D03*
X0191609Y0045747D03*
X0191609Y0045581D03*
D105*
X0182658Y0045747D03*
X0182658Y0045913D03*
X0182658Y0046078D03*
X0182658Y0046244D03*
X0182658Y0046410D03*
X0182658Y0046576D03*
X0182658Y0046741D03*
D106*
X0167824Y0046741D03*
X0167824Y0046576D03*
X0167824Y0046410D03*
X0167824Y0046244D03*
X0167824Y0046907D03*
X0167824Y0047073D03*
X0167824Y0047239D03*
X0167824Y0047404D03*
X0167824Y0047570D03*
X0167824Y0047736D03*
X0167824Y0047902D03*
X0167824Y0048067D03*
X0167824Y0048233D03*
X0167824Y0048399D03*
X0167824Y0048565D03*
X0167824Y0048730D03*
X0167824Y0048896D03*
X0167824Y0049062D03*
X0167824Y0049228D03*
X0167824Y0049393D03*
D107*
X0182575Y0047570D03*
D108*
X0191443Y0048399D03*
X0191443Y0048565D03*
D109*
X0182658Y0048565D03*
D110*
X0177272Y0050885D03*
D111*
X0169067Y0053869D03*
X0168238Y0051382D03*
X0190283Y0050885D03*
D112*
X0190200Y0051051D03*
D113*
X0177437Y0051217D03*
D114*
X0190034Y0051217D03*
D115*
X0177520Y0051382D03*
D116*
X0189869Y0051382D03*
D117*
X0177686Y0051548D03*
D118*
X0189620Y0051548D03*
D119*
X0168570Y0051714D03*
D120*
X0189371Y0051714D03*
D121*
X0172879Y0051880D03*
D122*
X0188957Y0051880D03*
D123*
X0179260Y0052045D03*
D124*
X0179260Y0052211D03*
X0179260Y0052377D03*
X0179260Y0052543D03*
D125*
X0179261Y0052708D03*
X0179261Y0052874D03*
X0179261Y0053040D03*
D126*
X0179260Y0053206D03*
X0179260Y0053371D03*
X0179260Y0053537D03*
D127*
X0179261Y0053703D03*
D128*
X0184067Y0053869D03*
D129*
X0184150Y0054034D03*
D130*
X0184316Y0054200D03*
D131*
X0184316Y0054366D03*
D132*
X0184399Y0054531D03*
D133*
X0184316Y0054697D03*
D134*
X0184399Y0054863D03*
D135*
X0184316Y0055029D03*
X0184316Y0055194D03*
D136*
X0184233Y0055360D03*
X0184233Y0055526D03*
X0183238Y0057018D03*
D137*
X0183487Y0056852D03*
X0183653Y0056686D03*
X0183984Y0056189D03*
X0184150Y0055857D03*
X0184150Y0055692D03*
D138*
X0226740Y0036144D02*
X0227974Y0037379D01*
X0226740Y0036144D02*
X0226740Y0034910D01*
X0227974Y0033676D01*
X0229195Y0034293D02*
X0229812Y0033676D01*
X0231664Y0033676D01*
X0232878Y0033676D02*
X0234113Y0034910D01*
X0234113Y0036144D01*
X0232878Y0037379D01*
X0231664Y0036144D02*
X0229812Y0036144D01*
X0229195Y0035527D01*
X0229195Y0034293D01*
X0228591Y0031379D02*
X0227357Y0031379D01*
X0226740Y0030762D01*
X0228591Y0031379D02*
X0229208Y0030762D01*
X0229208Y0030144D01*
X0226740Y0027676D01*
X0229208Y0027676D01*
X0230423Y0028293D02*
X0232892Y0030762D01*
X0232892Y0028293D01*
X0232274Y0027676D01*
X0231040Y0027676D01*
X0230423Y0028293D01*
X0230423Y0030762D01*
X0231040Y0031379D01*
X0232274Y0031379D01*
X0232892Y0030762D01*
X0234106Y0030144D02*
X0235340Y0031379D01*
X0235340Y0027676D01*
X0234106Y0027676D02*
X0236575Y0027676D01*
X0237789Y0028293D02*
X0238406Y0027676D01*
X0239641Y0027676D01*
X0240258Y0028293D01*
X0240258Y0029527D01*
X0239641Y0030144D01*
X0239023Y0030144D01*
X0237789Y0029527D01*
X0237789Y0031379D01*
X0240258Y0031379D01*
X0240868Y0033676D02*
X0239634Y0033676D01*
X0239017Y0034293D01*
X0239634Y0035527D02*
X0239017Y0036144D01*
X0239017Y0036762D01*
X0239634Y0037379D01*
X0240868Y0037379D01*
X0241486Y0036762D01*
X0242700Y0037379D02*
X0242700Y0033676D01*
X0241486Y0034293D02*
X0241486Y0034910D01*
X0240868Y0035527D01*
X0239634Y0035527D01*
X0240868Y0033676D02*
X0241486Y0034293D01*
X0242700Y0035527D02*
X0243317Y0036144D01*
X0244551Y0036144D01*
X0245169Y0035527D01*
X0245169Y0033676D01*
X0246383Y0034293D02*
X0247000Y0034910D01*
X0248852Y0034910D01*
X0248852Y0035527D02*
X0248852Y0033676D01*
X0247000Y0033676D01*
X0246383Y0034293D01*
X0247000Y0036144D02*
X0248235Y0036144D01*
X0248852Y0035527D01*
X0250066Y0036144D02*
X0250683Y0036144D01*
X0251301Y0035527D01*
X0251918Y0036144D01*
X0252535Y0035527D01*
X0252535Y0033676D01*
X0253749Y0033676D02*
X0255601Y0033676D01*
X0256218Y0034293D01*
X0256218Y0035527D01*
X0255601Y0036144D01*
X0253749Y0036144D01*
X0253749Y0037379D02*
X0253749Y0033676D01*
X0251301Y0033676D02*
X0251301Y0035527D01*
X0250066Y0036144D02*
X0250066Y0033676D01*
X0257432Y0034293D02*
X0258050Y0034910D01*
X0259901Y0034910D01*
X0259901Y0035527D02*
X0259901Y0033676D01*
X0258050Y0033676D01*
X0257432Y0034293D01*
X0258050Y0036144D02*
X0259284Y0036144D01*
X0259901Y0035527D01*
X0261116Y0037379D02*
X0263584Y0037379D01*
X0262350Y0037379D02*
X0262350Y0033676D01*
X0264799Y0034293D02*
X0264799Y0035527D01*
X0265416Y0036144D01*
X0266650Y0036144D01*
X0267268Y0035527D01*
X0267268Y0034910D01*
X0264799Y0034910D01*
X0264799Y0034293D02*
X0265416Y0033676D01*
X0266650Y0033676D01*
X0268482Y0034293D02*
X0268482Y0035527D01*
X0269099Y0036144D01*
X0270951Y0036144D01*
X0272165Y0035527D02*
X0272782Y0036144D01*
X0274017Y0036144D01*
X0274634Y0035527D01*
X0274634Y0033676D01*
X0272165Y0033676D02*
X0272165Y0037379D01*
X0270951Y0033676D02*
X0269099Y0033676D01*
X0268482Y0034293D01*
X0254990Y0024762D02*
X0254373Y0025379D01*
X0253139Y0025379D01*
X0252522Y0024762D01*
X0251307Y0024762D02*
X0248838Y0022293D01*
X0249456Y0021676D01*
X0250690Y0021676D01*
X0251307Y0022293D01*
X0251307Y0024762D01*
X0250690Y0025379D01*
X0249456Y0025379D01*
X0248838Y0024762D01*
X0248838Y0022293D01*
X0247614Y0022293D02*
X0247614Y0021676D01*
X0246997Y0021676D01*
X0246997Y0022293D01*
X0247614Y0022293D01*
X0245783Y0021676D02*
X0243314Y0021676D01*
X0245783Y0024144D01*
X0245783Y0024762D01*
X0245165Y0025379D01*
X0243931Y0025379D01*
X0243314Y0024762D01*
X0238406Y0024144D02*
X0238406Y0023527D01*
X0237789Y0023527D01*
X0237789Y0024144D01*
X0238406Y0024144D01*
X0236575Y0024144D02*
X0235340Y0021676D01*
X0234106Y0024144D01*
X0232892Y0023527D02*
X0232892Y0022910D01*
X0230423Y0022910D01*
X0230423Y0023527D02*
X0231040Y0024144D01*
X0232274Y0024144D01*
X0232892Y0023527D01*
X0232274Y0021676D02*
X0231040Y0021676D01*
X0230423Y0022293D01*
X0230423Y0023527D01*
X0229208Y0023527D02*
X0228591Y0022910D01*
X0226740Y0022910D01*
X0227974Y0022910D02*
X0229208Y0021676D01*
X0229208Y0023527D02*
X0229208Y0024762D01*
X0228591Y0025379D01*
X0226740Y0025379D01*
X0226740Y0021676D01*
X0237789Y0021676D02*
X0237789Y0022293D01*
X0238406Y0022293D01*
X0238406Y0021676D01*
X0237789Y0021676D01*
X0252522Y0021676D02*
X0254990Y0024144D01*
X0254990Y0024762D01*
X0254990Y0021676D02*
X0252522Y0021676D01*
D139*
X0260054Y0054990D02*
X0262810Y0057746D01*
X0260054Y0060502D01*
X0262810Y0060502D02*
X0262810Y0057746D01*
X0262810Y0054990D01*
X0263204Y0066801D02*
X0260448Y0069557D01*
X0263204Y0072313D01*
X0260448Y0072313D02*
X0260448Y0069557D01*
X0260448Y0066801D01*
D140*
X0261629Y0083140D02*
X0261629Y0087470D01*
X0253755Y0087470D02*
X0253755Y0083140D01*
X0115693Y0094163D02*
X0114424Y0094163D01*
X0114424Y0113061D01*
X0115793Y0113061D01*
X0114424Y0113061D02*
X0102032Y0113061D01*
X0102032Y0094163D02*
X0114424Y0094163D01*
D141*
X0254936Y0084321D03*
D142*
X0240607Y0063346D02*
X0237407Y0063346D01*
X0240607Y0063346D02*
X0240607Y0061146D01*
X0240607Y0054346D02*
X0240607Y0052146D01*
X0237407Y0052146D01*
X0145174Y0047444D02*
X0140903Y0047444D01*
X0143039Y0049579D02*
X0143039Y0045309D01*
X0155002Y0142532D02*
X0155002Y0146803D01*
X0152867Y0144667D02*
X0157137Y0144667D01*
D143*
X0080133Y0046526D02*
X0080133Y0001250D01*
X0099818Y0001250D01*
X0099818Y0029990D01*
X0099818Y0041014D02*
X0099818Y0046526D01*
X0095487Y0046526D01*
X0084464Y0046526D02*
X0080133Y0046526D01*
X0118322Y0055778D02*
X0118322Y0021919D01*
X0127180Y0021919D01*
X0143322Y0021919D02*
X0152180Y0021919D01*
X0152180Y0055778D01*
X0143322Y0055778D01*
X0127180Y0055778D02*
X0118322Y0055778D01*
X0102912Y0111112D02*
X0102914Y0111175D01*
X0102920Y0111237D01*
X0102930Y0111299D01*
X0102943Y0111361D01*
X0102961Y0111421D01*
X0102982Y0111480D01*
X0103007Y0111538D01*
X0103036Y0111594D01*
X0103068Y0111648D01*
X0103103Y0111700D01*
X0103141Y0111749D01*
X0103183Y0111797D01*
X0103227Y0111841D01*
X0103275Y0111883D01*
X0103324Y0111921D01*
X0103376Y0111956D01*
X0103430Y0111988D01*
X0103486Y0112017D01*
X0103544Y0112042D01*
X0103603Y0112063D01*
X0103663Y0112081D01*
X0103725Y0112094D01*
X0103787Y0112104D01*
X0103849Y0112110D01*
X0103912Y0112112D01*
X0103975Y0112110D01*
X0104037Y0112104D01*
X0104099Y0112094D01*
X0104161Y0112081D01*
X0104221Y0112063D01*
X0104280Y0112042D01*
X0104338Y0112017D01*
X0104394Y0111988D01*
X0104448Y0111956D01*
X0104500Y0111921D01*
X0104549Y0111883D01*
X0104597Y0111841D01*
X0104641Y0111797D01*
X0104683Y0111749D01*
X0104721Y0111700D01*
X0104756Y0111648D01*
X0104788Y0111594D01*
X0104817Y0111538D01*
X0104842Y0111480D01*
X0104863Y0111421D01*
X0104881Y0111361D01*
X0104894Y0111299D01*
X0104904Y0111237D01*
X0104910Y0111175D01*
X0104912Y0111112D01*
X0104910Y0111049D01*
X0104904Y0110987D01*
X0104894Y0110925D01*
X0104881Y0110863D01*
X0104863Y0110803D01*
X0104842Y0110744D01*
X0104817Y0110686D01*
X0104788Y0110630D01*
X0104756Y0110576D01*
X0104721Y0110524D01*
X0104683Y0110475D01*
X0104641Y0110427D01*
X0104597Y0110383D01*
X0104549Y0110341D01*
X0104500Y0110303D01*
X0104448Y0110268D01*
X0104394Y0110236D01*
X0104338Y0110207D01*
X0104280Y0110182D01*
X0104221Y0110161D01*
X0104161Y0110143D01*
X0104099Y0110130D01*
X0104037Y0110120D01*
X0103975Y0110114D01*
X0103912Y0110112D01*
X0103849Y0110114D01*
X0103787Y0110120D01*
X0103725Y0110130D01*
X0103663Y0110143D01*
X0103603Y0110161D01*
X0103544Y0110182D01*
X0103486Y0110207D01*
X0103430Y0110236D01*
X0103376Y0110268D01*
X0103324Y0110303D01*
X0103275Y0110341D01*
X0103227Y0110383D01*
X0103183Y0110427D01*
X0103141Y0110475D01*
X0103103Y0110524D01*
X0103068Y0110576D01*
X0103036Y0110630D01*
X0103007Y0110686D01*
X0102982Y0110744D01*
X0102961Y0110803D01*
X0102943Y0110863D01*
X0102930Y0110925D01*
X0102920Y0110987D01*
X0102914Y0111049D01*
X0102912Y0111112D01*
X0113991Y0115226D02*
X0090369Y0115226D01*
X0077180Y0119163D02*
X0077180Y0127037D01*
X0097850Y0135503D02*
X0097915Y0135528D01*
X0097981Y0135549D01*
X0098049Y0135567D01*
X0098117Y0135581D01*
X0098186Y0135592D01*
X0098256Y0135598D01*
X0098326Y0135601D01*
X0098396Y0135600D01*
X0098465Y0135595D01*
X0098535Y0135586D01*
X0098604Y0135574D01*
X0098672Y0135558D01*
X0098739Y0135538D01*
X0098804Y0135515D01*
X0098869Y0135488D01*
X0098932Y0135457D01*
X0098993Y0135423D01*
X0099052Y0135386D01*
X0099109Y0135346D01*
X0099164Y0135302D01*
X0099216Y0135256D01*
X0099266Y0135207D01*
X0099313Y0135155D01*
X0099357Y0135101D01*
X0099398Y0135044D01*
X0099436Y0134986D01*
X0099471Y0134925D01*
X0099502Y0134862D01*
X0099530Y0134798D01*
X0099554Y0134733D01*
X0099575Y0134666D01*
X0099592Y0134598D01*
X0099605Y0134530D01*
X0099614Y0134460D01*
X0099620Y0134391D01*
X0099622Y0134321D01*
X0099680Y0134321D02*
X0099682Y0134390D01*
X0099688Y0134459D01*
X0099697Y0134527D01*
X0099710Y0134594D01*
X0099727Y0134661D01*
X0099748Y0134727D01*
X0099772Y0134791D01*
X0099800Y0134854D01*
X0099831Y0134916D01*
X0099865Y0134976D01*
X0099903Y0135033D01*
X0099944Y0135089D01*
X0099987Y0135142D01*
X0100034Y0135193D01*
X0100083Y0135241D01*
X0100135Y0135286D01*
X0100190Y0135328D01*
X0100246Y0135367D01*
X0100305Y0135404D01*
X0100366Y0135436D01*
X0100428Y0135466D01*
X0100492Y0135492D01*
X0100557Y0135514D01*
X0100623Y0135533D01*
X0100690Y0135548D01*
X0100758Y0135559D01*
X0100827Y0135567D01*
X0100896Y0135571D01*
X0100964Y0135571D01*
X0101033Y0135567D01*
X0101102Y0135559D01*
X0101170Y0135548D01*
X0101237Y0135533D01*
X0101303Y0135514D01*
X0101368Y0135492D01*
X0101432Y0135466D01*
X0101494Y0135436D01*
X0101555Y0135404D01*
X0101614Y0135367D01*
X0101670Y0135328D01*
X0101725Y0135286D01*
X0101777Y0135241D01*
X0101826Y0135193D01*
X0101873Y0135142D01*
X0101916Y0135089D01*
X0101957Y0135033D01*
X0101995Y0134976D01*
X0102029Y0134916D01*
X0102060Y0134854D01*
X0102088Y0134791D01*
X0102112Y0134727D01*
X0102133Y0134661D01*
X0102150Y0134594D01*
X0102163Y0134527D01*
X0102172Y0134459D01*
X0102178Y0134390D01*
X0102180Y0134321D01*
X0102182Y0134390D01*
X0102188Y0134459D01*
X0102197Y0134527D01*
X0102210Y0134594D01*
X0102227Y0134661D01*
X0102248Y0134727D01*
X0102272Y0134791D01*
X0102300Y0134854D01*
X0102331Y0134916D01*
X0102365Y0134976D01*
X0102403Y0135033D01*
X0102444Y0135089D01*
X0102487Y0135142D01*
X0102534Y0135193D01*
X0102583Y0135241D01*
X0102635Y0135286D01*
X0102690Y0135328D01*
X0102746Y0135367D01*
X0102805Y0135404D01*
X0102866Y0135436D01*
X0102928Y0135466D01*
X0102992Y0135492D01*
X0103057Y0135514D01*
X0103123Y0135533D01*
X0103190Y0135548D01*
X0103258Y0135559D01*
X0103327Y0135567D01*
X0103396Y0135571D01*
X0103464Y0135571D01*
X0103533Y0135567D01*
X0103602Y0135559D01*
X0103670Y0135548D01*
X0103737Y0135533D01*
X0103803Y0135514D01*
X0103868Y0135492D01*
X0103932Y0135466D01*
X0103994Y0135436D01*
X0104055Y0135404D01*
X0104114Y0135367D01*
X0104170Y0135328D01*
X0104225Y0135286D01*
X0104277Y0135241D01*
X0104326Y0135193D01*
X0104373Y0135142D01*
X0104416Y0135089D01*
X0104457Y0135033D01*
X0104495Y0134976D01*
X0104529Y0134916D01*
X0104560Y0134854D01*
X0104588Y0134791D01*
X0104612Y0134727D01*
X0104633Y0134661D01*
X0104650Y0134594D01*
X0104663Y0134527D01*
X0104672Y0134459D01*
X0104678Y0134390D01*
X0104680Y0134321D01*
X0104740Y0134320D02*
X0104744Y0134388D01*
X0104752Y0134456D01*
X0104764Y0134523D01*
X0104779Y0134589D01*
X0104798Y0134654D01*
X0104821Y0134718D01*
X0104847Y0134781D01*
X0104876Y0134842D01*
X0104909Y0134902D01*
X0104945Y0134959D01*
X0104984Y0135015D01*
X0105026Y0135068D01*
X0105071Y0135119D01*
X0105119Y0135168D01*
X0105170Y0135213D01*
X0105222Y0135256D01*
X0105277Y0135296D01*
X0105335Y0135333D01*
X0105394Y0135366D01*
X0105455Y0135396D01*
X0105517Y0135423D01*
X0105581Y0135446D01*
X0105646Y0135466D01*
X0105712Y0135482D01*
X0105779Y0135495D01*
X0105846Y0135504D01*
X0105914Y0135509D01*
X0105982Y0135510D01*
X0106050Y0135508D01*
X0106118Y0135501D01*
X0127180Y0142785D02*
X0127180Y0150659D01*
X0113991Y0154596D02*
X0090369Y0154596D01*
X0077180Y0150659D02*
X0077180Y0142785D01*
X0127180Y0127037D02*
X0127180Y0119163D01*
X0146668Y0119951D02*
X0146668Y0128809D01*
X0146668Y0119951D02*
X0180527Y0119951D01*
X0180527Y0128809D01*
X0180527Y0144951D02*
X0180527Y0153809D01*
X0146668Y0153809D01*
X0146668Y0144951D01*
X0228755Y0154990D02*
X0228755Y0114636D01*
X0277968Y0114636D01*
X0277968Y0154990D01*
D144*
X0158892Y0115845D02*
X0156692Y0114045D01*
X0156692Y0115945D01*
X0156692Y0114045D02*
X0156692Y0112045D01*
X0156792Y0114045D02*
X0158892Y0112045D01*
X0159483Y0105609D02*
X0157283Y0103809D01*
X0157283Y0105709D01*
X0157283Y0103809D02*
X0157283Y0101809D01*
X0157383Y0103809D02*
X0159483Y0101809D01*
X0091875Y0057368D02*
X0089975Y0057368D01*
X0091775Y0055168D01*
X0089975Y0057268D02*
X0087975Y0055168D01*
X0087975Y0057368D02*
X0089975Y0057368D01*
X0077996Y0101822D02*
X0076196Y0104022D01*
X0078096Y0104022D01*
X0076196Y0104022D02*
X0074196Y0104022D01*
X0076196Y0103922D02*
X0074196Y0101822D01*
M02*
