G75*
%MOIN*%
%OFA0B0*%
%FSLAX25Y25*%
%IPPOS*%
%LPD*%
%AMOC8*
5,1,8,0,0,1.08239X$1,22.5*
%
%ADD10C,0.00000*%
%ADD11C,0.06337*%
%ADD12R,0.13055X0.13055*%
%ADD13R,0.07124X0.07124*%
%ADD14C,0.01000*%
%ADD15R,0.05937X0.05937*%
%ADD16C,0.05600*%
%ADD17R,0.04362X0.04362*%
%ADD18C,0.02400*%
%ADD19C,0.07600*%
%ADD20C,0.01600*%
D10*
X0070290Y0017195D02*
X0070290Y0154990D01*
X0286826Y0154990D01*
X0286826Y0017195D01*
X0070290Y0017195D01*
X0144897Y0086093D02*
X0144899Y0086249D01*
X0144905Y0086405D01*
X0144915Y0086560D01*
X0144929Y0086715D01*
X0144947Y0086870D01*
X0144969Y0087024D01*
X0144994Y0087178D01*
X0145024Y0087331D01*
X0145058Y0087483D01*
X0145095Y0087635D01*
X0145136Y0087785D01*
X0145181Y0087934D01*
X0145230Y0088082D01*
X0145283Y0088229D01*
X0145339Y0088374D01*
X0145399Y0088518D01*
X0145463Y0088660D01*
X0145531Y0088801D01*
X0145602Y0088939D01*
X0145676Y0089076D01*
X0145754Y0089211D01*
X0145835Y0089344D01*
X0145920Y0089475D01*
X0146008Y0089604D01*
X0146099Y0089730D01*
X0146194Y0089854D01*
X0146291Y0089975D01*
X0146392Y0090094D01*
X0146496Y0090211D01*
X0146602Y0090324D01*
X0146712Y0090435D01*
X0146824Y0090543D01*
X0146939Y0090648D01*
X0147057Y0090751D01*
X0147177Y0090850D01*
X0147300Y0090946D01*
X0147425Y0091039D01*
X0147552Y0091128D01*
X0147682Y0091215D01*
X0147814Y0091298D01*
X0147948Y0091377D01*
X0148084Y0091454D01*
X0148222Y0091526D01*
X0148361Y0091596D01*
X0148503Y0091661D01*
X0148646Y0091723D01*
X0148790Y0091781D01*
X0148936Y0091836D01*
X0149084Y0091887D01*
X0149232Y0091934D01*
X0149382Y0091977D01*
X0149533Y0092016D01*
X0149685Y0092052D01*
X0149837Y0092083D01*
X0149991Y0092111D01*
X0150145Y0092135D01*
X0150299Y0092155D01*
X0150454Y0092171D01*
X0150610Y0092183D01*
X0150765Y0092191D01*
X0150921Y0092195D01*
X0151077Y0092195D01*
X0151233Y0092191D01*
X0151388Y0092183D01*
X0151544Y0092171D01*
X0151699Y0092155D01*
X0151853Y0092135D01*
X0152007Y0092111D01*
X0152161Y0092083D01*
X0152313Y0092052D01*
X0152465Y0092016D01*
X0152616Y0091977D01*
X0152766Y0091934D01*
X0152914Y0091887D01*
X0153062Y0091836D01*
X0153208Y0091781D01*
X0153352Y0091723D01*
X0153495Y0091661D01*
X0153637Y0091596D01*
X0153776Y0091526D01*
X0153914Y0091454D01*
X0154050Y0091377D01*
X0154184Y0091298D01*
X0154316Y0091215D01*
X0154446Y0091128D01*
X0154573Y0091039D01*
X0154698Y0090946D01*
X0154821Y0090850D01*
X0154941Y0090751D01*
X0155059Y0090648D01*
X0155174Y0090543D01*
X0155286Y0090435D01*
X0155396Y0090324D01*
X0155502Y0090211D01*
X0155606Y0090094D01*
X0155707Y0089975D01*
X0155804Y0089854D01*
X0155899Y0089730D01*
X0155990Y0089604D01*
X0156078Y0089475D01*
X0156163Y0089344D01*
X0156244Y0089211D01*
X0156322Y0089076D01*
X0156396Y0088939D01*
X0156467Y0088801D01*
X0156535Y0088660D01*
X0156599Y0088518D01*
X0156659Y0088374D01*
X0156715Y0088229D01*
X0156768Y0088082D01*
X0156817Y0087934D01*
X0156862Y0087785D01*
X0156903Y0087635D01*
X0156940Y0087483D01*
X0156974Y0087331D01*
X0157004Y0087178D01*
X0157029Y0087024D01*
X0157051Y0086870D01*
X0157069Y0086715D01*
X0157083Y0086560D01*
X0157093Y0086405D01*
X0157099Y0086249D01*
X0157101Y0086093D01*
X0157099Y0085937D01*
X0157093Y0085781D01*
X0157083Y0085626D01*
X0157069Y0085471D01*
X0157051Y0085316D01*
X0157029Y0085162D01*
X0157004Y0085008D01*
X0156974Y0084855D01*
X0156940Y0084703D01*
X0156903Y0084551D01*
X0156862Y0084401D01*
X0156817Y0084252D01*
X0156768Y0084104D01*
X0156715Y0083957D01*
X0156659Y0083812D01*
X0156599Y0083668D01*
X0156535Y0083526D01*
X0156467Y0083385D01*
X0156396Y0083247D01*
X0156322Y0083110D01*
X0156244Y0082975D01*
X0156163Y0082842D01*
X0156078Y0082711D01*
X0155990Y0082582D01*
X0155899Y0082456D01*
X0155804Y0082332D01*
X0155707Y0082211D01*
X0155606Y0082092D01*
X0155502Y0081975D01*
X0155396Y0081862D01*
X0155286Y0081751D01*
X0155174Y0081643D01*
X0155059Y0081538D01*
X0154941Y0081435D01*
X0154821Y0081336D01*
X0154698Y0081240D01*
X0154573Y0081147D01*
X0154446Y0081058D01*
X0154316Y0080971D01*
X0154184Y0080888D01*
X0154050Y0080809D01*
X0153914Y0080732D01*
X0153776Y0080660D01*
X0153637Y0080590D01*
X0153495Y0080525D01*
X0153352Y0080463D01*
X0153208Y0080405D01*
X0153062Y0080350D01*
X0152914Y0080299D01*
X0152766Y0080252D01*
X0152616Y0080209D01*
X0152465Y0080170D01*
X0152313Y0080134D01*
X0152161Y0080103D01*
X0152007Y0080075D01*
X0151853Y0080051D01*
X0151699Y0080031D01*
X0151544Y0080015D01*
X0151388Y0080003D01*
X0151233Y0079995D01*
X0151077Y0079991D01*
X0150921Y0079991D01*
X0150765Y0079995D01*
X0150610Y0080003D01*
X0150454Y0080015D01*
X0150299Y0080031D01*
X0150145Y0080051D01*
X0149991Y0080075D01*
X0149837Y0080103D01*
X0149685Y0080134D01*
X0149533Y0080170D01*
X0149382Y0080209D01*
X0149232Y0080252D01*
X0149084Y0080299D01*
X0148936Y0080350D01*
X0148790Y0080405D01*
X0148646Y0080463D01*
X0148503Y0080525D01*
X0148361Y0080590D01*
X0148222Y0080660D01*
X0148084Y0080732D01*
X0147948Y0080809D01*
X0147814Y0080888D01*
X0147682Y0080971D01*
X0147552Y0081058D01*
X0147425Y0081147D01*
X0147300Y0081240D01*
X0147177Y0081336D01*
X0147057Y0081435D01*
X0146939Y0081538D01*
X0146824Y0081643D01*
X0146712Y0081751D01*
X0146602Y0081862D01*
X0146496Y0081975D01*
X0146392Y0082092D01*
X0146291Y0082211D01*
X0146194Y0082332D01*
X0146099Y0082456D01*
X0146008Y0082582D01*
X0145920Y0082711D01*
X0145835Y0082842D01*
X0145754Y0082975D01*
X0145676Y0083110D01*
X0145602Y0083247D01*
X0145531Y0083385D01*
X0145463Y0083526D01*
X0145399Y0083668D01*
X0145339Y0083812D01*
X0145283Y0083957D01*
X0145230Y0084104D01*
X0145181Y0084252D01*
X0145136Y0084401D01*
X0145095Y0084551D01*
X0145058Y0084703D01*
X0145024Y0084855D01*
X0144994Y0085008D01*
X0144969Y0085162D01*
X0144947Y0085316D01*
X0144929Y0085471D01*
X0144915Y0085626D01*
X0144905Y0085781D01*
X0144899Y0085937D01*
X0144897Y0086093D01*
X0200015Y0086093D02*
X0200017Y0086249D01*
X0200023Y0086405D01*
X0200033Y0086560D01*
X0200047Y0086715D01*
X0200065Y0086870D01*
X0200087Y0087024D01*
X0200112Y0087178D01*
X0200142Y0087331D01*
X0200176Y0087483D01*
X0200213Y0087635D01*
X0200254Y0087785D01*
X0200299Y0087934D01*
X0200348Y0088082D01*
X0200401Y0088229D01*
X0200457Y0088374D01*
X0200517Y0088518D01*
X0200581Y0088660D01*
X0200649Y0088801D01*
X0200720Y0088939D01*
X0200794Y0089076D01*
X0200872Y0089211D01*
X0200953Y0089344D01*
X0201038Y0089475D01*
X0201126Y0089604D01*
X0201217Y0089730D01*
X0201312Y0089854D01*
X0201409Y0089975D01*
X0201510Y0090094D01*
X0201614Y0090211D01*
X0201720Y0090324D01*
X0201830Y0090435D01*
X0201942Y0090543D01*
X0202057Y0090648D01*
X0202175Y0090751D01*
X0202295Y0090850D01*
X0202418Y0090946D01*
X0202543Y0091039D01*
X0202670Y0091128D01*
X0202800Y0091215D01*
X0202932Y0091298D01*
X0203066Y0091377D01*
X0203202Y0091454D01*
X0203340Y0091526D01*
X0203479Y0091596D01*
X0203621Y0091661D01*
X0203764Y0091723D01*
X0203908Y0091781D01*
X0204054Y0091836D01*
X0204202Y0091887D01*
X0204350Y0091934D01*
X0204500Y0091977D01*
X0204651Y0092016D01*
X0204803Y0092052D01*
X0204955Y0092083D01*
X0205109Y0092111D01*
X0205263Y0092135D01*
X0205417Y0092155D01*
X0205572Y0092171D01*
X0205728Y0092183D01*
X0205883Y0092191D01*
X0206039Y0092195D01*
X0206195Y0092195D01*
X0206351Y0092191D01*
X0206506Y0092183D01*
X0206662Y0092171D01*
X0206817Y0092155D01*
X0206971Y0092135D01*
X0207125Y0092111D01*
X0207279Y0092083D01*
X0207431Y0092052D01*
X0207583Y0092016D01*
X0207734Y0091977D01*
X0207884Y0091934D01*
X0208032Y0091887D01*
X0208180Y0091836D01*
X0208326Y0091781D01*
X0208470Y0091723D01*
X0208613Y0091661D01*
X0208755Y0091596D01*
X0208894Y0091526D01*
X0209032Y0091454D01*
X0209168Y0091377D01*
X0209302Y0091298D01*
X0209434Y0091215D01*
X0209564Y0091128D01*
X0209691Y0091039D01*
X0209816Y0090946D01*
X0209939Y0090850D01*
X0210059Y0090751D01*
X0210177Y0090648D01*
X0210292Y0090543D01*
X0210404Y0090435D01*
X0210514Y0090324D01*
X0210620Y0090211D01*
X0210724Y0090094D01*
X0210825Y0089975D01*
X0210922Y0089854D01*
X0211017Y0089730D01*
X0211108Y0089604D01*
X0211196Y0089475D01*
X0211281Y0089344D01*
X0211362Y0089211D01*
X0211440Y0089076D01*
X0211514Y0088939D01*
X0211585Y0088801D01*
X0211653Y0088660D01*
X0211717Y0088518D01*
X0211777Y0088374D01*
X0211833Y0088229D01*
X0211886Y0088082D01*
X0211935Y0087934D01*
X0211980Y0087785D01*
X0212021Y0087635D01*
X0212058Y0087483D01*
X0212092Y0087331D01*
X0212122Y0087178D01*
X0212147Y0087024D01*
X0212169Y0086870D01*
X0212187Y0086715D01*
X0212201Y0086560D01*
X0212211Y0086405D01*
X0212217Y0086249D01*
X0212219Y0086093D01*
X0212217Y0085937D01*
X0212211Y0085781D01*
X0212201Y0085626D01*
X0212187Y0085471D01*
X0212169Y0085316D01*
X0212147Y0085162D01*
X0212122Y0085008D01*
X0212092Y0084855D01*
X0212058Y0084703D01*
X0212021Y0084551D01*
X0211980Y0084401D01*
X0211935Y0084252D01*
X0211886Y0084104D01*
X0211833Y0083957D01*
X0211777Y0083812D01*
X0211717Y0083668D01*
X0211653Y0083526D01*
X0211585Y0083385D01*
X0211514Y0083247D01*
X0211440Y0083110D01*
X0211362Y0082975D01*
X0211281Y0082842D01*
X0211196Y0082711D01*
X0211108Y0082582D01*
X0211017Y0082456D01*
X0210922Y0082332D01*
X0210825Y0082211D01*
X0210724Y0082092D01*
X0210620Y0081975D01*
X0210514Y0081862D01*
X0210404Y0081751D01*
X0210292Y0081643D01*
X0210177Y0081538D01*
X0210059Y0081435D01*
X0209939Y0081336D01*
X0209816Y0081240D01*
X0209691Y0081147D01*
X0209564Y0081058D01*
X0209434Y0080971D01*
X0209302Y0080888D01*
X0209168Y0080809D01*
X0209032Y0080732D01*
X0208894Y0080660D01*
X0208755Y0080590D01*
X0208613Y0080525D01*
X0208470Y0080463D01*
X0208326Y0080405D01*
X0208180Y0080350D01*
X0208032Y0080299D01*
X0207884Y0080252D01*
X0207734Y0080209D01*
X0207583Y0080170D01*
X0207431Y0080134D01*
X0207279Y0080103D01*
X0207125Y0080075D01*
X0206971Y0080051D01*
X0206817Y0080031D01*
X0206662Y0080015D01*
X0206506Y0080003D01*
X0206351Y0079995D01*
X0206195Y0079991D01*
X0206039Y0079991D01*
X0205883Y0079995D01*
X0205728Y0080003D01*
X0205572Y0080015D01*
X0205417Y0080031D01*
X0205263Y0080051D01*
X0205109Y0080075D01*
X0204955Y0080103D01*
X0204803Y0080134D01*
X0204651Y0080170D01*
X0204500Y0080209D01*
X0204350Y0080252D01*
X0204202Y0080299D01*
X0204054Y0080350D01*
X0203908Y0080405D01*
X0203764Y0080463D01*
X0203621Y0080525D01*
X0203479Y0080590D01*
X0203340Y0080660D01*
X0203202Y0080732D01*
X0203066Y0080809D01*
X0202932Y0080888D01*
X0202800Y0080971D01*
X0202670Y0081058D01*
X0202543Y0081147D01*
X0202418Y0081240D01*
X0202295Y0081336D01*
X0202175Y0081435D01*
X0202057Y0081538D01*
X0201942Y0081643D01*
X0201830Y0081751D01*
X0201720Y0081862D01*
X0201614Y0081975D01*
X0201510Y0082092D01*
X0201409Y0082211D01*
X0201312Y0082332D01*
X0201217Y0082456D01*
X0201126Y0082582D01*
X0201038Y0082711D01*
X0200953Y0082842D01*
X0200872Y0082975D01*
X0200794Y0083110D01*
X0200720Y0083247D01*
X0200649Y0083385D01*
X0200581Y0083526D01*
X0200517Y0083668D01*
X0200457Y0083812D01*
X0200401Y0083957D01*
X0200348Y0084104D01*
X0200299Y0084252D01*
X0200254Y0084401D01*
X0200213Y0084551D01*
X0200176Y0084703D01*
X0200142Y0084855D01*
X0200112Y0085008D01*
X0200087Y0085162D01*
X0200065Y0085316D01*
X0200047Y0085471D01*
X0200033Y0085626D01*
X0200023Y0085781D01*
X0200017Y0085937D01*
X0200015Y0086093D01*
D11*
X0188558Y0089261D02*
X0188558Y0082924D01*
X0178558Y0082924D02*
X0178558Y0089261D01*
X0168558Y0089261D02*
X0168558Y0082924D01*
X0239582Y0117373D02*
X0239582Y0123710D01*
X0249424Y0123710D02*
X0249424Y0117373D01*
X0257298Y0117373D02*
X0257298Y0123710D01*
X0267141Y0123710D02*
X0267141Y0117373D01*
D12*
X0279227Y0131211D03*
X0227495Y0131211D03*
D13*
X0089975Y0045344D03*
X0100605Y0035502D03*
X0089975Y0025659D03*
D14*
X0089475Y0025183D02*
X0072390Y0025183D01*
X0072390Y0026181D02*
X0084913Y0026181D01*
X0084913Y0026159D02*
X0089475Y0026159D01*
X0089475Y0025159D01*
X0090475Y0025159D01*
X0090475Y0020597D01*
X0093735Y0020597D01*
X0094117Y0020699D01*
X0094459Y0020897D01*
X0094738Y0021176D01*
X0094935Y0021518D01*
X0095038Y0021900D01*
X0095038Y0025159D01*
X0090475Y0025159D01*
X0090475Y0026159D01*
X0095038Y0026159D01*
X0095038Y0029419D01*
X0094935Y0029801D01*
X0094738Y0030143D01*
X0094459Y0030422D01*
X0094117Y0030619D01*
X0093735Y0030722D01*
X0090475Y0030722D01*
X0090475Y0026159D01*
X0089475Y0026159D01*
X0089475Y0030722D01*
X0086216Y0030722D01*
X0085834Y0030619D01*
X0085492Y0030422D01*
X0085213Y0030143D01*
X0085015Y0029801D01*
X0084913Y0029419D01*
X0084913Y0026159D01*
X0084913Y0025159D02*
X0084913Y0021900D01*
X0085015Y0021518D01*
X0085213Y0021176D01*
X0085492Y0020897D01*
X0085834Y0020699D01*
X0086216Y0020597D01*
X0089475Y0020597D01*
X0089475Y0025159D01*
X0084913Y0025159D01*
X0084913Y0024184D02*
X0072390Y0024184D01*
X0072390Y0023186D02*
X0084913Y0023186D01*
X0084913Y0022187D02*
X0072390Y0022187D01*
X0072390Y0021189D02*
X0085206Y0021189D01*
X0089475Y0021189D02*
X0090475Y0021189D01*
X0090475Y0022187D02*
X0089475Y0022187D01*
X0089475Y0023186D02*
X0090475Y0023186D01*
X0090475Y0024184D02*
X0089475Y0024184D01*
X0090475Y0025183D02*
X0284726Y0025183D01*
X0284726Y0026181D02*
X0095038Y0026181D01*
X0095038Y0027180D02*
X0284726Y0027180D01*
X0284726Y0028179D02*
X0095038Y0028179D01*
X0095038Y0029177D02*
X0284726Y0029177D01*
X0284726Y0030176D02*
X0094705Y0030176D01*
X0095843Y0031019D02*
X0095645Y0031361D01*
X0095543Y0031742D01*
X0095543Y0035002D01*
X0100105Y0035002D01*
X0100105Y0036002D01*
X0095543Y0036002D01*
X0095543Y0039262D01*
X0095645Y0039643D01*
X0095843Y0039985D01*
X0096122Y0040264D01*
X0096464Y0040462D01*
X0096846Y0040564D01*
X0100105Y0040564D01*
X0100105Y0036002D01*
X0101105Y0036002D01*
X0101105Y0040564D01*
X0104365Y0040564D01*
X0104747Y0040462D01*
X0105089Y0040264D01*
X0105368Y0039985D01*
X0105565Y0039643D01*
X0105668Y0039262D01*
X0105668Y0036002D01*
X0101105Y0036002D01*
X0101105Y0035002D01*
X0101105Y0030440D01*
X0104365Y0030440D01*
X0104747Y0030542D01*
X0105089Y0030739D01*
X0105368Y0031019D01*
X0105565Y0031361D01*
X0105668Y0031742D01*
X0105668Y0035002D01*
X0101105Y0035002D01*
X0100105Y0035002D01*
X0100105Y0030440D01*
X0096846Y0030440D01*
X0096464Y0030542D01*
X0096122Y0030739D01*
X0095843Y0031019D01*
X0095753Y0031174D02*
X0072390Y0031174D01*
X0072390Y0030176D02*
X0085246Y0030176D01*
X0084913Y0029177D02*
X0072390Y0029177D01*
X0072390Y0028179D02*
X0084913Y0028179D01*
X0084913Y0027180D02*
X0072390Y0027180D01*
X0072390Y0032173D02*
X0095543Y0032173D01*
X0095543Y0033171D02*
X0072390Y0033171D01*
X0072390Y0034170D02*
X0095543Y0034170D01*
X0095543Y0036167D02*
X0072390Y0036167D01*
X0072390Y0037165D02*
X0095543Y0037165D01*
X0095543Y0038164D02*
X0072390Y0038164D01*
X0072390Y0039162D02*
X0095543Y0039162D01*
X0096018Y0040161D02*
X0094886Y0040161D01*
X0094407Y0039682D02*
X0095638Y0040912D01*
X0095638Y0049777D01*
X0094407Y0051007D01*
X0085543Y0051007D01*
X0084313Y0049777D01*
X0084313Y0040912D01*
X0085543Y0039682D01*
X0094407Y0039682D01*
X0095638Y0041159D02*
X0284726Y0041159D01*
X0284726Y0040161D02*
X0105192Y0040161D01*
X0105668Y0039162D02*
X0284726Y0039162D01*
X0284726Y0038164D02*
X0105668Y0038164D01*
X0105668Y0037165D02*
X0284726Y0037165D01*
X0284726Y0036167D02*
X0105668Y0036167D01*
X0105668Y0034170D02*
X0284726Y0034170D01*
X0284726Y0035168D02*
X0101105Y0035168D01*
X0101105Y0034170D02*
X0100105Y0034170D01*
X0100105Y0035168D02*
X0072390Y0035168D01*
X0072390Y0040161D02*
X0085065Y0040161D01*
X0084313Y0041159D02*
X0072390Y0041159D01*
X0072390Y0042158D02*
X0084313Y0042158D01*
X0084313Y0043156D02*
X0072390Y0043156D01*
X0072390Y0044155D02*
X0084313Y0044155D01*
X0084313Y0045153D02*
X0072390Y0045153D01*
X0072390Y0046152D02*
X0084313Y0046152D01*
X0084313Y0047150D02*
X0072390Y0047150D01*
X0072390Y0048149D02*
X0084313Y0048149D01*
X0084313Y0049147D02*
X0072390Y0049147D01*
X0072390Y0050146D02*
X0084682Y0050146D01*
X0095268Y0050146D02*
X0284726Y0050146D01*
X0284726Y0051144D02*
X0072390Y0051144D01*
X0072390Y0052143D02*
X0284726Y0052143D01*
X0284726Y0053141D02*
X0072390Y0053141D01*
X0072390Y0054140D02*
X0284726Y0054140D01*
X0284726Y0055138D02*
X0072390Y0055138D01*
X0072390Y0056137D02*
X0284726Y0056137D01*
X0284726Y0057135D02*
X0072390Y0057135D01*
X0072390Y0058134D02*
X0284726Y0058134D01*
X0284726Y0059132D02*
X0072390Y0059132D01*
X0072390Y0060131D02*
X0284726Y0060131D01*
X0284726Y0061129D02*
X0072390Y0061129D01*
X0072390Y0062128D02*
X0086136Y0062128D01*
X0086137Y0062126D02*
X0086794Y0062126D01*
X0088802Y0061295D01*
X0164771Y0061295D01*
X0166940Y0062193D01*
X0172058Y0067311D01*
X0173717Y0068971D01*
X0174616Y0071139D01*
X0174616Y0073487D01*
X0174458Y0073867D01*
X0174458Y0079573D01*
X0175574Y0078458D01*
X0177510Y0077656D01*
X0179606Y0077656D01*
X0181542Y0078458D01*
X0183025Y0079940D01*
X0183827Y0081876D01*
X0183827Y0090309D01*
X0183025Y0092245D01*
X0181542Y0093727D01*
X0179606Y0094530D01*
X0177510Y0094530D01*
X0175574Y0093727D01*
X0174092Y0092245D01*
X0173558Y0090957D01*
X0173025Y0092245D01*
X0171542Y0093727D01*
X0169606Y0094530D01*
X0167510Y0094530D01*
X0165574Y0093727D01*
X0164092Y0092245D01*
X0163290Y0090309D01*
X0163290Y0088791D01*
X0162658Y0087266D01*
X0162658Y0074599D01*
X0161154Y0073095D01*
X0088802Y0073095D01*
X0086794Y0072263D01*
X0086137Y0072263D01*
X0084907Y0071033D01*
X0084907Y0070376D01*
X0084075Y0068368D01*
X0084075Y0066021D01*
X0084907Y0064014D01*
X0084907Y0063357D01*
X0086137Y0062126D01*
X0085137Y0063126D02*
X0072390Y0063126D01*
X0072390Y0064125D02*
X0084861Y0064125D01*
X0084447Y0065123D02*
X0072390Y0065123D01*
X0072390Y0066122D02*
X0084075Y0066122D01*
X0084075Y0067120D02*
X0072390Y0067120D01*
X0072390Y0068119D02*
X0084075Y0068119D01*
X0084386Y0069117D02*
X0072390Y0069117D01*
X0072390Y0070116D02*
X0084799Y0070116D01*
X0084988Y0071114D02*
X0072390Y0071114D01*
X0072390Y0072113D02*
X0085987Y0072113D01*
X0072390Y0073112D02*
X0161170Y0073112D01*
X0162169Y0074110D02*
X0072390Y0074110D01*
X0072390Y0075109D02*
X0162658Y0075109D01*
X0162658Y0076107D02*
X0072390Y0076107D01*
X0072390Y0077106D02*
X0162658Y0077106D01*
X0162658Y0078104D02*
X0153147Y0078104D01*
X0152631Y0077890D02*
X0155645Y0079139D01*
X0157953Y0081446D01*
X0159201Y0084461D01*
X0159201Y0087724D01*
X0157953Y0090739D01*
X0155645Y0093046D01*
X0152631Y0094295D01*
X0149367Y0094295D01*
X0146353Y0093046D01*
X0144045Y0090739D01*
X0142797Y0087724D01*
X0142797Y0084461D01*
X0144045Y0081446D01*
X0146353Y0079139D01*
X0149367Y0077890D01*
X0152631Y0077890D01*
X0155558Y0079103D02*
X0162658Y0079103D01*
X0162658Y0080101D02*
X0156608Y0080101D01*
X0157606Y0081100D02*
X0162658Y0081100D01*
X0162658Y0082098D02*
X0158223Y0082098D01*
X0158636Y0083097D02*
X0162658Y0083097D01*
X0162658Y0084095D02*
X0159050Y0084095D01*
X0159201Y0085094D02*
X0162658Y0085094D01*
X0162658Y0086092D02*
X0159201Y0086092D01*
X0159201Y0087091D02*
X0162658Y0087091D01*
X0162999Y0088089D02*
X0159050Y0088089D01*
X0158637Y0089088D02*
X0163290Y0089088D01*
X0163290Y0090086D02*
X0158223Y0090086D01*
X0157607Y0091085D02*
X0163611Y0091085D01*
X0164025Y0092083D02*
X0156608Y0092083D01*
X0155559Y0093082D02*
X0164928Y0093082D01*
X0166426Y0094080D02*
X0153149Y0094080D01*
X0148849Y0094080D02*
X0140032Y0094080D01*
X0139732Y0093781D02*
X0142523Y0096572D01*
X0214593Y0096572D01*
X0228657Y0082508D01*
X0229870Y0082005D01*
X0244998Y0082005D01*
X0245980Y0081024D01*
X0252081Y0081024D01*
X0253312Y0082254D01*
X0253312Y0088356D01*
X0252081Y0089586D01*
X0245980Y0089586D01*
X0244998Y0088605D01*
X0231893Y0088605D01*
X0217829Y0102670D01*
X0216616Y0103172D01*
X0140500Y0103172D01*
X0139287Y0102670D01*
X0134563Y0097945D01*
X0134563Y0097945D01*
X0133635Y0097017D01*
X0133132Y0095804D01*
X0133132Y0093274D01*
X0132151Y0092293D01*
X0132151Y0086191D01*
X0133381Y0084961D01*
X0139483Y0084961D01*
X0140713Y0086191D01*
X0140713Y0092293D01*
X0139732Y0093274D01*
X0139732Y0093781D01*
X0139925Y0093082D02*
X0146439Y0093082D01*
X0145390Y0092083D02*
X0140713Y0092083D01*
X0140713Y0091085D02*
X0144391Y0091085D01*
X0143775Y0090086D02*
X0140713Y0090086D01*
X0140713Y0089088D02*
X0143362Y0089088D01*
X0142948Y0088089D02*
X0140713Y0088089D01*
X0140713Y0087091D02*
X0142797Y0087091D01*
X0142797Y0086092D02*
X0140614Y0086092D01*
X0139616Y0085094D02*
X0142797Y0085094D01*
X0142948Y0084095D02*
X0072390Y0084095D01*
X0072390Y0083097D02*
X0143362Y0083097D01*
X0143775Y0082098D02*
X0072390Y0082098D01*
X0072390Y0081100D02*
X0144392Y0081100D01*
X0145391Y0080101D02*
X0072390Y0080101D01*
X0072390Y0079103D02*
X0146440Y0079103D01*
X0148851Y0078104D02*
X0072390Y0078104D01*
X0072390Y0085094D02*
X0133249Y0085094D01*
X0132250Y0086092D02*
X0072390Y0086092D01*
X0072390Y0087091D02*
X0132151Y0087091D01*
X0132151Y0088089D02*
X0072390Y0088089D01*
X0072390Y0089088D02*
X0132151Y0089088D01*
X0132151Y0090086D02*
X0072390Y0090086D01*
X0072390Y0091085D02*
X0132151Y0091085D01*
X0132151Y0092083D02*
X0072390Y0092083D01*
X0072390Y0093082D02*
X0132940Y0093082D01*
X0133132Y0094080D02*
X0072390Y0094080D01*
X0072390Y0095079D02*
X0133132Y0095079D01*
X0133245Y0096077D02*
X0072390Y0096077D01*
X0072390Y0097076D02*
X0133693Y0097076D01*
X0134692Y0098074D02*
X0072390Y0098074D01*
X0072390Y0099073D02*
X0135690Y0099073D01*
X0136689Y0100071D02*
X0072390Y0100071D01*
X0072390Y0101070D02*
X0137687Y0101070D01*
X0138686Y0102068D02*
X0072390Y0102068D01*
X0072390Y0103067D02*
X0140246Y0103067D01*
X0142029Y0096077D02*
X0215088Y0096077D01*
X0216086Y0095079D02*
X0141030Y0095079D01*
X0170691Y0094080D02*
X0176426Y0094080D01*
X0174928Y0093082D02*
X0172188Y0093082D01*
X0173092Y0092083D02*
X0174025Y0092083D01*
X0173611Y0091085D02*
X0173505Y0091085D01*
X0180691Y0094080D02*
X0203967Y0094080D01*
X0204486Y0094295D02*
X0201471Y0093046D01*
X0199164Y0090739D01*
X0197915Y0087724D01*
X0197915Y0084461D01*
X0199164Y0081446D01*
X0201471Y0079139D01*
X0204486Y0077890D01*
X0207749Y0077890D01*
X0210763Y0079139D01*
X0213071Y0081446D01*
X0214320Y0084461D01*
X0214320Y0087724D01*
X0213071Y0090739D01*
X0210763Y0093046D01*
X0207749Y0094295D01*
X0204486Y0094295D01*
X0201557Y0093082D02*
X0191242Y0093082D01*
X0191005Y0093254D02*
X0190350Y0093587D01*
X0189651Y0093815D01*
X0189042Y0093911D01*
X0189042Y0086577D01*
X0188074Y0086577D01*
X0188074Y0093911D01*
X0187465Y0093815D01*
X0186766Y0093587D01*
X0186111Y0093254D01*
X0185517Y0092822D01*
X0184997Y0092302D01*
X0184565Y0091708D01*
X0184232Y0091053D01*
X0184005Y0090354D01*
X0183890Y0089628D01*
X0183890Y0086577D01*
X0188074Y0086577D01*
X0188074Y0085608D01*
X0189042Y0085608D01*
X0189042Y0078274D01*
X0189651Y0078370D01*
X0190350Y0078598D01*
X0191005Y0078931D01*
X0191599Y0079363D01*
X0192119Y0079883D01*
X0192551Y0080477D01*
X0192885Y0081132D01*
X0193112Y0081831D01*
X0193227Y0082557D01*
X0193227Y0085608D01*
X0189042Y0085608D01*
X0189042Y0086577D01*
X0193227Y0086577D01*
X0193227Y0089628D01*
X0193112Y0090354D01*
X0192885Y0091053D01*
X0192551Y0091708D01*
X0192119Y0092302D01*
X0191599Y0092822D01*
X0191005Y0093254D01*
X0192278Y0092083D02*
X0200508Y0092083D01*
X0199509Y0091085D02*
X0192868Y0091085D01*
X0193154Y0090086D02*
X0198893Y0090086D01*
X0198480Y0089088D02*
X0193227Y0089088D01*
X0193227Y0088089D02*
X0198066Y0088089D01*
X0197915Y0087091D02*
X0193227Y0087091D01*
X0193227Y0085094D02*
X0197915Y0085094D01*
X0197915Y0086092D02*
X0189042Y0086092D01*
X0188074Y0086092D02*
X0183827Y0086092D01*
X0183890Y0085608D02*
X0183890Y0082557D01*
X0184005Y0081831D01*
X0184232Y0081132D01*
X0184565Y0080477D01*
X0184997Y0079883D01*
X0185517Y0079363D01*
X0186111Y0078931D01*
X0186766Y0078598D01*
X0187465Y0078370D01*
X0188074Y0078274D01*
X0188074Y0085608D01*
X0183890Y0085608D01*
X0183890Y0085094D02*
X0183827Y0085094D01*
X0183827Y0084095D02*
X0183890Y0084095D01*
X0183890Y0083097D02*
X0183827Y0083097D01*
X0183827Y0082098D02*
X0183962Y0082098D01*
X0184248Y0081100D02*
X0183505Y0081100D01*
X0183091Y0080101D02*
X0184838Y0080101D01*
X0185875Y0079103D02*
X0182187Y0079103D01*
X0180689Y0078104D02*
X0203969Y0078104D01*
X0201559Y0079103D02*
X0191241Y0079103D01*
X0192278Y0080101D02*
X0200509Y0080101D01*
X0199510Y0081100D02*
X0192868Y0081100D01*
X0193154Y0082098D02*
X0198894Y0082098D01*
X0198480Y0083097D02*
X0193227Y0083097D01*
X0193227Y0084095D02*
X0198066Y0084095D01*
X0189042Y0084095D02*
X0188074Y0084095D01*
X0188074Y0083097D02*
X0189042Y0083097D01*
X0189042Y0082098D02*
X0188074Y0082098D01*
X0188074Y0081100D02*
X0189042Y0081100D01*
X0189042Y0080101D02*
X0188074Y0080101D01*
X0188074Y0079103D02*
X0189042Y0079103D01*
X0189042Y0085094D02*
X0188074Y0085094D01*
X0188074Y0087091D02*
X0189042Y0087091D01*
X0189042Y0088089D02*
X0188074Y0088089D01*
X0188074Y0089088D02*
X0189042Y0089088D01*
X0189042Y0090086D02*
X0188074Y0090086D01*
X0188074Y0091085D02*
X0189042Y0091085D01*
X0189042Y0092083D02*
X0188074Y0092083D01*
X0188074Y0093082D02*
X0189042Y0093082D01*
X0185874Y0093082D02*
X0182188Y0093082D01*
X0183092Y0092083D02*
X0184838Y0092083D01*
X0184248Y0091085D02*
X0183505Y0091085D01*
X0183827Y0090086D02*
X0183962Y0090086D01*
X0183890Y0089088D02*
X0183827Y0089088D01*
X0183827Y0088089D02*
X0183890Y0088089D01*
X0183890Y0087091D02*
X0183827Y0087091D01*
X0176427Y0078104D02*
X0174458Y0078104D01*
X0174458Y0077106D02*
X0284726Y0077106D01*
X0284726Y0078104D02*
X0208265Y0078104D01*
X0210676Y0079103D02*
X0284726Y0079103D01*
X0284726Y0080101D02*
X0211726Y0080101D01*
X0212724Y0081100D02*
X0245904Y0081100D01*
X0252157Y0081100D02*
X0284726Y0081100D01*
X0284726Y0082098D02*
X0253156Y0082098D01*
X0253312Y0083097D02*
X0284726Y0083097D01*
X0284726Y0084095D02*
X0253312Y0084095D01*
X0253312Y0085094D02*
X0284726Y0085094D01*
X0284726Y0086092D02*
X0253312Y0086092D01*
X0253312Y0087091D02*
X0284726Y0087091D01*
X0284726Y0088089D02*
X0253312Y0088089D01*
X0252580Y0089088D02*
X0284726Y0089088D01*
X0284726Y0090086D02*
X0230412Y0090086D01*
X0229414Y0091085D02*
X0284726Y0091085D01*
X0284726Y0092083D02*
X0228415Y0092083D01*
X0227417Y0093082D02*
X0284726Y0093082D01*
X0284726Y0094080D02*
X0226418Y0094080D01*
X0225420Y0095079D02*
X0284726Y0095079D01*
X0284726Y0096077D02*
X0224421Y0096077D01*
X0223423Y0097076D02*
X0284726Y0097076D01*
X0284726Y0098074D02*
X0222424Y0098074D01*
X0221426Y0099073D02*
X0284726Y0099073D01*
X0284726Y0100071D02*
X0220427Y0100071D01*
X0219429Y0101070D02*
X0284726Y0101070D01*
X0284726Y0102068D02*
X0218430Y0102068D01*
X0216870Y0103067D02*
X0284726Y0103067D01*
X0284726Y0104065D02*
X0072390Y0104065D01*
X0072390Y0105064D02*
X0284726Y0105064D01*
X0284726Y0106062D02*
X0072390Y0106062D01*
X0072390Y0107061D02*
X0284726Y0107061D01*
X0284726Y0108059D02*
X0072390Y0108059D01*
X0072390Y0109058D02*
X0284726Y0109058D01*
X0284726Y0110056D02*
X0072390Y0110056D01*
X0072390Y0111055D02*
X0284726Y0111055D01*
X0284726Y0112053D02*
X0072390Y0112053D01*
X0072390Y0113052D02*
X0237779Y0113052D01*
X0237790Y0113046D02*
X0238488Y0112819D01*
X0239097Y0112723D01*
X0239097Y0120057D01*
X0234913Y0120057D01*
X0234913Y0117005D01*
X0235028Y0116280D01*
X0235255Y0115581D01*
X0235589Y0114926D01*
X0236021Y0114332D01*
X0236540Y0113812D01*
X0237135Y0113380D01*
X0237790Y0113046D01*
X0239097Y0113052D02*
X0240066Y0113052D01*
X0240066Y0112723D02*
X0240675Y0112819D01*
X0241374Y0113046D01*
X0242029Y0113380D01*
X0242623Y0113812D01*
X0243143Y0114332D01*
X0243575Y0114926D01*
X0243908Y0115581D01*
X0244135Y0116280D01*
X0244156Y0116409D01*
X0244156Y0116325D01*
X0244958Y0114388D01*
X0246440Y0112906D01*
X0248376Y0112104D01*
X0250472Y0112104D01*
X0252409Y0112906D01*
X0253361Y0113859D01*
X0254314Y0112906D01*
X0256250Y0112104D01*
X0258346Y0112104D01*
X0260283Y0112906D01*
X0261765Y0114388D01*
X0262220Y0115487D01*
X0262674Y0114388D01*
X0264156Y0112906D01*
X0266093Y0112104D01*
X0268189Y0112104D01*
X0270125Y0112906D01*
X0271607Y0114388D01*
X0272409Y0116325D01*
X0272409Y0122583D01*
X0284726Y0122583D01*
X0284726Y0019295D01*
X0072390Y0019295D01*
X0072390Y0152890D01*
X0284726Y0152890D01*
X0284726Y0139838D01*
X0271830Y0139838D01*
X0270600Y0138608D01*
X0270600Y0127702D01*
X0270125Y0128176D01*
X0268189Y0128978D01*
X0266093Y0128978D01*
X0264156Y0128176D01*
X0262674Y0126694D01*
X0262220Y0125596D01*
X0261765Y0126694D01*
X0260283Y0128176D01*
X0258346Y0128978D01*
X0256250Y0128978D01*
X0254314Y0128176D01*
X0253361Y0127224D01*
X0252409Y0128176D01*
X0250472Y0128978D01*
X0248376Y0128978D01*
X0246440Y0128176D01*
X0244958Y0126694D01*
X0244156Y0124758D01*
X0244156Y0124674D01*
X0244135Y0124803D01*
X0243908Y0125502D01*
X0243575Y0126157D01*
X0243143Y0126751D01*
X0242623Y0127271D01*
X0242029Y0127703D01*
X0241374Y0128036D01*
X0240675Y0128263D01*
X0240066Y0128360D01*
X0240066Y0121026D01*
X0239097Y0121026D01*
X0239097Y0120057D01*
X0240066Y0120057D01*
X0240066Y0112723D01*
X0240066Y0114050D02*
X0239097Y0114050D01*
X0239097Y0115049D02*
X0240066Y0115049D01*
X0240066Y0116048D02*
X0239097Y0116048D01*
X0239097Y0117046D02*
X0240066Y0117046D01*
X0240066Y0118045D02*
X0239097Y0118045D01*
X0239097Y0119043D02*
X0240066Y0119043D01*
X0240066Y0120042D02*
X0239097Y0120042D01*
X0239097Y0121026D02*
X0234913Y0121026D01*
X0234913Y0122604D01*
X0234893Y0122583D01*
X0220098Y0122583D01*
X0218868Y0123813D01*
X0218868Y0138608D01*
X0220098Y0139838D01*
X0234893Y0139838D01*
X0236123Y0138608D01*
X0236123Y0126853D01*
X0236540Y0127271D01*
X0237135Y0127703D01*
X0237790Y0128036D01*
X0238488Y0128263D01*
X0239097Y0128360D01*
X0239097Y0121026D01*
X0239097Y0121040D02*
X0240066Y0121040D01*
X0240066Y0122039D02*
X0239097Y0122039D01*
X0239097Y0123037D02*
X0240066Y0123037D01*
X0240066Y0124036D02*
X0239097Y0124036D01*
X0239097Y0125034D02*
X0240066Y0125034D01*
X0240066Y0126033D02*
X0239097Y0126033D01*
X0239097Y0127031D02*
X0240066Y0127031D01*
X0240066Y0128030D02*
X0239097Y0128030D01*
X0237777Y0128030D02*
X0236123Y0128030D01*
X0236123Y0129028D02*
X0270600Y0129028D01*
X0270600Y0128030D02*
X0270272Y0128030D01*
X0270600Y0130027D02*
X0236123Y0130027D01*
X0236123Y0131025D02*
X0270600Y0131025D01*
X0270600Y0132024D02*
X0236123Y0132024D01*
X0236123Y0133022D02*
X0270600Y0133022D01*
X0270600Y0134021D02*
X0236123Y0134021D01*
X0236123Y0135019D02*
X0270600Y0135019D01*
X0270600Y0136018D02*
X0236123Y0136018D01*
X0236123Y0137016D02*
X0270600Y0137016D01*
X0270600Y0138015D02*
X0236123Y0138015D01*
X0235717Y0139013D02*
X0271005Y0139013D01*
X0284726Y0140012D02*
X0094450Y0140012D01*
X0094450Y0139059D02*
X0094450Y0146512D01*
X0094009Y0147578D01*
X0093193Y0148394D01*
X0092127Y0148835D01*
X0091682Y0148835D01*
X0091635Y0148853D01*
X0091107Y0148835D01*
X0090580Y0148835D01*
X0090533Y0148816D01*
X0090482Y0148814D01*
X0090001Y0148595D01*
X0089514Y0148394D01*
X0089478Y0148357D01*
X0089431Y0148336D01*
X0089071Y0147951D01*
X0088794Y0147674D01*
X0088517Y0147951D01*
X0088157Y0148336D01*
X0088111Y0148357D01*
X0088075Y0148394D01*
X0087587Y0148595D01*
X0087107Y0148814D01*
X0087056Y0148816D01*
X0087009Y0148835D01*
X0086481Y0148835D01*
X0085954Y0148853D01*
X0085906Y0148835D01*
X0085462Y0148835D01*
X0084660Y0148503D01*
X0083859Y0148835D01*
X0082706Y0148835D01*
X0081640Y0148394D01*
X0080824Y0147578D01*
X0080383Y0146512D01*
X0080383Y0142536D01*
X0079162Y0142536D01*
X0078096Y0142094D01*
X0077281Y0141279D01*
X0076839Y0140213D01*
X0076839Y0139059D01*
X0077281Y0137993D01*
X0078096Y0137177D01*
X0079162Y0136736D01*
X0083859Y0136736D01*
X0084660Y0137068D01*
X0085462Y0136736D01*
X0086615Y0136736D01*
X0087401Y0137061D01*
X0087684Y0136955D01*
X0088119Y0136757D01*
X0088221Y0136754D01*
X0088316Y0136718D01*
X0088794Y0136734D01*
X0089272Y0136718D01*
X0089368Y0136754D01*
X0089469Y0136757D01*
X0089905Y0136955D01*
X0090188Y0137061D01*
X0090973Y0136736D01*
X0092127Y0136736D01*
X0093193Y0137177D01*
X0094009Y0137993D01*
X0094450Y0139059D01*
X0094431Y0139013D02*
X0219273Y0139013D01*
X0218868Y0138015D02*
X0094018Y0138015D01*
X0092804Y0137016D02*
X0218868Y0137016D01*
X0218868Y0136018D02*
X0072390Y0136018D01*
X0072390Y0137016D02*
X0078485Y0137016D01*
X0077272Y0138015D02*
X0072390Y0138015D01*
X0072390Y0139013D02*
X0076858Y0139013D01*
X0076839Y0140012D02*
X0072390Y0140012D01*
X0072390Y0141010D02*
X0077170Y0141010D01*
X0078011Y0142009D02*
X0072390Y0142009D01*
X0072390Y0143007D02*
X0080383Y0143007D01*
X0080383Y0144006D02*
X0072390Y0144006D01*
X0072390Y0145004D02*
X0080383Y0145004D01*
X0080383Y0146003D02*
X0072390Y0146003D01*
X0072390Y0147001D02*
X0080585Y0147001D01*
X0081246Y0148000D02*
X0072390Y0148000D01*
X0072390Y0148998D02*
X0284726Y0148998D01*
X0284726Y0148000D02*
X0093587Y0148000D01*
X0094247Y0147001D02*
X0284726Y0147001D01*
X0284726Y0146003D02*
X0094450Y0146003D01*
X0094450Y0145004D02*
X0284726Y0145004D01*
X0284726Y0144006D02*
X0094450Y0144006D01*
X0094450Y0143007D02*
X0284726Y0143007D01*
X0284726Y0142009D02*
X0094450Y0142009D01*
X0094450Y0141010D02*
X0284726Y0141010D01*
X0284726Y0149997D02*
X0072390Y0149997D01*
X0072390Y0150995D02*
X0284726Y0150995D01*
X0284726Y0151994D02*
X0072390Y0151994D01*
X0088472Y0148000D02*
X0089117Y0148000D01*
X0090068Y0137016D02*
X0090296Y0137016D01*
X0087521Y0137016D02*
X0087292Y0137016D01*
X0084785Y0137016D02*
X0084536Y0137016D01*
X0072390Y0135019D02*
X0218868Y0135019D01*
X0218868Y0134021D02*
X0072390Y0134021D01*
X0072390Y0133022D02*
X0218868Y0133022D01*
X0218868Y0132024D02*
X0072390Y0132024D01*
X0072390Y0131025D02*
X0218868Y0131025D01*
X0218868Y0130027D02*
X0072390Y0130027D01*
X0072390Y0129028D02*
X0218868Y0129028D01*
X0218868Y0128030D02*
X0072390Y0128030D01*
X0072390Y0127031D02*
X0218868Y0127031D01*
X0218868Y0126033D02*
X0072390Y0126033D01*
X0072390Y0125034D02*
X0218868Y0125034D01*
X0218868Y0124036D02*
X0072390Y0124036D01*
X0072390Y0123037D02*
X0219644Y0123037D01*
X0234913Y0122039D02*
X0072390Y0122039D01*
X0072390Y0121040D02*
X0234913Y0121040D01*
X0234913Y0120042D02*
X0072390Y0120042D01*
X0072390Y0119043D02*
X0234913Y0119043D01*
X0234913Y0118045D02*
X0072390Y0118045D01*
X0072390Y0117046D02*
X0234913Y0117046D01*
X0235104Y0116048D02*
X0072390Y0116048D01*
X0072390Y0115049D02*
X0235526Y0115049D01*
X0236302Y0114050D02*
X0072390Y0114050D01*
X0166782Y0062128D02*
X0284726Y0062128D01*
X0284726Y0063126D02*
X0167873Y0063126D01*
X0168871Y0064125D02*
X0284726Y0064125D01*
X0284726Y0065123D02*
X0169870Y0065123D01*
X0170868Y0066122D02*
X0284726Y0066122D01*
X0284726Y0067120D02*
X0171867Y0067120D01*
X0172865Y0068119D02*
X0284726Y0068119D01*
X0284726Y0069117D02*
X0173778Y0069117D01*
X0174192Y0070116D02*
X0284726Y0070116D01*
X0284726Y0071114D02*
X0174605Y0071114D01*
X0174616Y0072113D02*
X0284726Y0072113D01*
X0284726Y0073112D02*
X0174616Y0073112D01*
X0174458Y0074110D02*
X0284726Y0074110D01*
X0284726Y0075109D02*
X0174458Y0075109D01*
X0174458Y0076107D02*
X0284726Y0076107D01*
X0245481Y0089088D02*
X0231411Y0089088D01*
X0226071Y0085094D02*
X0214320Y0085094D01*
X0214320Y0086092D02*
X0225073Y0086092D01*
X0224074Y0087091D02*
X0214320Y0087091D01*
X0214168Y0088089D02*
X0223076Y0088089D01*
X0222077Y0089088D02*
X0213755Y0089088D01*
X0213341Y0090086D02*
X0221079Y0090086D01*
X0220080Y0091085D02*
X0212725Y0091085D01*
X0211726Y0092083D02*
X0219082Y0092083D01*
X0218083Y0093082D02*
X0210677Y0093082D01*
X0208267Y0094080D02*
X0217085Y0094080D01*
X0214168Y0084095D02*
X0227070Y0084095D01*
X0228068Y0083097D02*
X0213754Y0083097D01*
X0213341Y0082098D02*
X0229646Y0082098D01*
X0241385Y0113052D02*
X0246294Y0113052D01*
X0245296Y0114050D02*
X0242862Y0114050D01*
X0243637Y0115049D02*
X0244684Y0115049D01*
X0244271Y0116048D02*
X0244060Y0116048D01*
X0252554Y0113052D02*
X0254168Y0113052D01*
X0260428Y0113052D02*
X0264011Y0113052D01*
X0263012Y0114050D02*
X0261427Y0114050D01*
X0262038Y0115049D02*
X0262401Y0115049D01*
X0270271Y0113052D02*
X0284726Y0113052D01*
X0284726Y0114050D02*
X0271269Y0114050D01*
X0271881Y0115049D02*
X0284726Y0115049D01*
X0284726Y0116048D02*
X0272294Y0116048D01*
X0272409Y0117046D02*
X0284726Y0117046D01*
X0284726Y0118045D02*
X0272409Y0118045D01*
X0272409Y0119043D02*
X0284726Y0119043D01*
X0284726Y0120042D02*
X0272409Y0120042D01*
X0272409Y0121040D02*
X0284726Y0121040D01*
X0284726Y0122039D02*
X0272409Y0122039D01*
X0263011Y0127031D02*
X0261428Y0127031D01*
X0262039Y0126033D02*
X0262400Y0126033D01*
X0264010Y0128030D02*
X0260429Y0128030D01*
X0254167Y0128030D02*
X0252555Y0128030D01*
X0246293Y0128030D02*
X0241387Y0128030D01*
X0242863Y0127031D02*
X0245295Y0127031D01*
X0244684Y0126033D02*
X0243638Y0126033D01*
X0244060Y0125034D02*
X0244270Y0125034D01*
X0236301Y0127031D02*
X0236123Y0127031D01*
X0174929Y0079103D02*
X0174458Y0079103D01*
X0101105Y0040161D02*
X0100105Y0040161D01*
X0100105Y0039162D02*
X0101105Y0039162D01*
X0101105Y0038164D02*
X0100105Y0038164D01*
X0100105Y0037165D02*
X0101105Y0037165D01*
X0101105Y0036167D02*
X0100105Y0036167D01*
X0100105Y0033171D02*
X0101105Y0033171D01*
X0101105Y0032173D02*
X0100105Y0032173D01*
X0100105Y0031174D02*
X0101105Y0031174D01*
X0105457Y0031174D02*
X0284726Y0031174D01*
X0284726Y0032173D02*
X0105668Y0032173D01*
X0105668Y0033171D02*
X0284726Y0033171D01*
X0284726Y0042158D02*
X0095638Y0042158D01*
X0095638Y0043156D02*
X0284726Y0043156D01*
X0284726Y0044155D02*
X0095638Y0044155D01*
X0095638Y0045153D02*
X0284726Y0045153D01*
X0284726Y0046152D02*
X0095638Y0046152D01*
X0095638Y0047150D02*
X0284726Y0047150D01*
X0284726Y0048149D02*
X0095638Y0048149D01*
X0095638Y0049147D02*
X0284726Y0049147D01*
X0284726Y0024184D02*
X0095038Y0024184D01*
X0095038Y0023186D02*
X0284726Y0023186D01*
X0284726Y0022187D02*
X0095038Y0022187D01*
X0094745Y0021189D02*
X0284726Y0021189D01*
X0284726Y0020190D02*
X0072390Y0020190D01*
X0089475Y0026181D02*
X0090475Y0026181D01*
X0090475Y0027180D02*
X0089475Y0027180D01*
X0089475Y0028179D02*
X0090475Y0028179D01*
X0090475Y0029177D02*
X0089475Y0029177D01*
X0089475Y0030176D02*
X0090475Y0030176D01*
D15*
X0089975Y0067195D03*
X0086432Y0085699D03*
X0168716Y0147116D03*
D16*
X0234464Y0120344D02*
X0239582Y0120344D01*
X0188401Y0093967D02*
X0188401Y0086093D01*
X0188401Y0077037D01*
X0188401Y0086093D02*
X0188794Y0086093D01*
X0089975Y0030581D02*
X0089975Y0025856D01*
D17*
X0136432Y0089242D03*
X0249031Y0085305D03*
D18*
X0230527Y0085305D01*
X0215960Y0099872D01*
X0141157Y0099872D01*
X0136432Y0095148D01*
X0136432Y0089242D01*
D19*
X0168558Y0086093D02*
X0168558Y0072313D01*
X0168716Y0072313D01*
X0163597Y0067195D01*
X0089975Y0067195D01*
D20*
X0088794Y0139636D02*
X0086432Y0145935D01*
X0086038Y0145935D01*
X0086038Y0139636D01*
X0083283Y0139636D02*
X0079739Y0139636D01*
X0083283Y0139636D02*
X0083283Y0145935D01*
X0091157Y0145935D02*
X0088794Y0139636D01*
X0091550Y0139636D02*
X0091550Y0145935D01*
X0091157Y0145935D01*
M02*
