G75*
%MOIN*%
%OFA0B0*%
%FSLAX25Y25*%
%IPPOS*%
%LPD*%
%AMOC8*
5,1,8,0,0,1.08239X$1,22.5*
%
%ADD10R,0.03937X0.04331*%
%ADD11R,0.06299X0.07098*%
%ADD12R,0.01575X0.03150*%
%ADD13R,0.05512X0.03937*%
%ADD14R,0.05906X0.07874*%
%ADD15R,0.04331X0.03937*%
%ADD16R,0.03937X0.02362*%
%ADD17R,0.02362X0.03937*%
%ADD18R,0.05906X0.02362*%
%ADD19R,0.15748X0.11024*%
%ADD20R,0.15748X0.06299*%
%ADD21R,0.06299X0.15748*%
D10*
X0112101Y0078612D03*
X0118794Y0078612D03*
X0128086Y0078652D03*
X0134779Y0078652D03*
X0126786Y0088848D03*
X0120094Y0088848D03*
X0086373Y0092963D03*
X0086373Y0099656D03*
X0228755Y0092392D03*
X0235448Y0092392D03*
X0243519Y0094951D03*
X0250408Y0097116D03*
X0243519Y0101644D03*
X0250408Y0105187D03*
X0257101Y0105187D03*
X0257101Y0097116D03*
X0235448Y0084321D03*
X0228755Y0084321D03*
X0233676Y0067589D03*
X0240369Y0067589D03*
X0239385Y0045935D03*
X0232692Y0045935D03*
X0245487Y0045935D03*
X0252180Y0045935D03*
X0258283Y0045935D03*
X0264975Y0045935D03*
D11*
X0139550Y0113415D03*
X0128353Y0113415D03*
D12*
X0255133Y0088455D03*
X0257692Y0088455D03*
X0260251Y0088455D03*
X0260251Y0082156D03*
X0257692Y0082156D03*
X0255133Y0082156D03*
D13*
X0230527Y0073494D03*
X0221865Y0069754D03*
X0221865Y0077234D03*
X0233676Y0061486D03*
X0242338Y0057746D03*
X0233676Y0054006D03*
D14*
X0255723Y0057746D03*
X0267534Y0057746D03*
X0267534Y0069557D03*
X0255723Y0069557D03*
D15*
X0265566Y0081959D03*
X0265566Y0088652D03*
D16*
X0162613Y0103809D03*
X0153952Y0103809D03*
X0153361Y0114045D03*
X0162023Y0114045D03*
D17*
X0089975Y0052037D03*
X0089975Y0060699D03*
X0076196Y0098691D03*
X0076196Y0107352D03*
D18*
X0098086Y0106112D03*
X0098086Y0101112D03*
X0098086Y0096112D03*
X0119739Y0096112D03*
X0119739Y0101112D03*
X0119739Y0106112D03*
X0119739Y0111112D03*
X0098086Y0111112D03*
D19*
X0079936Y0134911D03*
X0124424Y0134911D03*
D20*
X0151786Y0136880D03*
X0175408Y0136880D03*
D21*
X0135251Y0050659D03*
X0135251Y0027037D03*
M02*
