G75*
%MOIN*%
%OFA0B0*%
%FSLAX25Y25*%
%IPPOS*%
%LPD*%
%AMOC8*
5,1,8,0,0,1.08239X$1,22.5*
%
%ADD10R,0.03315X0.00166*%
%ADD11R,0.05635X0.00166*%
%ADD12R,0.07293X0.00166*%
%ADD13R,0.08619X0.00166*%
%ADD14R,0.09613X0.00166*%
%ADD15R,0.10607X0.00166*%
%ADD16R,0.11602X0.00166*%
%ADD17R,0.12266X0.00166*%
%ADD18R,0.12929X0.00166*%
%ADD19R,0.13592X0.00166*%
%ADD20R,0.14254X0.00166*%
%ADD21R,0.14917X0.00166*%
%ADD22R,0.15580X0.00166*%
%ADD23R,0.16243X0.00166*%
%ADD24R,0.16906X0.00166*%
%ADD25R,0.17238X0.00166*%
%ADD26R,0.17901X0.00166*%
%ADD27R,0.18232X0.00166*%
%ADD28R,0.18564X0.00166*%
%ADD29R,0.19227X0.00166*%
%ADD30R,0.19558X0.00166*%
%ADD31R,0.19889X0.00166*%
%ADD32R,0.20221X0.00166*%
%ADD33R,0.20884X0.00166*%
%ADD34R,0.21216X0.00166*%
%ADD35R,0.21547X0.00166*%
%ADD36R,0.21879X0.00166*%
%ADD37R,0.22210X0.00166*%
%ADD38R,0.22541X0.00166*%
%ADD39R,0.22873X0.00166*%
%ADD40R,0.23205X0.00166*%
%ADD41R,0.23537X0.00166*%
%ADD42R,0.23868X0.00166*%
%ADD43R,0.24199X0.00166*%
%ADD44R,0.24531X0.00166*%
%ADD45R,0.24862X0.00166*%
%ADD46R,0.25194X0.00166*%
%ADD47R,0.25525X0.00166*%
%ADD48R,0.25857X0.00166*%
%ADD49R,0.26188X0.00166*%
%ADD50R,0.26520X0.00166*%
%ADD51R,0.26851X0.00166*%
%ADD52R,0.27183X0.00166*%
%ADD53R,0.27514X0.00166*%
%ADD54R,0.27846X0.00166*%
%ADD55R,0.07956X0.00166*%
%ADD56R,0.07127X0.00166*%
%ADD57R,0.09448X0.00166*%
%ADD58R,0.07790X0.00166*%
%ADD59R,0.06133X0.00166*%
%ADD60R,0.08950X0.00166*%
%ADD61R,0.07624X0.00166*%
%ADD62R,0.05470X0.00166*%
%ADD63R,0.08453X0.00166*%
%ADD64R,0.07624X0.00166*%
%ADD65R,0.04973X0.00166*%
%ADD66R,0.08288X0.00166*%
%ADD67R,0.07458X0.00166*%
%ADD68R,0.04476X0.00166*%
%ADD69R,0.07956X0.00166*%
%ADD70R,0.07459X0.00166*%
%ADD71R,0.04144X0.00166*%
%ADD72R,0.07956X0.00166*%
%ADD73R,0.03813X0.00166*%
%ADD74R,0.03647X0.00166*%
%ADD75R,0.07625X0.00166*%
%ADD76R,0.07459X0.00166*%
%ADD77R,0.03149X0.00166*%
%ADD78R,0.02983X0.00166*%
%ADD79R,0.07293X0.00166*%
%ADD80R,0.02818X0.00166*%
%ADD81R,0.07790X0.00166*%
%ADD82R,0.02652X0.00166*%
%ADD83R,0.06961X0.00166*%
%ADD84R,0.02486X0.00166*%
%ADD85R,0.06796X0.00166*%
%ADD86R,0.02320X0.00166*%
%ADD87R,0.06795X0.00166*%
%ADD88R,0.02155X0.00166*%
%ADD89R,0.08122X0.00166*%
%ADD90R,0.01989X0.00166*%
%ADD91R,0.01491X0.00166*%
%ADD92R,0.06630X0.00166*%
%ADD93R,0.01823X0.00166*%
%ADD94R,0.08287X0.00166*%
%ADD95R,0.06630X0.00166*%
%ADD96R,0.01657X0.00166*%
%ADD97R,0.03481X0.00166*%
%ADD98R,0.03812X0.00166*%
%ADD99R,0.06464X0.00166*%
%ADD100R,0.04309X0.00166*%
%ADD101R,0.01492X0.00166*%
%ADD102R,0.04475X0.00166*%
%ADD103R,0.04641X0.00166*%
%ADD104R,0.06464X0.00166*%
%ADD105R,0.04807X0.00166*%
%ADD106R,0.08619X0.00166*%
%ADD107R,0.03978X0.00166*%
%ADD108R,0.07127X0.00166*%
%ADD109R,0.01161X0.00166*%
%ADD110R,0.03978X0.00166*%
%ADD111R,0.08785X0.00166*%
%ADD112R,0.08950X0.00166*%
%ADD113R,0.04641X0.00166*%
%ADD114R,0.09281X0.00166*%
%ADD115R,0.05139X0.00166*%
%ADD116R,0.09613X0.00166*%
%ADD117R,0.05801X0.00166*%
%ADD118R,0.09779X0.00166*%
%ADD119R,0.09116X0.00166*%
%ADD120R,0.10276X0.00166*%
%ADD121R,0.17735X0.00166*%
%ADD122R,0.11105X0.00166*%
%ADD123R,0.30498X0.00166*%
%ADD124R,0.30166X0.00166*%
%ADD125R,0.29834X0.00166*%
%ADD126R,0.29503X0.00166*%
%ADD127R,0.29172X0.00166*%
%ADD128R,0.19559X0.00166*%
%ADD129R,0.19061X0.00166*%
%ADD130R,0.18730X0.00166*%
%ADD131R,0.18398X0.00166*%
%ADD132R,0.18233X0.00166*%
%ADD133R,0.18067X0.00166*%
%ADD134R,0.17901X0.00166*%
%ADD135R,0.17735X0.00166*%
%ADD136R,0.17569X0.00166*%
%ADD137R,0.17404X0.00166*%
%ADD138C,0.00300*%
%ADD139C,0.01200*%
%ADD140C,0.00800*%
%ADD141C,0.01181*%
%ADD142C,0.00600*%
%ADD143C,0.00500*%
%ADD144C,0.01000*%
D10*
X0165387Y0041935D03*
X0165387Y0050388D03*
X0167542Y0063482D03*
X0167542Y0032156D03*
D11*
X0167542Y0032321D03*
X0167542Y0063316D03*
D12*
X0167542Y0063150D03*
X0167542Y0032487D03*
D13*
X0167542Y0032653D03*
X0156271Y0050388D03*
X0156271Y0050554D03*
X0156437Y0051051D03*
X0156437Y0051217D03*
X0167542Y0062985D03*
D14*
X0167542Y0062819D03*
X0167542Y0032819D03*
D15*
X0167542Y0032984D03*
X0167542Y0062653D03*
D16*
X0167543Y0062487D03*
X0167543Y0033150D03*
D17*
X0167542Y0033316D03*
X0167542Y0062322D03*
D18*
X0167542Y0062156D03*
X0167542Y0033481D03*
D19*
X0167542Y0033647D03*
X0167542Y0061990D03*
D20*
X0167542Y0061824D03*
X0167542Y0033813D03*
D21*
X0167542Y0033979D03*
X0167542Y0061659D03*
D22*
X0167542Y0061493D03*
X0167542Y0034144D03*
D23*
X0167542Y0034310D03*
X0167542Y0061327D03*
D24*
X0167542Y0061161D03*
X0167542Y0034476D03*
D25*
X0167543Y0034642D03*
X0172349Y0056023D03*
X0172183Y0056355D03*
X0172017Y0056520D03*
X0167543Y0060996D03*
D26*
X0167542Y0060830D03*
X0167542Y0034807D03*
D27*
X0167542Y0034973D03*
X0167542Y0060664D03*
D28*
X0167542Y0060498D03*
X0167542Y0035139D03*
D29*
X0167542Y0035305D03*
X0167542Y0060333D03*
D30*
X0167542Y0060167D03*
X0167542Y0035470D03*
D31*
X0167542Y0035636D03*
X0167542Y0060001D03*
D32*
X0167542Y0059835D03*
X0167542Y0035802D03*
D33*
X0167542Y0035968D03*
X0167542Y0059670D03*
D34*
X0167542Y0059504D03*
X0167542Y0036133D03*
D35*
X0167542Y0036299D03*
X0167542Y0059338D03*
D36*
X0167542Y0059172D03*
X0167542Y0036465D03*
D37*
X0167543Y0036631D03*
X0167543Y0059007D03*
D38*
X0167542Y0058841D03*
X0167542Y0036796D03*
D39*
X0167543Y0036962D03*
X0167543Y0058675D03*
D40*
X0167542Y0058509D03*
X0167542Y0037128D03*
D41*
X0167542Y0037294D03*
X0167542Y0058344D03*
D42*
X0167542Y0058178D03*
X0167542Y0058012D03*
X0167542Y0037625D03*
X0167542Y0037459D03*
D43*
X0167543Y0037791D03*
X0167543Y0057846D03*
D44*
X0167542Y0057681D03*
X0167542Y0037957D03*
D45*
X0167542Y0038122D03*
X0167542Y0057515D03*
D46*
X0167542Y0057349D03*
X0167542Y0057183D03*
X0167542Y0038454D03*
X0167542Y0038288D03*
D47*
X0167542Y0038620D03*
D48*
X0167542Y0038785D03*
D49*
X0167542Y0038951D03*
X0167542Y0039117D03*
D50*
X0167542Y0039283D03*
D51*
X0167542Y0039448D03*
X0167542Y0039614D03*
D52*
X0167542Y0039780D03*
X0167542Y0039946D03*
D53*
X0167542Y0040111D03*
X0167542Y0040277D03*
D54*
X0167542Y0040443D03*
D55*
X0157597Y0040609D03*
X0156437Y0043095D03*
X0156437Y0043261D03*
X0156437Y0043426D03*
X0157100Y0054200D03*
X0179145Y0050056D03*
D56*
X0178896Y0042598D03*
X0178730Y0042432D03*
X0166299Y0040609D03*
X0157017Y0054863D03*
D57*
X0176741Y0040609D03*
D58*
X0179227Y0049891D03*
X0157349Y0040774D03*
D59*
X0166133Y0040774D03*
D60*
X0177156Y0040774D03*
X0156769Y0051548D03*
D61*
X0156603Y0042432D03*
X0156603Y0042266D03*
X0156603Y0042100D03*
X0157266Y0040940D03*
X0179310Y0049559D03*
X0179310Y0049725D03*
X0179476Y0049393D03*
D62*
X0165968Y0040940D03*
D63*
X0156188Y0045084D03*
X0156188Y0045250D03*
X0156188Y0045415D03*
X0156188Y0045581D03*
X0156188Y0045747D03*
X0156188Y0045913D03*
X0156188Y0046078D03*
X0156188Y0049559D03*
X0156188Y0049725D03*
X0156188Y0049891D03*
X0156188Y0050056D03*
X0156188Y0050222D03*
X0156354Y0050719D03*
X0156354Y0050885D03*
X0177404Y0040940D03*
X0178896Y0050554D03*
X0178730Y0050719D03*
D64*
X0178150Y0041603D03*
X0157100Y0041106D03*
X0156769Y0041769D03*
X0156769Y0041935D03*
X0157100Y0054366D03*
D65*
X0165885Y0041106D03*
D66*
X0177653Y0041106D03*
D67*
X0179559Y0049062D03*
X0179559Y0049228D03*
X0157017Y0054531D03*
X0157017Y0041272D03*
D68*
X0165802Y0041272D03*
D69*
X0177819Y0041272D03*
D70*
X0178564Y0042100D03*
X0156851Y0041603D03*
X0156851Y0041437D03*
D71*
X0165636Y0041437D03*
X0170940Y0044918D03*
X0170940Y0047404D03*
D72*
X0177985Y0041437D03*
D73*
X0165636Y0041603D03*
D74*
X0165553Y0041769D03*
X0165553Y0050719D03*
D75*
X0178316Y0041769D03*
D76*
X0178399Y0041935D03*
D77*
X0170940Y0044421D03*
X0170940Y0048067D03*
X0165305Y0050222D03*
X0165305Y0042100D03*
D78*
X0165222Y0042266D03*
X0165222Y0050056D03*
D79*
X0157100Y0054697D03*
X0179642Y0048896D03*
X0179642Y0048730D03*
X0178647Y0042266D03*
D80*
X0170940Y0044255D03*
X0165139Y0042598D03*
X0165139Y0042432D03*
X0165139Y0049891D03*
D81*
X0156520Y0042929D03*
X0156520Y0042763D03*
X0156520Y0042598D03*
D82*
X0165056Y0042763D03*
X0170857Y0048233D03*
X0165056Y0049725D03*
D83*
X0157100Y0055029D03*
X0157100Y0055194D03*
X0179808Y0048233D03*
X0179808Y0048067D03*
X0179808Y0047902D03*
X0179145Y0043095D03*
X0178979Y0042763D03*
D84*
X0164973Y0042929D03*
X0164973Y0049393D03*
X0164973Y0049559D03*
D85*
X0157183Y0055360D03*
X0179393Y0043758D03*
X0179393Y0043592D03*
X0179062Y0042929D03*
D86*
X0170857Y0044089D03*
X0164890Y0043261D03*
X0164890Y0043095D03*
X0164890Y0049228D03*
D87*
X0158178Y0057018D03*
X0179891Y0047736D03*
X0179891Y0047570D03*
X0179891Y0047404D03*
X0179891Y0047239D03*
X0179891Y0047073D03*
X0179228Y0043426D03*
X0179228Y0043261D03*
D88*
X0170940Y0048399D03*
X0164807Y0048896D03*
X0164807Y0049062D03*
X0164807Y0043592D03*
X0164807Y0043426D03*
D89*
X0156354Y0043592D03*
X0156354Y0043758D03*
X0156354Y0043924D03*
X0156354Y0044089D03*
X0157183Y0054034D03*
X0179062Y0050222D03*
D90*
X0164724Y0048730D03*
X0164724Y0048565D03*
X0164724Y0043924D03*
X0164724Y0043758D03*
D91*
X0170940Y0043924D03*
D92*
X0179476Y0043924D03*
X0179476Y0044089D03*
X0179808Y0045084D03*
X0179808Y0045250D03*
X0179808Y0045415D03*
D93*
X0164642Y0044421D03*
X0164642Y0044255D03*
X0164642Y0044089D03*
X0164642Y0048067D03*
X0164642Y0048233D03*
X0164642Y0048399D03*
D94*
X0156271Y0044918D03*
X0156271Y0044752D03*
X0156271Y0044587D03*
X0156271Y0044421D03*
X0156271Y0044255D03*
X0178979Y0050388D03*
D95*
X0179973Y0046907D03*
X0179973Y0046741D03*
X0179973Y0046576D03*
X0179973Y0046410D03*
X0179973Y0046244D03*
X0179642Y0044587D03*
X0179642Y0044421D03*
X0179642Y0044255D03*
X0157929Y0056852D03*
X0157763Y0056686D03*
X0157266Y0055857D03*
X0157266Y0055692D03*
X0157100Y0055526D03*
D96*
X0164559Y0047902D03*
X0164559Y0047736D03*
X0164559Y0047570D03*
X0164559Y0047404D03*
X0164559Y0045084D03*
X0164559Y0044918D03*
X0164559Y0044752D03*
X0164559Y0044587D03*
D97*
X0170940Y0044587D03*
X0170940Y0047902D03*
X0165470Y0050554D03*
D98*
X0170940Y0047736D03*
X0170940Y0044752D03*
D99*
X0179725Y0044752D03*
X0179725Y0044918D03*
X0157349Y0056023D03*
X0157349Y0056189D03*
D100*
X0165719Y0051051D03*
X0170858Y0045084D03*
D101*
X0164476Y0045250D03*
X0164476Y0045415D03*
X0164476Y0045581D03*
X0164476Y0045747D03*
X0164476Y0045913D03*
X0164476Y0046078D03*
X0164476Y0046244D03*
X0164476Y0046410D03*
X0164476Y0046576D03*
X0164476Y0046741D03*
X0164476Y0046907D03*
X0164476Y0047073D03*
X0164476Y0047239D03*
D102*
X0170940Y0047239D03*
X0170940Y0047073D03*
X0170940Y0045415D03*
X0170940Y0045250D03*
D103*
X0170857Y0045581D03*
X0170857Y0046907D03*
D104*
X0165968Y0051714D03*
X0157680Y0056520D03*
X0157514Y0056355D03*
X0179890Y0046078D03*
X0179890Y0045913D03*
X0179890Y0045747D03*
X0179890Y0045581D03*
D105*
X0170940Y0045747D03*
X0170940Y0045913D03*
X0170940Y0046078D03*
X0170940Y0046244D03*
X0170940Y0046410D03*
X0170940Y0046576D03*
X0170940Y0046741D03*
D106*
X0156106Y0046741D03*
X0156106Y0046576D03*
X0156106Y0046410D03*
X0156106Y0046244D03*
X0156106Y0046907D03*
X0156106Y0047073D03*
X0156106Y0047239D03*
X0156106Y0047404D03*
X0156106Y0047570D03*
X0156106Y0047736D03*
X0156106Y0047902D03*
X0156106Y0048067D03*
X0156106Y0048233D03*
X0156106Y0048399D03*
X0156106Y0048565D03*
X0156106Y0048730D03*
X0156106Y0048896D03*
X0156106Y0049062D03*
X0156106Y0049228D03*
X0156106Y0049393D03*
D107*
X0170857Y0047570D03*
D108*
X0179725Y0048399D03*
X0179725Y0048565D03*
D109*
X0170940Y0048565D03*
D110*
X0165553Y0050885D03*
D111*
X0157349Y0053869D03*
X0156520Y0051382D03*
X0178564Y0050885D03*
D112*
X0178482Y0051051D03*
D113*
X0165719Y0051217D03*
D114*
X0178316Y0051217D03*
D115*
X0165802Y0051382D03*
D116*
X0178150Y0051382D03*
D117*
X0165968Y0051548D03*
D118*
X0177902Y0051548D03*
D119*
X0156851Y0051714D03*
D120*
X0177653Y0051714D03*
D121*
X0161161Y0051880D03*
D122*
X0177238Y0051880D03*
D123*
X0167542Y0052045D03*
D124*
X0167542Y0052211D03*
X0167542Y0052377D03*
X0167542Y0052543D03*
D125*
X0167542Y0052708D03*
X0167542Y0052874D03*
X0167542Y0053040D03*
D126*
X0167542Y0053206D03*
X0167542Y0053371D03*
X0167542Y0053537D03*
D127*
X0167543Y0053703D03*
D128*
X0172349Y0053869D03*
D129*
X0172432Y0054034D03*
D130*
X0172598Y0054200D03*
D131*
X0172598Y0054366D03*
D132*
X0172681Y0054531D03*
D133*
X0172598Y0054697D03*
D134*
X0172680Y0054863D03*
D135*
X0172598Y0055029D03*
X0172598Y0055194D03*
D136*
X0172515Y0055360D03*
X0172515Y0055526D03*
X0171520Y0057018D03*
D137*
X0171769Y0056852D03*
X0171935Y0056686D03*
X0172266Y0056189D03*
X0172432Y0055857D03*
X0172432Y0055692D03*
D138*
X0181216Y0035804D02*
X0179982Y0034570D01*
X0179982Y0033335D01*
X0181216Y0032101D01*
X0182437Y0032718D02*
X0183055Y0032101D01*
X0184906Y0032101D01*
X0186121Y0032101D02*
X0187355Y0033335D01*
X0187355Y0034570D01*
X0186121Y0035804D01*
X0184906Y0034570D02*
X0183055Y0034570D01*
X0182437Y0033952D01*
X0182437Y0032718D01*
X0182451Y0029804D02*
X0182451Y0026101D01*
X0179982Y0029804D01*
X0179982Y0026101D01*
X0179982Y0023804D02*
X0181834Y0023804D01*
X0182451Y0023187D01*
X0182451Y0021952D01*
X0181834Y0021335D01*
X0179982Y0021335D01*
X0179982Y0020101D02*
X0179982Y0023804D01*
X0181216Y0021335D02*
X0182451Y0020101D01*
X0183665Y0020718D02*
X0183665Y0021952D01*
X0184282Y0022570D01*
X0185517Y0022570D01*
X0186134Y0021952D01*
X0186134Y0021335D01*
X0183665Y0021335D01*
X0183665Y0020718D02*
X0184282Y0020101D01*
X0185517Y0020101D01*
X0188583Y0020101D02*
X0189817Y0022570D01*
X0191031Y0022570D02*
X0191031Y0021952D01*
X0191649Y0021952D01*
X0191649Y0022570D01*
X0191031Y0022570D01*
X0188583Y0020101D02*
X0187348Y0022570D01*
X0188583Y0026101D02*
X0189817Y0028570D01*
X0191031Y0027952D02*
X0193500Y0027952D01*
X0194715Y0029187D02*
X0195332Y0029804D01*
X0196566Y0029804D01*
X0197183Y0029187D01*
X0197183Y0028570D01*
X0194715Y0026101D01*
X0197183Y0026101D01*
X0198398Y0026718D02*
X0200866Y0029187D01*
X0200866Y0026718D01*
X0200249Y0026101D01*
X0199015Y0026101D01*
X0198398Y0026718D01*
X0198398Y0029187D01*
X0199015Y0029804D01*
X0200249Y0029804D01*
X0200866Y0029187D01*
X0202081Y0028570D02*
X0203315Y0029804D01*
X0203315Y0026101D01*
X0202081Y0026101D02*
X0204550Y0026101D01*
X0205764Y0026718D02*
X0206381Y0026101D01*
X0207616Y0026101D01*
X0208233Y0026718D01*
X0208233Y0027952D01*
X0207616Y0028570D01*
X0206998Y0028570D01*
X0205764Y0027952D01*
X0205764Y0029804D01*
X0208233Y0029804D01*
X0208843Y0032101D02*
X0206992Y0032101D01*
X0206992Y0035804D01*
X0206992Y0034570D02*
X0208843Y0034570D01*
X0209460Y0033952D01*
X0209460Y0032718D01*
X0208843Y0032101D01*
X0210675Y0032718D02*
X0211292Y0033335D01*
X0213144Y0033335D01*
X0213144Y0033952D02*
X0213144Y0032101D01*
X0211292Y0032101D01*
X0210675Y0032718D01*
X0211292Y0034570D02*
X0212526Y0034570D01*
X0213144Y0033952D01*
X0218041Y0035804D02*
X0220510Y0035804D01*
X0219276Y0035804D02*
X0219276Y0032101D01*
X0221724Y0032718D02*
X0221724Y0033952D01*
X0222341Y0034570D01*
X0223576Y0034570D01*
X0224193Y0033952D01*
X0224193Y0033335D01*
X0221724Y0033335D01*
X0221724Y0032718D02*
X0222341Y0032101D01*
X0223576Y0032101D01*
X0225407Y0032718D02*
X0225407Y0033952D01*
X0226025Y0034570D01*
X0227876Y0034570D01*
X0229091Y0033952D02*
X0229708Y0034570D01*
X0230942Y0034570D01*
X0231559Y0033952D01*
X0231559Y0032101D01*
X0232774Y0032101D02*
X0232774Y0034570D01*
X0234625Y0034570D01*
X0235242Y0033952D01*
X0235242Y0032101D01*
X0236457Y0032718D02*
X0236457Y0033952D01*
X0237074Y0034570D01*
X0238308Y0034570D01*
X0238926Y0033952D01*
X0238926Y0032718D01*
X0238308Y0032101D01*
X0237074Y0032101D01*
X0236457Y0032718D01*
X0240140Y0032101D02*
X0241374Y0032101D01*
X0240757Y0032101D02*
X0240757Y0035804D01*
X0240140Y0035804D01*
X0242595Y0033952D02*
X0242595Y0032718D01*
X0243213Y0032101D01*
X0244447Y0032101D01*
X0245064Y0032718D01*
X0245064Y0033952D01*
X0244447Y0034570D01*
X0243213Y0034570D01*
X0242595Y0033952D01*
X0246279Y0033952D02*
X0246279Y0032718D01*
X0246896Y0032101D01*
X0248747Y0032101D01*
X0248747Y0031484D02*
X0248747Y0034570D01*
X0246896Y0034570D01*
X0246279Y0033952D01*
X0248747Y0031484D02*
X0248130Y0030866D01*
X0247513Y0030866D01*
X0249962Y0032101D02*
X0251196Y0032101D01*
X0250579Y0032101D02*
X0250579Y0034570D01*
X0249962Y0034570D01*
X0250579Y0035804D02*
X0250579Y0036421D01*
X0253034Y0034570D02*
X0252417Y0033952D01*
X0252417Y0032718D01*
X0253034Y0032101D01*
X0254269Y0032101D01*
X0254886Y0033335D02*
X0252417Y0033335D01*
X0253034Y0034570D02*
X0254269Y0034570D01*
X0254886Y0033952D01*
X0254886Y0033335D01*
X0256100Y0033952D02*
X0256717Y0034570D01*
X0258569Y0034570D01*
X0257952Y0033335D02*
X0258569Y0032718D01*
X0257952Y0032101D01*
X0256100Y0032101D01*
X0256717Y0033335D02*
X0256100Y0033952D01*
X0256717Y0033335D02*
X0257952Y0033335D01*
X0263467Y0032101D02*
X0265935Y0032101D01*
X0267767Y0032718D02*
X0268384Y0032101D01*
X0267767Y0032718D02*
X0267767Y0035187D01*
X0267150Y0034570D02*
X0268384Y0034570D01*
X0269605Y0033952D02*
X0269605Y0032718D01*
X0270222Y0032101D01*
X0272074Y0032101D01*
X0272074Y0035804D01*
X0272074Y0034570D02*
X0270222Y0034570D01*
X0269605Y0033952D01*
X0263467Y0035804D02*
X0263467Y0032101D01*
X0229091Y0032101D02*
X0229091Y0035804D01*
X0227876Y0032101D02*
X0226025Y0032101D01*
X0225407Y0032718D01*
X0205777Y0032101D02*
X0205777Y0033952D01*
X0205160Y0034570D01*
X0204543Y0033952D01*
X0204543Y0032101D01*
X0203309Y0032101D02*
X0203309Y0034570D01*
X0203926Y0034570D01*
X0204543Y0033952D01*
X0202094Y0033952D02*
X0202094Y0032101D01*
X0200243Y0032101D01*
X0199625Y0032718D01*
X0200243Y0033335D01*
X0202094Y0033335D01*
X0202094Y0033952D02*
X0201477Y0034570D01*
X0200243Y0034570D01*
X0198411Y0033952D02*
X0198411Y0032101D01*
X0198411Y0033952D02*
X0197794Y0034570D01*
X0196559Y0034570D01*
X0195942Y0033952D01*
X0194728Y0033335D02*
X0194728Y0032718D01*
X0194111Y0032101D01*
X0192876Y0032101D01*
X0192259Y0032718D01*
X0192876Y0033952D02*
X0194111Y0033952D01*
X0194728Y0033335D01*
X0195942Y0032101D02*
X0195942Y0035804D01*
X0194728Y0035187D02*
X0194111Y0035804D01*
X0192876Y0035804D01*
X0192259Y0035187D01*
X0192259Y0034570D01*
X0192876Y0033952D01*
X0187348Y0028570D02*
X0188583Y0026101D01*
X0186134Y0026718D02*
X0186134Y0027952D01*
X0185517Y0028570D01*
X0184282Y0028570D01*
X0183665Y0027952D01*
X0183665Y0026718D01*
X0184282Y0026101D01*
X0185517Y0026101D01*
X0186134Y0026718D01*
X0196556Y0023187D02*
X0197173Y0023804D01*
X0198408Y0023804D01*
X0199025Y0023187D01*
X0199025Y0022570D01*
X0196556Y0020101D01*
X0199025Y0020101D01*
X0200239Y0020101D02*
X0200856Y0020101D01*
X0200856Y0020718D01*
X0200239Y0020718D01*
X0200239Y0020101D01*
X0202081Y0020718D02*
X0204550Y0023187D01*
X0204550Y0020718D01*
X0203932Y0020101D01*
X0202698Y0020101D01*
X0202081Y0020718D01*
X0202081Y0023187D01*
X0202698Y0023804D01*
X0203932Y0023804D01*
X0204550Y0023187D01*
X0205764Y0023187D02*
X0206381Y0023804D01*
X0207616Y0023804D01*
X0208233Y0023187D01*
X0208233Y0022570D01*
X0207616Y0021952D01*
X0208233Y0021335D01*
X0208233Y0020718D01*
X0207616Y0020101D01*
X0206381Y0020101D01*
X0205764Y0020718D01*
X0206998Y0021952D02*
X0207616Y0021952D01*
X0191649Y0020718D02*
X0191649Y0020101D01*
X0191031Y0020101D01*
X0191031Y0020718D01*
X0191649Y0020718D01*
D139*
X0248336Y0054990D02*
X0251092Y0057746D01*
X0248336Y0060502D01*
X0251092Y0060502D02*
X0251092Y0057746D01*
X0251092Y0054990D01*
X0251486Y0066801D02*
X0248730Y0069557D01*
X0251486Y0072313D01*
X0248730Y0072313D02*
X0248730Y0069557D01*
X0248730Y0066801D01*
D140*
X0249911Y0083140D02*
X0249911Y0087470D01*
X0242037Y0087470D02*
X0242037Y0083140D01*
X0103974Y0094163D02*
X0102706Y0094163D01*
X0102706Y0113061D01*
X0104074Y0113061D01*
X0102706Y0113061D02*
X0090314Y0113061D01*
X0090314Y0094163D02*
X0102706Y0094163D01*
D141*
X0243218Y0084321D03*
D142*
X0228889Y0063346D02*
X0225689Y0063346D01*
X0228889Y0063346D02*
X0228889Y0061146D01*
X0228889Y0054346D02*
X0228889Y0052146D01*
X0225689Y0052146D01*
X0133455Y0047444D02*
X0129185Y0047444D01*
X0131320Y0049579D02*
X0131320Y0045309D01*
X0143284Y0142532D02*
X0143284Y0146803D01*
X0141149Y0144667D02*
X0145419Y0144667D01*
D143*
X0068415Y0046526D02*
X0068415Y0001250D01*
X0088100Y0001250D01*
X0088100Y0029990D01*
X0088100Y0041014D02*
X0088100Y0046526D01*
X0083769Y0046526D01*
X0072745Y0046526D02*
X0068415Y0046526D01*
X0106604Y0055778D02*
X0106604Y0021919D01*
X0115462Y0021919D01*
X0131604Y0021919D02*
X0140462Y0021919D01*
X0140462Y0055778D01*
X0131604Y0055778D01*
X0115462Y0055778D02*
X0106604Y0055778D01*
X0091194Y0111112D02*
X0091196Y0111175D01*
X0091202Y0111237D01*
X0091212Y0111299D01*
X0091225Y0111361D01*
X0091243Y0111421D01*
X0091264Y0111480D01*
X0091289Y0111538D01*
X0091318Y0111594D01*
X0091350Y0111648D01*
X0091385Y0111700D01*
X0091423Y0111749D01*
X0091465Y0111797D01*
X0091509Y0111841D01*
X0091557Y0111883D01*
X0091606Y0111921D01*
X0091658Y0111956D01*
X0091712Y0111988D01*
X0091768Y0112017D01*
X0091826Y0112042D01*
X0091885Y0112063D01*
X0091945Y0112081D01*
X0092007Y0112094D01*
X0092069Y0112104D01*
X0092131Y0112110D01*
X0092194Y0112112D01*
X0092257Y0112110D01*
X0092319Y0112104D01*
X0092381Y0112094D01*
X0092443Y0112081D01*
X0092503Y0112063D01*
X0092562Y0112042D01*
X0092620Y0112017D01*
X0092676Y0111988D01*
X0092730Y0111956D01*
X0092782Y0111921D01*
X0092831Y0111883D01*
X0092879Y0111841D01*
X0092923Y0111797D01*
X0092965Y0111749D01*
X0093003Y0111700D01*
X0093038Y0111648D01*
X0093070Y0111594D01*
X0093099Y0111538D01*
X0093124Y0111480D01*
X0093145Y0111421D01*
X0093163Y0111361D01*
X0093176Y0111299D01*
X0093186Y0111237D01*
X0093192Y0111175D01*
X0093194Y0111112D01*
X0093192Y0111049D01*
X0093186Y0110987D01*
X0093176Y0110925D01*
X0093163Y0110863D01*
X0093145Y0110803D01*
X0093124Y0110744D01*
X0093099Y0110686D01*
X0093070Y0110630D01*
X0093038Y0110576D01*
X0093003Y0110524D01*
X0092965Y0110475D01*
X0092923Y0110427D01*
X0092879Y0110383D01*
X0092831Y0110341D01*
X0092782Y0110303D01*
X0092730Y0110268D01*
X0092676Y0110236D01*
X0092620Y0110207D01*
X0092562Y0110182D01*
X0092503Y0110161D01*
X0092443Y0110143D01*
X0092381Y0110130D01*
X0092319Y0110120D01*
X0092257Y0110114D01*
X0092194Y0110112D01*
X0092131Y0110114D01*
X0092069Y0110120D01*
X0092007Y0110130D01*
X0091945Y0110143D01*
X0091885Y0110161D01*
X0091826Y0110182D01*
X0091768Y0110207D01*
X0091712Y0110236D01*
X0091658Y0110268D01*
X0091606Y0110303D01*
X0091557Y0110341D01*
X0091509Y0110383D01*
X0091465Y0110427D01*
X0091423Y0110475D01*
X0091385Y0110524D01*
X0091350Y0110576D01*
X0091318Y0110630D01*
X0091289Y0110686D01*
X0091264Y0110744D01*
X0091243Y0110803D01*
X0091225Y0110863D01*
X0091212Y0110925D01*
X0091202Y0110987D01*
X0091196Y0111049D01*
X0091194Y0111112D01*
X0102273Y0115226D02*
X0078651Y0115226D01*
X0065462Y0119163D02*
X0065462Y0127037D01*
X0086131Y0135503D02*
X0086196Y0135528D01*
X0086262Y0135549D01*
X0086330Y0135567D01*
X0086398Y0135581D01*
X0086467Y0135592D01*
X0086537Y0135598D01*
X0086607Y0135601D01*
X0086677Y0135600D01*
X0086746Y0135595D01*
X0086816Y0135586D01*
X0086885Y0135574D01*
X0086953Y0135558D01*
X0087020Y0135538D01*
X0087085Y0135515D01*
X0087150Y0135488D01*
X0087213Y0135457D01*
X0087274Y0135423D01*
X0087333Y0135386D01*
X0087390Y0135346D01*
X0087445Y0135302D01*
X0087497Y0135256D01*
X0087547Y0135207D01*
X0087594Y0135155D01*
X0087638Y0135101D01*
X0087679Y0135044D01*
X0087717Y0134986D01*
X0087752Y0134925D01*
X0087783Y0134862D01*
X0087811Y0134798D01*
X0087835Y0134733D01*
X0087856Y0134666D01*
X0087873Y0134598D01*
X0087886Y0134530D01*
X0087895Y0134460D01*
X0087901Y0134391D01*
X0087903Y0134321D01*
X0087962Y0134321D02*
X0087964Y0134390D01*
X0087970Y0134459D01*
X0087979Y0134527D01*
X0087992Y0134594D01*
X0088009Y0134661D01*
X0088030Y0134727D01*
X0088054Y0134791D01*
X0088082Y0134854D01*
X0088113Y0134916D01*
X0088147Y0134976D01*
X0088185Y0135033D01*
X0088226Y0135089D01*
X0088269Y0135142D01*
X0088316Y0135193D01*
X0088365Y0135241D01*
X0088417Y0135286D01*
X0088472Y0135328D01*
X0088528Y0135367D01*
X0088587Y0135404D01*
X0088648Y0135436D01*
X0088710Y0135466D01*
X0088774Y0135492D01*
X0088839Y0135514D01*
X0088905Y0135533D01*
X0088972Y0135548D01*
X0089040Y0135559D01*
X0089109Y0135567D01*
X0089178Y0135571D01*
X0089246Y0135571D01*
X0089315Y0135567D01*
X0089384Y0135559D01*
X0089452Y0135548D01*
X0089519Y0135533D01*
X0089585Y0135514D01*
X0089650Y0135492D01*
X0089714Y0135466D01*
X0089776Y0135436D01*
X0089837Y0135404D01*
X0089896Y0135367D01*
X0089952Y0135328D01*
X0090007Y0135286D01*
X0090059Y0135241D01*
X0090108Y0135193D01*
X0090155Y0135142D01*
X0090198Y0135089D01*
X0090239Y0135033D01*
X0090277Y0134976D01*
X0090311Y0134916D01*
X0090342Y0134854D01*
X0090370Y0134791D01*
X0090394Y0134727D01*
X0090415Y0134661D01*
X0090432Y0134594D01*
X0090445Y0134527D01*
X0090454Y0134459D01*
X0090460Y0134390D01*
X0090462Y0134321D01*
X0090464Y0134390D01*
X0090470Y0134459D01*
X0090479Y0134527D01*
X0090492Y0134594D01*
X0090509Y0134661D01*
X0090530Y0134727D01*
X0090554Y0134791D01*
X0090582Y0134854D01*
X0090613Y0134916D01*
X0090647Y0134976D01*
X0090685Y0135033D01*
X0090726Y0135089D01*
X0090769Y0135142D01*
X0090816Y0135193D01*
X0090865Y0135241D01*
X0090917Y0135286D01*
X0090972Y0135328D01*
X0091028Y0135367D01*
X0091087Y0135404D01*
X0091148Y0135436D01*
X0091210Y0135466D01*
X0091274Y0135492D01*
X0091339Y0135514D01*
X0091405Y0135533D01*
X0091472Y0135548D01*
X0091540Y0135559D01*
X0091609Y0135567D01*
X0091678Y0135571D01*
X0091746Y0135571D01*
X0091815Y0135567D01*
X0091884Y0135559D01*
X0091952Y0135548D01*
X0092019Y0135533D01*
X0092085Y0135514D01*
X0092150Y0135492D01*
X0092214Y0135466D01*
X0092276Y0135436D01*
X0092337Y0135404D01*
X0092396Y0135367D01*
X0092452Y0135328D01*
X0092507Y0135286D01*
X0092559Y0135241D01*
X0092608Y0135193D01*
X0092655Y0135142D01*
X0092698Y0135089D01*
X0092739Y0135033D01*
X0092777Y0134976D01*
X0092811Y0134916D01*
X0092842Y0134854D01*
X0092870Y0134791D01*
X0092894Y0134727D01*
X0092915Y0134661D01*
X0092932Y0134594D01*
X0092945Y0134527D01*
X0092954Y0134459D01*
X0092960Y0134390D01*
X0092962Y0134321D01*
X0093021Y0134320D02*
X0093025Y0134388D01*
X0093033Y0134456D01*
X0093045Y0134523D01*
X0093060Y0134589D01*
X0093079Y0134654D01*
X0093102Y0134718D01*
X0093128Y0134781D01*
X0093157Y0134842D01*
X0093190Y0134902D01*
X0093226Y0134959D01*
X0093265Y0135015D01*
X0093307Y0135068D01*
X0093352Y0135119D01*
X0093400Y0135168D01*
X0093451Y0135213D01*
X0093503Y0135256D01*
X0093558Y0135296D01*
X0093616Y0135333D01*
X0093675Y0135366D01*
X0093736Y0135396D01*
X0093798Y0135423D01*
X0093862Y0135446D01*
X0093927Y0135466D01*
X0093993Y0135482D01*
X0094060Y0135495D01*
X0094127Y0135504D01*
X0094195Y0135509D01*
X0094263Y0135510D01*
X0094331Y0135508D01*
X0094399Y0135501D01*
X0115462Y0142785D02*
X0115462Y0150659D01*
X0102273Y0154596D02*
X0078651Y0154596D01*
X0065462Y0150659D02*
X0065462Y0142785D01*
X0115462Y0127037D02*
X0115462Y0119163D01*
X0134950Y0119951D02*
X0134950Y0128809D01*
X0134950Y0119951D02*
X0168808Y0119951D01*
X0168808Y0128809D01*
X0168808Y0144951D02*
X0168808Y0153809D01*
X0134950Y0153809D01*
X0134950Y0144951D01*
X0217037Y0154990D02*
X0217037Y0114636D01*
X0266249Y0114636D01*
X0266249Y0154990D01*
D144*
X0147764Y0105609D02*
X0145564Y0103809D01*
X0145564Y0105709D01*
X0145564Y0103809D02*
X0145564Y0101809D01*
X0145664Y0103809D02*
X0147764Y0101809D01*
X0147174Y0112045D02*
X0145074Y0114045D01*
X0144974Y0114045D02*
X0147174Y0115845D01*
X0144974Y0115945D02*
X0144974Y0114045D01*
X0144974Y0112045D01*
X0066378Y0104022D02*
X0064478Y0104022D01*
X0066278Y0101822D01*
X0064478Y0103922D02*
X0062478Y0101822D01*
X0062478Y0104022D02*
X0064478Y0104022D01*
X0076257Y0057368D02*
X0078257Y0057368D01*
X0080057Y0055168D01*
X0078257Y0057268D02*
X0076257Y0055168D01*
X0078257Y0057368D02*
X0080157Y0057368D01*
M02*
