G75*
%MOIN*%
%OFA0B0*%
%FSLAX25Y25*%
%IPPOS*%
%LPD*%
%AMOC8*
5,1,8,0,0,1.08239X$1,22.5*
%
%ADD10C,0.00000*%
%ADD11C,0.00400*%
%ADD12C,0.01000*%
%ADD13C,0.00512*%
%ADD14C,0.00600*%
%ADD15C,0.04724*%
D10*
X0002200Y0026633D02*
X0002200Y0164428D01*
X0258106Y0164428D01*
X0258106Y0026633D01*
X0002200Y0026633D01*
X0163617Y0044350D02*
X0166592Y0041146D01*
X0169271Y0038261D02*
X0172246Y0035057D01*
X0174925Y0032172D02*
X0177900Y0028968D01*
X0180579Y0026083D02*
X0183554Y0022879D01*
X0186233Y0019994D02*
X0189208Y0016791D01*
X0192811Y0020153D01*
X0195689Y0022840D02*
X0199292Y0026203D01*
X0202170Y0028889D02*
X0205773Y0032252D01*
X0208651Y0034938D02*
X0212254Y0038301D01*
X0215132Y0040987D02*
X0218735Y0044350D01*
X0218735Y0073877D02*
X0214853Y0076267D01*
X0211500Y0078330D02*
X0207617Y0080720D01*
X0204264Y0082783D02*
X0200381Y0085172D01*
X0197028Y0087236D02*
X0193145Y0089625D01*
X0188368Y0087078D01*
X0184895Y0085225D02*
X0180118Y0082678D01*
X0176644Y0080825D02*
X0171868Y0078277D01*
X0168394Y0076425D02*
X0163617Y0073877D01*
X0150822Y0100649D02*
X0150824Y0100818D01*
X0150830Y0100987D01*
X0150841Y0101156D01*
X0150855Y0101324D01*
X0150874Y0101492D01*
X0150897Y0101660D01*
X0150923Y0101827D01*
X0150954Y0101993D01*
X0150989Y0102159D01*
X0151028Y0102323D01*
X0151072Y0102487D01*
X0151119Y0102649D01*
X0151170Y0102810D01*
X0151225Y0102970D01*
X0151284Y0103129D01*
X0151346Y0103286D01*
X0151413Y0103441D01*
X0151484Y0103595D01*
X0151558Y0103747D01*
X0151636Y0103897D01*
X0151717Y0104045D01*
X0151802Y0104191D01*
X0151891Y0104335D01*
X0151983Y0104477D01*
X0152079Y0104616D01*
X0152178Y0104753D01*
X0152280Y0104888D01*
X0152386Y0105020D01*
X0152495Y0105149D01*
X0152607Y0105276D01*
X0152722Y0105400D01*
X0152840Y0105521D01*
X0152961Y0105639D01*
X0153085Y0105754D01*
X0153212Y0105866D01*
X0153341Y0105975D01*
X0153473Y0106081D01*
X0153608Y0106183D01*
X0153745Y0106282D01*
X0153884Y0106378D01*
X0154026Y0106470D01*
X0154170Y0106559D01*
X0154316Y0106644D01*
X0154464Y0106725D01*
X0154614Y0106803D01*
X0154766Y0106877D01*
X0154920Y0106948D01*
X0155075Y0107015D01*
X0155232Y0107077D01*
X0155391Y0107136D01*
X0155551Y0107191D01*
X0155712Y0107242D01*
X0155874Y0107289D01*
X0156038Y0107333D01*
X0156202Y0107372D01*
X0156368Y0107407D01*
X0156534Y0107438D01*
X0156701Y0107464D01*
X0156869Y0107487D01*
X0157037Y0107506D01*
X0157205Y0107520D01*
X0157374Y0107531D01*
X0157543Y0107537D01*
X0157712Y0107539D01*
X0157881Y0107537D01*
X0158050Y0107531D01*
X0158219Y0107520D01*
X0158387Y0107506D01*
X0158555Y0107487D01*
X0158723Y0107464D01*
X0158890Y0107438D01*
X0159056Y0107407D01*
X0159222Y0107372D01*
X0159386Y0107333D01*
X0159550Y0107289D01*
X0159712Y0107242D01*
X0159873Y0107191D01*
X0160033Y0107136D01*
X0160192Y0107077D01*
X0160349Y0107015D01*
X0160504Y0106948D01*
X0160658Y0106877D01*
X0160810Y0106803D01*
X0160960Y0106725D01*
X0161108Y0106644D01*
X0161254Y0106559D01*
X0161398Y0106470D01*
X0161540Y0106378D01*
X0161679Y0106282D01*
X0161816Y0106183D01*
X0161951Y0106081D01*
X0162083Y0105975D01*
X0162212Y0105866D01*
X0162339Y0105754D01*
X0162463Y0105639D01*
X0162584Y0105521D01*
X0162702Y0105400D01*
X0162817Y0105276D01*
X0162929Y0105149D01*
X0163038Y0105020D01*
X0163144Y0104888D01*
X0163246Y0104753D01*
X0163345Y0104616D01*
X0163441Y0104477D01*
X0163533Y0104335D01*
X0163622Y0104191D01*
X0163707Y0104045D01*
X0163788Y0103897D01*
X0163866Y0103747D01*
X0163940Y0103595D01*
X0164011Y0103441D01*
X0164078Y0103286D01*
X0164140Y0103129D01*
X0164199Y0102970D01*
X0164254Y0102810D01*
X0164305Y0102649D01*
X0164352Y0102487D01*
X0164396Y0102323D01*
X0164435Y0102159D01*
X0164470Y0101993D01*
X0164501Y0101827D01*
X0164527Y0101660D01*
X0164550Y0101492D01*
X0164569Y0101324D01*
X0164583Y0101156D01*
X0164594Y0100987D01*
X0164600Y0100818D01*
X0164602Y0100649D01*
X0164600Y0100480D01*
X0164594Y0100311D01*
X0164583Y0100142D01*
X0164569Y0099974D01*
X0164550Y0099806D01*
X0164527Y0099638D01*
X0164501Y0099471D01*
X0164470Y0099305D01*
X0164435Y0099139D01*
X0164396Y0098975D01*
X0164352Y0098811D01*
X0164305Y0098649D01*
X0164254Y0098488D01*
X0164199Y0098328D01*
X0164140Y0098169D01*
X0164078Y0098012D01*
X0164011Y0097857D01*
X0163940Y0097703D01*
X0163866Y0097551D01*
X0163788Y0097401D01*
X0163707Y0097253D01*
X0163622Y0097107D01*
X0163533Y0096963D01*
X0163441Y0096821D01*
X0163345Y0096682D01*
X0163246Y0096545D01*
X0163144Y0096410D01*
X0163038Y0096278D01*
X0162929Y0096149D01*
X0162817Y0096022D01*
X0162702Y0095898D01*
X0162584Y0095777D01*
X0162463Y0095659D01*
X0162339Y0095544D01*
X0162212Y0095432D01*
X0162083Y0095323D01*
X0161951Y0095217D01*
X0161816Y0095115D01*
X0161679Y0095016D01*
X0161540Y0094920D01*
X0161398Y0094828D01*
X0161254Y0094739D01*
X0161108Y0094654D01*
X0160960Y0094573D01*
X0160810Y0094495D01*
X0160658Y0094421D01*
X0160504Y0094350D01*
X0160349Y0094283D01*
X0160192Y0094221D01*
X0160033Y0094162D01*
X0159873Y0094107D01*
X0159712Y0094056D01*
X0159550Y0094009D01*
X0159386Y0093965D01*
X0159222Y0093926D01*
X0159056Y0093891D01*
X0158890Y0093860D01*
X0158723Y0093834D01*
X0158555Y0093811D01*
X0158387Y0093792D01*
X0158219Y0093778D01*
X0158050Y0093767D01*
X0157881Y0093761D01*
X0157712Y0093759D01*
X0157543Y0093761D01*
X0157374Y0093767D01*
X0157205Y0093778D01*
X0157037Y0093792D01*
X0156869Y0093811D01*
X0156701Y0093834D01*
X0156534Y0093860D01*
X0156368Y0093891D01*
X0156202Y0093926D01*
X0156038Y0093965D01*
X0155874Y0094009D01*
X0155712Y0094056D01*
X0155551Y0094107D01*
X0155391Y0094162D01*
X0155232Y0094221D01*
X0155075Y0094283D01*
X0154920Y0094350D01*
X0154766Y0094421D01*
X0154614Y0094495D01*
X0154464Y0094573D01*
X0154316Y0094654D01*
X0154170Y0094739D01*
X0154026Y0094828D01*
X0153884Y0094920D01*
X0153745Y0095016D01*
X0153608Y0095115D01*
X0153473Y0095217D01*
X0153341Y0095323D01*
X0153212Y0095432D01*
X0153085Y0095544D01*
X0152961Y0095659D01*
X0152840Y0095777D01*
X0152722Y0095898D01*
X0152607Y0096022D01*
X0152495Y0096149D01*
X0152386Y0096278D01*
X0152280Y0096410D01*
X0152178Y0096545D01*
X0152079Y0096682D01*
X0151983Y0096821D01*
X0151891Y0096963D01*
X0151802Y0097107D01*
X0151717Y0097253D01*
X0151636Y0097401D01*
X0151558Y0097551D01*
X0151484Y0097703D01*
X0151413Y0097857D01*
X0151346Y0098012D01*
X0151284Y0098169D01*
X0151225Y0098328D01*
X0151170Y0098488D01*
X0151119Y0098649D01*
X0151072Y0098811D01*
X0151028Y0098975D01*
X0150989Y0099139D01*
X0150954Y0099305D01*
X0150923Y0099471D01*
X0150897Y0099638D01*
X0150874Y0099806D01*
X0150855Y0099974D01*
X0150841Y0100142D01*
X0150830Y0100311D01*
X0150824Y0100480D01*
X0150822Y0100649D01*
X0095704Y0100649D02*
X0095706Y0100818D01*
X0095712Y0100987D01*
X0095723Y0101156D01*
X0095737Y0101324D01*
X0095756Y0101492D01*
X0095779Y0101660D01*
X0095805Y0101827D01*
X0095836Y0101993D01*
X0095871Y0102159D01*
X0095910Y0102323D01*
X0095954Y0102487D01*
X0096001Y0102649D01*
X0096052Y0102810D01*
X0096107Y0102970D01*
X0096166Y0103129D01*
X0096228Y0103286D01*
X0096295Y0103441D01*
X0096366Y0103595D01*
X0096440Y0103747D01*
X0096518Y0103897D01*
X0096599Y0104045D01*
X0096684Y0104191D01*
X0096773Y0104335D01*
X0096865Y0104477D01*
X0096961Y0104616D01*
X0097060Y0104753D01*
X0097162Y0104888D01*
X0097268Y0105020D01*
X0097377Y0105149D01*
X0097489Y0105276D01*
X0097604Y0105400D01*
X0097722Y0105521D01*
X0097843Y0105639D01*
X0097967Y0105754D01*
X0098094Y0105866D01*
X0098223Y0105975D01*
X0098355Y0106081D01*
X0098490Y0106183D01*
X0098627Y0106282D01*
X0098766Y0106378D01*
X0098908Y0106470D01*
X0099052Y0106559D01*
X0099198Y0106644D01*
X0099346Y0106725D01*
X0099496Y0106803D01*
X0099648Y0106877D01*
X0099802Y0106948D01*
X0099957Y0107015D01*
X0100114Y0107077D01*
X0100273Y0107136D01*
X0100433Y0107191D01*
X0100594Y0107242D01*
X0100756Y0107289D01*
X0100920Y0107333D01*
X0101084Y0107372D01*
X0101250Y0107407D01*
X0101416Y0107438D01*
X0101583Y0107464D01*
X0101751Y0107487D01*
X0101919Y0107506D01*
X0102087Y0107520D01*
X0102256Y0107531D01*
X0102425Y0107537D01*
X0102594Y0107539D01*
X0102763Y0107537D01*
X0102932Y0107531D01*
X0103101Y0107520D01*
X0103269Y0107506D01*
X0103437Y0107487D01*
X0103605Y0107464D01*
X0103772Y0107438D01*
X0103938Y0107407D01*
X0104104Y0107372D01*
X0104268Y0107333D01*
X0104432Y0107289D01*
X0104594Y0107242D01*
X0104755Y0107191D01*
X0104915Y0107136D01*
X0105074Y0107077D01*
X0105231Y0107015D01*
X0105386Y0106948D01*
X0105540Y0106877D01*
X0105692Y0106803D01*
X0105842Y0106725D01*
X0105990Y0106644D01*
X0106136Y0106559D01*
X0106280Y0106470D01*
X0106422Y0106378D01*
X0106561Y0106282D01*
X0106698Y0106183D01*
X0106833Y0106081D01*
X0106965Y0105975D01*
X0107094Y0105866D01*
X0107221Y0105754D01*
X0107345Y0105639D01*
X0107466Y0105521D01*
X0107584Y0105400D01*
X0107699Y0105276D01*
X0107811Y0105149D01*
X0107920Y0105020D01*
X0108026Y0104888D01*
X0108128Y0104753D01*
X0108227Y0104616D01*
X0108323Y0104477D01*
X0108415Y0104335D01*
X0108504Y0104191D01*
X0108589Y0104045D01*
X0108670Y0103897D01*
X0108748Y0103747D01*
X0108822Y0103595D01*
X0108893Y0103441D01*
X0108960Y0103286D01*
X0109022Y0103129D01*
X0109081Y0102970D01*
X0109136Y0102810D01*
X0109187Y0102649D01*
X0109234Y0102487D01*
X0109278Y0102323D01*
X0109317Y0102159D01*
X0109352Y0101993D01*
X0109383Y0101827D01*
X0109409Y0101660D01*
X0109432Y0101492D01*
X0109451Y0101324D01*
X0109465Y0101156D01*
X0109476Y0100987D01*
X0109482Y0100818D01*
X0109484Y0100649D01*
X0109482Y0100480D01*
X0109476Y0100311D01*
X0109465Y0100142D01*
X0109451Y0099974D01*
X0109432Y0099806D01*
X0109409Y0099638D01*
X0109383Y0099471D01*
X0109352Y0099305D01*
X0109317Y0099139D01*
X0109278Y0098975D01*
X0109234Y0098811D01*
X0109187Y0098649D01*
X0109136Y0098488D01*
X0109081Y0098328D01*
X0109022Y0098169D01*
X0108960Y0098012D01*
X0108893Y0097857D01*
X0108822Y0097703D01*
X0108748Y0097551D01*
X0108670Y0097401D01*
X0108589Y0097253D01*
X0108504Y0097107D01*
X0108415Y0096963D01*
X0108323Y0096821D01*
X0108227Y0096682D01*
X0108128Y0096545D01*
X0108026Y0096410D01*
X0107920Y0096278D01*
X0107811Y0096149D01*
X0107699Y0096022D01*
X0107584Y0095898D01*
X0107466Y0095777D01*
X0107345Y0095659D01*
X0107221Y0095544D01*
X0107094Y0095432D01*
X0106965Y0095323D01*
X0106833Y0095217D01*
X0106698Y0095115D01*
X0106561Y0095016D01*
X0106422Y0094920D01*
X0106280Y0094828D01*
X0106136Y0094739D01*
X0105990Y0094654D01*
X0105842Y0094573D01*
X0105692Y0094495D01*
X0105540Y0094421D01*
X0105386Y0094350D01*
X0105231Y0094283D01*
X0105074Y0094221D01*
X0104915Y0094162D01*
X0104755Y0094107D01*
X0104594Y0094056D01*
X0104432Y0094009D01*
X0104268Y0093965D01*
X0104104Y0093926D01*
X0103938Y0093891D01*
X0103772Y0093860D01*
X0103605Y0093834D01*
X0103437Y0093811D01*
X0103269Y0093792D01*
X0103101Y0093778D01*
X0102932Y0093767D01*
X0102763Y0093761D01*
X0102594Y0093759D01*
X0102425Y0093761D01*
X0102256Y0093767D01*
X0102087Y0093778D01*
X0101919Y0093792D01*
X0101751Y0093811D01*
X0101583Y0093834D01*
X0101416Y0093860D01*
X0101250Y0093891D01*
X0101084Y0093926D01*
X0100920Y0093965D01*
X0100756Y0094009D01*
X0100594Y0094056D01*
X0100433Y0094107D01*
X0100273Y0094162D01*
X0100114Y0094221D01*
X0099957Y0094283D01*
X0099802Y0094350D01*
X0099648Y0094421D01*
X0099496Y0094495D01*
X0099346Y0094573D01*
X0099198Y0094654D01*
X0099052Y0094739D01*
X0098908Y0094828D01*
X0098766Y0094920D01*
X0098627Y0095016D01*
X0098490Y0095115D01*
X0098355Y0095217D01*
X0098223Y0095323D01*
X0098094Y0095432D01*
X0097967Y0095544D01*
X0097843Y0095659D01*
X0097722Y0095777D01*
X0097604Y0095898D01*
X0097489Y0096022D01*
X0097377Y0096149D01*
X0097268Y0096278D01*
X0097162Y0096410D01*
X0097060Y0096545D01*
X0096961Y0096682D01*
X0096865Y0096821D01*
X0096773Y0096963D01*
X0096684Y0097107D01*
X0096599Y0097253D01*
X0096518Y0097401D01*
X0096440Y0097551D01*
X0096366Y0097703D01*
X0096295Y0097857D01*
X0096228Y0098012D01*
X0096166Y0098169D01*
X0096107Y0098328D01*
X0096052Y0098488D01*
X0096001Y0098649D01*
X0095954Y0098811D01*
X0095910Y0098975D01*
X0095871Y0099139D01*
X0095836Y0099305D01*
X0095805Y0099471D01*
X0095779Y0099638D01*
X0095756Y0099806D01*
X0095737Y0099974D01*
X0095723Y0100142D01*
X0095712Y0100311D01*
X0095706Y0100480D01*
X0095704Y0100649D01*
X0330905Y0038957D02*
X0330905Y0038956D01*
X0330905Y0038956D01*
X0330905Y0038956D01*
X0330906Y0038956D01*
X0330906Y0038956D01*
X0330906Y0038956D01*
X0330905Y0038956D01*
X0330905Y0038956D01*
X0330905Y0038956D01*
X0330905Y0038956D01*
X0330905Y0038957D02*
X0330905Y0038957D01*
X0330905Y0038956D01*
X0330905Y0038957D01*
X0330906Y0038957D01*
X0330906Y0038956D01*
X0401290Y0085654D02*
X0401294Y0085654D01*
X0401294Y0085653D02*
X0401294Y0085656D01*
X0401293Y0085657D02*
X0401290Y0085659D01*
X0401293Y0085659D01*
X0401294Y0085659D01*
X0401294Y0085657D01*
X0401293Y0085657D01*
X0401290Y0085657D01*
X0401290Y0085657D01*
X0401290Y0085659D01*
X0401290Y0085659D01*
X0401290Y0085654D02*
X0401291Y0085653D01*
D11*
X0400659Y0119587D02*
X0399792Y0119587D01*
X0400659Y0119587D02*
X0401526Y0120454D01*
X0401526Y0124791D01*
X0403213Y0122189D02*
X0404081Y0122189D01*
X0404081Y0121321D01*
X0403213Y0121321D01*
X0403213Y0122189D01*
X0401526Y0121321D02*
X0398924Y0121321D01*
X0398057Y0122189D01*
X0398057Y0124791D01*
X0396354Y0124791D02*
X0394619Y0124791D01*
X0395487Y0125658D02*
X0395487Y0122189D01*
X0396354Y0121321D01*
X0392916Y0121321D02*
X0391182Y0121321D01*
X0392049Y0121321D02*
X0392049Y0124791D01*
X0391182Y0124791D01*
X0389487Y0124791D02*
X0388619Y0124791D01*
X0386885Y0123056D01*
X0385198Y0123056D02*
X0382596Y0123056D01*
X0381728Y0122189D01*
X0382596Y0121321D01*
X0385198Y0121321D01*
X0385198Y0123924D01*
X0384330Y0124791D01*
X0382596Y0124791D01*
X0379158Y0126526D02*
X0379158Y0121321D01*
X0378291Y0121321D02*
X0380025Y0121321D01*
X0376604Y0121321D02*
X0374002Y0121321D01*
X0373134Y0122189D01*
X0373134Y0123924D01*
X0374002Y0124791D01*
X0376604Y0124791D01*
X0378291Y0126526D02*
X0379158Y0126526D01*
X0378299Y0129721D02*
X0377431Y0130589D01*
X0377431Y0132324D01*
X0378299Y0133191D01*
X0380033Y0133191D01*
X0380901Y0132324D01*
X0380901Y0130589D01*
X0380033Y0129721D01*
X0378299Y0129721D01*
X0375744Y0129721D02*
X0375744Y0132324D01*
X0374877Y0133191D01*
X0372275Y0133191D01*
X0372275Y0129721D01*
X0365416Y0129721D02*
X0365416Y0130589D01*
X0364548Y0130589D01*
X0364548Y0129721D01*
X0365416Y0129721D01*
X0363681Y0127987D01*
X0361127Y0129721D02*
X0361994Y0130589D01*
X0361127Y0131456D01*
X0359392Y0131456D01*
X0358524Y0132324D01*
X0359392Y0133191D01*
X0361994Y0133191D01*
X0356838Y0132324D02*
X0356838Y0131456D01*
X0353368Y0131456D01*
X0353368Y0130589D02*
X0353368Y0132324D01*
X0354235Y0133191D01*
X0355970Y0133191D01*
X0356838Y0132324D01*
X0354235Y0129721D02*
X0353368Y0130589D01*
X0354235Y0129721D02*
X0355970Y0129721D01*
X0358524Y0129721D02*
X0361127Y0129721D01*
X0356822Y0126526D02*
X0355954Y0125658D01*
X0355954Y0121321D01*
X0358524Y0122189D02*
X0359392Y0121321D01*
X0361127Y0121321D01*
X0361994Y0122189D01*
X0361994Y0123924D01*
X0361127Y0124791D01*
X0359392Y0124791D01*
X0358524Y0123924D01*
X0358524Y0122189D01*
X0356822Y0123924D02*
X0355087Y0123924D01*
X0348244Y0124791D02*
X0348244Y0122189D01*
X0347376Y0121321D01*
X0346509Y0122189D01*
X0345641Y0121321D01*
X0344774Y0122189D01*
X0344774Y0124791D01*
X0343087Y0123924D02*
X0342220Y0124791D01*
X0340485Y0124791D01*
X0339618Y0123924D01*
X0339618Y0122189D01*
X0340485Y0121321D01*
X0342220Y0121321D01*
X0343087Y0122189D01*
X0343087Y0123924D01*
X0337915Y0121321D02*
X0336180Y0121321D01*
X0337047Y0121321D02*
X0337047Y0126526D01*
X0336180Y0126526D01*
X0333626Y0124791D02*
X0331891Y0124791D01*
X0331024Y0123924D01*
X0331024Y0122189D01*
X0331891Y0121321D01*
X0333626Y0121321D01*
X0334493Y0123056D02*
X0331024Y0123056D01*
X0329337Y0122189D02*
X0329337Y0123924D01*
X0328469Y0124791D01*
X0325867Y0124791D01*
X0325867Y0126526D02*
X0325867Y0121321D01*
X0328469Y0121321D01*
X0329337Y0122189D01*
X0333626Y0124791D02*
X0334493Y0123924D01*
X0334493Y0123056D01*
X0337055Y0129721D02*
X0336188Y0130589D01*
X0336188Y0134058D01*
X0335321Y0133191D02*
X0337055Y0133191D01*
X0338758Y0133191D02*
X0338758Y0129721D01*
X0338758Y0131456D02*
X0340493Y0133191D01*
X0341360Y0133191D01*
X0343923Y0133191D02*
X0345657Y0133191D01*
X0346525Y0132324D01*
X0346525Y0129721D01*
X0343923Y0129721D01*
X0343055Y0130589D01*
X0343923Y0131456D01*
X0346525Y0131456D01*
X0348212Y0130589D02*
X0349079Y0129721D01*
X0351681Y0129721D01*
X0348212Y0130589D02*
X0348212Y0132324D01*
X0349079Y0133191D01*
X0351681Y0133191D01*
X0351657Y0138121D02*
X0351657Y0141591D01*
X0350790Y0141591D01*
X0349103Y0141591D02*
X0346501Y0141591D01*
X0345633Y0140724D01*
X0346501Y0139856D01*
X0348236Y0139856D01*
X0349103Y0138989D01*
X0348236Y0138121D01*
X0345633Y0138121D01*
X0343947Y0138121D02*
X0343947Y0140724D01*
X0343079Y0141591D01*
X0340477Y0141591D01*
X0340477Y0138121D01*
X0338790Y0139856D02*
X0335321Y0139856D01*
X0335321Y0138989D02*
X0335321Y0140724D01*
X0336188Y0141591D01*
X0337923Y0141591D01*
X0338790Y0140724D01*
X0338790Y0139856D01*
X0337923Y0138121D02*
X0336188Y0138121D01*
X0335321Y0138989D01*
X0333634Y0138121D02*
X0333634Y0140724D01*
X0332766Y0141591D01*
X0331899Y0140724D01*
X0331899Y0138121D01*
X0330164Y0138121D02*
X0330164Y0141591D01*
X0331032Y0141591D01*
X0331899Y0140724D01*
X0328461Y0138121D02*
X0326727Y0138121D01*
X0327594Y0138121D02*
X0327594Y0141591D01*
X0326727Y0141591D01*
X0325040Y0141591D02*
X0322438Y0141591D01*
X0321570Y0140724D01*
X0321570Y0138989D01*
X0322438Y0138121D01*
X0325040Y0138121D01*
X0325040Y0143326D01*
X0327594Y0143326D02*
X0327594Y0144193D01*
X0326727Y0146521D02*
X0326727Y0149991D01*
X0325024Y0149991D02*
X0323289Y0149991D01*
X0324156Y0150858D02*
X0324156Y0147389D01*
X0325024Y0146521D01*
X0326727Y0148256D02*
X0328461Y0149991D01*
X0329329Y0149991D01*
X0331891Y0149991D02*
X0333626Y0149991D01*
X0334493Y0149124D01*
X0334493Y0146521D01*
X0331891Y0146521D01*
X0331024Y0147389D01*
X0331891Y0148256D01*
X0334493Y0148256D01*
X0336180Y0147389D02*
X0336180Y0149124D01*
X0337047Y0149991D01*
X0339650Y0149991D01*
X0341336Y0149124D02*
X0342204Y0149991D01*
X0343939Y0149991D01*
X0344806Y0149124D01*
X0344806Y0148256D01*
X0341336Y0148256D01*
X0341336Y0147389D02*
X0341336Y0149124D01*
X0341336Y0147389D02*
X0342204Y0146521D01*
X0343939Y0146521D01*
X0346493Y0146521D02*
X0349095Y0146521D01*
X0349962Y0147389D01*
X0349095Y0148256D01*
X0347360Y0148256D01*
X0346493Y0149124D01*
X0347360Y0149991D01*
X0349962Y0149991D01*
X0356806Y0149124D02*
X0356806Y0147389D01*
X0357673Y0146521D01*
X0359408Y0146521D01*
X0360275Y0147389D01*
X0360275Y0149124D01*
X0359408Y0149991D01*
X0357673Y0149991D01*
X0356806Y0149124D01*
X0361962Y0149991D02*
X0361962Y0146521D01*
X0365432Y0146521D02*
X0365432Y0149124D01*
X0364564Y0149991D01*
X0361962Y0149991D01*
X0372275Y0149991D02*
X0374010Y0149991D01*
X0373142Y0150858D02*
X0373142Y0147389D01*
X0374010Y0146521D01*
X0375712Y0146521D02*
X0375712Y0151726D01*
X0376580Y0149991D02*
X0378315Y0149991D01*
X0379182Y0149124D01*
X0379182Y0146521D01*
X0380869Y0146521D02*
X0382604Y0146521D01*
X0381736Y0146521D02*
X0381736Y0149991D01*
X0380869Y0149991D01*
X0381736Y0151726D02*
X0381736Y0152593D01*
X0385174Y0149991D02*
X0387776Y0149991D01*
X0386909Y0148256D02*
X0385174Y0148256D01*
X0384306Y0149124D01*
X0385174Y0149991D01*
X0386909Y0148256D02*
X0387776Y0147389D01*
X0386909Y0146521D01*
X0384306Y0146521D01*
X0376580Y0149991D02*
X0375712Y0149124D01*
X0375720Y0141591D02*
X0377455Y0141591D01*
X0378323Y0140724D01*
X0378323Y0138121D01*
X0375720Y0138121D01*
X0374853Y0138989D01*
X0375720Y0139856D01*
X0378323Y0139856D01*
X0380009Y0139856D02*
X0381744Y0141591D01*
X0382612Y0141591D01*
X0384306Y0140724D02*
X0384306Y0138989D01*
X0385174Y0138121D01*
X0386909Y0138121D01*
X0387776Y0139856D02*
X0384306Y0139856D01*
X0384306Y0140724D02*
X0385174Y0141591D01*
X0386909Y0141591D01*
X0387776Y0140724D01*
X0387776Y0139856D01*
X0394619Y0141591D02*
X0396354Y0141591D01*
X0395487Y0142458D02*
X0395487Y0138989D01*
X0396354Y0138121D01*
X0398057Y0138989D02*
X0398057Y0140724D01*
X0398924Y0141591D01*
X0400659Y0141591D01*
X0401526Y0140724D01*
X0401526Y0138989D01*
X0400659Y0138121D01*
X0398924Y0138121D01*
X0398057Y0138989D01*
X0392049Y0134058D02*
X0392049Y0130589D01*
X0392916Y0129721D01*
X0394619Y0130589D02*
X0395487Y0129721D01*
X0397221Y0129721D01*
X0398089Y0130589D01*
X0398089Y0132324D01*
X0397221Y0133191D01*
X0395487Y0133191D01*
X0394619Y0132324D01*
X0394619Y0130589D01*
X0392916Y0133191D02*
X0391182Y0133191D01*
X0384322Y0133191D02*
X0382588Y0133191D01*
X0383455Y0134058D02*
X0383455Y0130589D01*
X0384322Y0129721D01*
X0392049Y0127393D02*
X0392049Y0126526D01*
X0386885Y0124791D02*
X0386885Y0121321D01*
X0366283Y0124791D02*
X0365416Y0124791D01*
X0363681Y0123056D01*
X0363681Y0121321D02*
X0363681Y0124791D01*
X0362853Y0138121D02*
X0362853Y0140724D01*
X0361986Y0141591D01*
X0359384Y0141591D01*
X0359384Y0138121D01*
X0357697Y0138989D02*
X0357697Y0140724D01*
X0356830Y0141591D01*
X0355095Y0141591D01*
X0354227Y0140724D01*
X0354227Y0138989D01*
X0355095Y0138121D01*
X0356830Y0138121D01*
X0357697Y0138989D01*
X0352525Y0138121D02*
X0350790Y0138121D01*
X0351657Y0143326D02*
X0351657Y0144193D01*
X0339650Y0146521D02*
X0337047Y0146521D01*
X0336180Y0147389D01*
X0316446Y0146521D02*
X0313844Y0146521D01*
X0312976Y0147389D01*
X0312976Y0149124D01*
X0313844Y0149991D01*
X0316446Y0149991D01*
X0316446Y0145654D01*
X0315578Y0144787D01*
X0314711Y0144787D01*
X0313844Y0143326D02*
X0312976Y0143326D01*
X0313844Y0143326D02*
X0313844Y0138121D01*
X0314711Y0138121D02*
X0312976Y0138121D01*
X0311273Y0138121D02*
X0309539Y0138121D01*
X0310406Y0138121D02*
X0310406Y0143326D01*
X0309539Y0143326D01*
X0307852Y0141591D02*
X0307852Y0138121D01*
X0307852Y0140724D02*
X0304382Y0140724D01*
X0304382Y0141591D02*
X0306117Y0143326D01*
X0307852Y0141591D01*
X0304382Y0141591D02*
X0304382Y0138121D01*
X0309547Y0134058D02*
X0309547Y0130589D01*
X0310414Y0129721D01*
X0312117Y0129721D02*
X0312117Y0134926D01*
X0312984Y0133191D02*
X0314719Y0133191D01*
X0315586Y0132324D01*
X0315586Y0129721D01*
X0317273Y0129721D02*
X0319008Y0129721D01*
X0318141Y0129721D02*
X0318141Y0133191D01*
X0317273Y0133191D01*
X0318141Y0134926D02*
X0318141Y0135793D01*
X0321578Y0133191D02*
X0320711Y0132324D01*
X0320711Y0130589D01*
X0321578Y0129721D01*
X0324180Y0129721D01*
X0325867Y0129721D02*
X0325867Y0134926D01*
X0324180Y0133191D02*
X0321578Y0133191D01*
X0325867Y0131456D02*
X0328469Y0133191D01*
X0325867Y0131456D02*
X0328469Y0129721D01*
X0319024Y0123924D02*
X0319024Y0123056D01*
X0315554Y0123056D01*
X0315554Y0122189D02*
X0315554Y0123924D01*
X0316422Y0124791D01*
X0318157Y0124791D01*
X0319024Y0123924D01*
X0316422Y0121321D02*
X0315554Y0122189D01*
X0316422Y0121321D02*
X0318157Y0121321D01*
X0313868Y0121321D02*
X0311265Y0121321D01*
X0310398Y0122189D01*
X0310398Y0123924D01*
X0311265Y0124791D01*
X0313868Y0124791D01*
X0313868Y0120454D01*
X0313000Y0119587D01*
X0312133Y0119587D01*
X0308711Y0121321D02*
X0306109Y0121321D01*
X0305242Y0122189D01*
X0306109Y0123056D01*
X0308711Y0123056D01*
X0308711Y0123924D02*
X0307844Y0124791D01*
X0306109Y0124791D01*
X0303555Y0123924D02*
X0303555Y0121321D01*
X0301820Y0121321D02*
X0301820Y0123924D01*
X0302687Y0124791D01*
X0303555Y0123924D01*
X0301820Y0123924D02*
X0300953Y0124791D01*
X0300085Y0124791D01*
X0300085Y0121321D01*
X0298382Y0121321D02*
X0296648Y0121321D01*
X0297515Y0121321D02*
X0297515Y0124791D01*
X0296648Y0124791D01*
X0297515Y0126526D02*
X0297515Y0127393D01*
X0296680Y0129721D02*
X0296680Y0132324D01*
X0295812Y0133191D01*
X0294077Y0133191D01*
X0293210Y0132324D01*
X0291507Y0133191D02*
X0289772Y0133191D01*
X0290640Y0134058D02*
X0290640Y0130589D01*
X0291507Y0129721D01*
X0293210Y0129721D02*
X0293210Y0134926D01*
X0291491Y0138121D02*
X0294961Y0138121D01*
X0296648Y0138121D02*
X0296648Y0138989D01*
X0297515Y0138989D01*
X0297515Y0138121D01*
X0296648Y0138121D01*
X0296648Y0140724D02*
X0296648Y0141591D01*
X0297515Y0141591D01*
X0297515Y0140724D01*
X0296648Y0140724D01*
X0294961Y0143326D02*
X0291491Y0143326D01*
X0291491Y0138121D01*
X0291491Y0140724D02*
X0293226Y0140724D01*
X0289804Y0143326D02*
X0286335Y0143326D01*
X0288070Y0143326D02*
X0288070Y0138121D01*
X0284648Y0138989D02*
X0284648Y0142458D01*
X0283781Y0143326D01*
X0282046Y0143326D01*
X0281178Y0142458D01*
X0281178Y0138989D01*
X0282046Y0138121D01*
X0283781Y0138121D01*
X0284648Y0138989D01*
X0279492Y0138121D02*
X0279492Y0143326D01*
X0276022Y0143326D02*
X0279492Y0138121D01*
X0276022Y0138121D02*
X0276022Y0143326D01*
X0278624Y0146521D02*
X0278624Y0151726D01*
X0276022Y0149124D01*
X0279492Y0149124D01*
X0286335Y0149991D02*
X0286335Y0146521D01*
X0286335Y0148256D02*
X0288070Y0149991D01*
X0288937Y0149991D01*
X0290632Y0149124D02*
X0291499Y0149991D01*
X0293234Y0149991D01*
X0294101Y0149124D01*
X0294101Y0147389D01*
X0293234Y0146521D01*
X0291499Y0146521D01*
X0290632Y0147389D01*
X0290632Y0149124D01*
X0295788Y0149991D02*
X0295788Y0147389D01*
X0296656Y0146521D01*
X0299258Y0146521D01*
X0299258Y0149991D01*
X0300945Y0149991D02*
X0302679Y0149991D01*
X0301812Y0150858D02*
X0301812Y0147389D01*
X0302679Y0146521D01*
X0304382Y0146521D02*
X0306117Y0146521D01*
X0305250Y0146521D02*
X0305250Y0149991D01*
X0304382Y0149991D01*
X0305250Y0151726D02*
X0305250Y0152593D01*
X0307820Y0149991D02*
X0310422Y0149991D01*
X0311289Y0149124D01*
X0311289Y0146521D01*
X0307820Y0146521D02*
X0307820Y0149991D01*
X0282913Y0134926D02*
X0282046Y0134058D01*
X0282046Y0129721D01*
X0279492Y0130589D02*
X0278624Y0129721D01*
X0276889Y0129721D01*
X0276022Y0130589D01*
X0276022Y0132324D01*
X0276889Y0133191D01*
X0278624Y0133191D01*
X0279492Y0132324D01*
X0279492Y0130589D01*
X0281178Y0132324D02*
X0282913Y0132324D01*
X0278624Y0126526D02*
X0276889Y0126526D01*
X0276022Y0125658D01*
X0276022Y0124791D01*
X0276889Y0123924D01*
X0278624Y0123924D01*
X0279492Y0123056D01*
X0279492Y0122189D01*
X0278624Y0121321D01*
X0276889Y0121321D01*
X0276022Y0122189D01*
X0279492Y0125658D02*
X0278624Y0126526D01*
X0281178Y0123924D02*
X0282046Y0124791D01*
X0283781Y0124791D01*
X0284648Y0123924D01*
X0284648Y0123056D01*
X0281178Y0123056D01*
X0281178Y0122189D02*
X0281178Y0123924D01*
X0281178Y0122189D02*
X0282046Y0121321D01*
X0283781Y0121321D01*
X0286335Y0122189D02*
X0287202Y0121321D01*
X0288937Y0121321D01*
X0289804Y0123056D02*
X0286335Y0123056D01*
X0286335Y0122189D02*
X0286335Y0123924D01*
X0287202Y0124791D01*
X0288937Y0124791D01*
X0289804Y0123924D01*
X0289804Y0123056D01*
X0298366Y0130589D02*
X0299234Y0129721D01*
X0300969Y0129721D01*
X0301836Y0131456D02*
X0298366Y0131456D01*
X0298366Y0130589D02*
X0298366Y0132324D01*
X0299234Y0133191D01*
X0300969Y0133191D01*
X0301836Y0132324D01*
X0301836Y0131456D01*
X0308679Y0133191D02*
X0310414Y0133191D01*
X0312117Y0132324D02*
X0312984Y0133191D01*
X0308711Y0123924D02*
X0308711Y0121321D01*
X0364540Y0138121D02*
X0367142Y0138121D01*
X0368010Y0138989D01*
X0367142Y0139856D01*
X0365408Y0139856D01*
X0364540Y0140724D01*
X0365408Y0141591D01*
X0368010Y0141591D01*
X0380009Y0141591D02*
X0380009Y0138121D01*
X0394619Y0146521D02*
X0397221Y0146521D01*
X0398089Y0147389D01*
X0398089Y0149124D01*
X0397221Y0149991D01*
X0394619Y0149991D01*
X0394619Y0151726D02*
X0394619Y0146521D01*
X0399776Y0147389D02*
X0399776Y0149124D01*
X0400643Y0149991D01*
X0402378Y0149991D01*
X0403245Y0149124D01*
X0403245Y0147389D01*
X0402378Y0146521D01*
X0400643Y0146521D01*
X0399776Y0147389D01*
X0404932Y0147389D02*
X0405799Y0148256D01*
X0408402Y0148256D01*
X0408402Y0149124D02*
X0408402Y0146521D01*
X0405799Y0146521D01*
X0404932Y0147389D01*
X0407534Y0149991D02*
X0408402Y0149124D01*
X0407534Y0149991D02*
X0405799Y0149991D01*
X0410088Y0149991D02*
X0410088Y0146521D01*
X0410088Y0148256D02*
X0411823Y0149991D01*
X0412691Y0149991D01*
X0414385Y0149124D02*
X0415253Y0149991D01*
X0417855Y0149991D01*
X0417855Y0151726D02*
X0417855Y0146521D01*
X0415253Y0146521D01*
X0414385Y0147389D01*
X0414385Y0149124D01*
X0424698Y0149124D02*
X0426433Y0149124D01*
X0428136Y0149124D02*
X0428136Y0147389D01*
X0429003Y0146521D01*
X0430738Y0146521D01*
X0431605Y0147389D01*
X0431605Y0149124D01*
X0430738Y0149991D01*
X0429003Y0149991D01*
X0428136Y0149124D01*
X0425566Y0150858D02*
X0425566Y0146521D01*
X0425566Y0150858D02*
X0426433Y0151726D01*
X0433292Y0149991D02*
X0433292Y0146521D01*
X0433292Y0148256D02*
X0435027Y0149991D01*
X0435894Y0149991D01*
X0442746Y0149124D02*
X0442746Y0147389D01*
X0443613Y0146521D01*
X0446215Y0146521D01*
X0447902Y0147389D02*
X0447902Y0149124D01*
X0448769Y0149991D01*
X0450504Y0149991D01*
X0451372Y0149124D01*
X0451372Y0147389D01*
X0450504Y0146521D01*
X0448769Y0146521D01*
X0447902Y0147389D01*
X0447051Y0144193D02*
X0447051Y0143326D01*
X0447051Y0141591D02*
X0447051Y0138121D01*
X0447918Y0138121D02*
X0446183Y0138121D01*
X0444496Y0138989D02*
X0443629Y0139856D01*
X0441894Y0139856D01*
X0441027Y0140724D01*
X0441894Y0141591D01*
X0444496Y0141591D01*
X0446183Y0141591D02*
X0447051Y0141591D01*
X0449621Y0140724D02*
X0449621Y0138989D01*
X0450488Y0138121D01*
X0453090Y0138121D01*
X0453090Y0143326D01*
X0453090Y0141591D02*
X0450488Y0141591D01*
X0449621Y0140724D01*
X0454777Y0140724D02*
X0454777Y0138989D01*
X0455645Y0138121D01*
X0457379Y0138121D01*
X0458247Y0139856D02*
X0454777Y0139856D01*
X0454777Y0140724D02*
X0455645Y0141591D01*
X0457379Y0141591D01*
X0458247Y0140724D01*
X0458247Y0139856D01*
X0465090Y0139856D02*
X0468560Y0139856D01*
X0468560Y0140724D01*
X0467692Y0141591D01*
X0465957Y0141591D01*
X0465090Y0140724D01*
X0465090Y0138989D01*
X0465957Y0138121D01*
X0467692Y0138121D01*
X0470246Y0138989D02*
X0470246Y0140724D01*
X0471114Y0141591D01*
X0473716Y0141591D01*
X0473716Y0143326D02*
X0473716Y0138121D01*
X0471114Y0138121D01*
X0470246Y0138989D01*
X0475403Y0138989D02*
X0475403Y0140724D01*
X0476270Y0141591D01*
X0478872Y0141591D01*
X0478872Y0137254D01*
X0478005Y0136387D01*
X0477138Y0136387D01*
X0476270Y0138121D02*
X0478872Y0138121D01*
X0480559Y0138989D02*
X0480559Y0140724D01*
X0481427Y0141591D01*
X0483161Y0141591D01*
X0484029Y0140724D01*
X0484029Y0139856D01*
X0480559Y0139856D01*
X0480559Y0138989D02*
X0481427Y0138121D01*
X0483161Y0138121D01*
X0476270Y0138121D02*
X0475403Y0138989D01*
X0464239Y0135793D02*
X0464239Y0134926D01*
X0464239Y0133191D02*
X0464239Y0129721D01*
X0465106Y0129721D02*
X0463371Y0129721D01*
X0461668Y0129721D02*
X0459934Y0129721D01*
X0460801Y0129721D02*
X0460801Y0134926D01*
X0459934Y0134926D01*
X0457379Y0133191D02*
X0455645Y0133191D01*
X0454777Y0132324D01*
X0454777Y0130589D01*
X0455645Y0129721D01*
X0457379Y0129721D01*
X0458247Y0131456D02*
X0454777Y0131456D01*
X0453082Y0133191D02*
X0452215Y0133191D01*
X0450480Y0131456D01*
X0450480Y0129721D02*
X0450480Y0133191D01*
X0448777Y0133191D02*
X0447043Y0133191D01*
X0447910Y0134058D02*
X0447910Y0130589D01*
X0448777Y0129721D01*
X0445356Y0129721D02*
X0445356Y0132324D01*
X0444488Y0133191D01*
X0441886Y0133191D01*
X0441886Y0129721D01*
X0440199Y0131456D02*
X0436730Y0131456D01*
X0436730Y0130589D02*
X0436730Y0132324D01*
X0437597Y0133191D01*
X0439332Y0133191D01*
X0440199Y0132324D01*
X0440199Y0131456D01*
X0439332Y0129721D02*
X0437597Y0129721D01*
X0436730Y0130589D01*
X0435043Y0129721D02*
X0432441Y0129721D01*
X0431573Y0130589D01*
X0431573Y0132324D01*
X0432441Y0133191D01*
X0435043Y0133191D01*
X0424722Y0133191D02*
X0423855Y0133191D01*
X0422120Y0131456D01*
X0422120Y0129721D02*
X0422120Y0133191D01*
X0419550Y0133191D02*
X0419550Y0129721D01*
X0420417Y0129721D02*
X0418682Y0129721D01*
X0416996Y0131456D02*
X0413526Y0131456D01*
X0413526Y0130589D02*
X0413526Y0132324D01*
X0414393Y0133191D01*
X0416128Y0133191D01*
X0416996Y0132324D01*
X0416996Y0131456D01*
X0416128Y0129721D02*
X0414393Y0129721D01*
X0413526Y0130589D01*
X0411839Y0129721D02*
X0411839Y0132324D01*
X0410972Y0133191D01*
X0409237Y0133191D01*
X0408370Y0132324D01*
X0406667Y0133191D02*
X0404932Y0133191D01*
X0405799Y0134058D02*
X0405799Y0130589D01*
X0406667Y0129721D01*
X0408370Y0129721D02*
X0408370Y0134926D01*
X0410104Y0138121D02*
X0409237Y0138989D01*
X0409237Y0142458D01*
X0408370Y0141591D02*
X0410104Y0141591D01*
X0411807Y0140724D02*
X0412675Y0141591D01*
X0414409Y0141591D01*
X0415277Y0140724D01*
X0415277Y0138121D01*
X0416964Y0138989D02*
X0416964Y0140724D01*
X0417831Y0141591D01*
X0419566Y0141591D01*
X0420433Y0140724D01*
X0420433Y0139856D01*
X0416964Y0139856D01*
X0416964Y0138989D02*
X0417831Y0138121D01*
X0419566Y0138121D01*
X0427276Y0138989D02*
X0427276Y0140724D01*
X0428144Y0141591D01*
X0429879Y0141591D01*
X0430746Y0140724D01*
X0430746Y0138989D01*
X0429879Y0138121D01*
X0428144Y0138121D01*
X0427276Y0138989D01*
X0432433Y0138989D02*
X0433300Y0138121D01*
X0435902Y0138121D01*
X0435902Y0141591D01*
X0437589Y0141591D02*
X0439324Y0141591D01*
X0438457Y0142458D02*
X0438457Y0138989D01*
X0439324Y0138121D01*
X0441027Y0138121D02*
X0443629Y0138121D01*
X0444496Y0138989D01*
X0432433Y0138989D02*
X0432433Y0141591D01*
X0419550Y0135793D02*
X0419550Y0134926D01*
X0419550Y0133191D02*
X0418682Y0133191D01*
X0411807Y0138121D02*
X0411807Y0143326D01*
X0442746Y0149124D02*
X0443613Y0149991D01*
X0446215Y0149991D01*
X0453058Y0149991D02*
X0453058Y0146521D01*
X0456528Y0146521D02*
X0456528Y0149124D01*
X0455661Y0149991D01*
X0453058Y0149991D01*
X0458215Y0149991D02*
X0460817Y0149991D01*
X0461684Y0149124D01*
X0461684Y0146521D01*
X0463371Y0147389D02*
X0463371Y0149124D01*
X0464239Y0149991D01*
X0465973Y0149991D01*
X0466841Y0149124D01*
X0466841Y0148256D01*
X0463371Y0148256D01*
X0463371Y0147389D02*
X0464239Y0146521D01*
X0465973Y0146521D01*
X0468528Y0147389D02*
X0468528Y0149124D01*
X0469395Y0149991D01*
X0471997Y0149991D01*
X0473684Y0149991D02*
X0475419Y0149991D01*
X0474551Y0150858D02*
X0474551Y0147389D01*
X0475419Y0146521D01*
X0477122Y0147389D02*
X0477122Y0149124D01*
X0477989Y0149991D01*
X0479724Y0149991D01*
X0480591Y0149124D01*
X0480591Y0147389D01*
X0479724Y0146521D01*
X0477989Y0146521D01*
X0477122Y0147389D01*
X0482278Y0148256D02*
X0484013Y0149991D01*
X0484880Y0149991D01*
X0486575Y0149124D02*
X0487442Y0149991D01*
X0490045Y0149991D01*
X0489177Y0148256D02*
X0487442Y0148256D01*
X0486575Y0149124D01*
X0486575Y0146521D02*
X0489177Y0146521D01*
X0490045Y0147389D01*
X0489177Y0148256D01*
X0491731Y0147389D02*
X0492599Y0147389D01*
X0492599Y0146521D01*
X0491731Y0146521D01*
X0491731Y0147389D01*
X0482278Y0146521D02*
X0482278Y0149991D01*
X0471997Y0146521D02*
X0469395Y0146521D01*
X0468528Y0147389D01*
X0458215Y0146521D02*
X0458215Y0149991D01*
X0457379Y0133191D02*
X0458247Y0132324D01*
X0458247Y0131456D01*
X0463371Y0133191D02*
X0464239Y0133191D01*
X0466809Y0133191D02*
X0469411Y0133191D01*
X0470278Y0132324D01*
X0470278Y0129721D01*
X0471965Y0130589D02*
X0471965Y0132324D01*
X0472833Y0133191D01*
X0474567Y0133191D01*
X0475435Y0132324D01*
X0475435Y0131456D01*
X0471965Y0131456D01*
X0471965Y0130589D02*
X0472833Y0129721D01*
X0474567Y0129721D01*
X0477122Y0129721D02*
X0479724Y0129721D01*
X0480591Y0130589D01*
X0479724Y0131456D01*
X0477989Y0131456D01*
X0477122Y0132324D01*
X0477989Y0133191D01*
X0480591Y0133191D01*
X0482278Y0130589D02*
X0483145Y0130589D01*
X0483145Y0129721D01*
X0482278Y0129721D01*
X0482278Y0130589D01*
X0466809Y0129721D02*
X0466809Y0133191D01*
X0221402Y0093751D02*
X0221402Y0091449D01*
X0219868Y0091449D02*
X0219868Y0093751D01*
X0220635Y0094519D01*
X0221402Y0093751D01*
X0219868Y0093751D02*
X0219100Y0094519D01*
X0218333Y0094519D01*
X0218333Y0091449D01*
X0216798Y0091449D02*
X0216798Y0093751D01*
X0216031Y0094519D01*
X0215264Y0093751D01*
X0215264Y0091449D01*
X0213729Y0091449D02*
X0213729Y0094519D01*
X0214496Y0094519D01*
X0215264Y0093751D01*
X0212194Y0093751D02*
X0211427Y0094519D01*
X0210660Y0094519D01*
X0209125Y0093751D01*
X0209125Y0096053D01*
X0212194Y0096053D01*
X0209509Y0098949D02*
X0208741Y0098949D01*
X0208741Y0099717D01*
X0209509Y0099717D01*
X0209509Y0098949D01*
X0209509Y0101251D02*
X0208741Y0101251D01*
X0208741Y0102019D01*
X0209509Y0102019D01*
X0209509Y0101251D01*
X0207207Y0102019D02*
X0204905Y0102019D01*
X0204138Y0101251D01*
X0204905Y0100484D01*
X0206439Y0100484D01*
X0207207Y0099717D01*
X0206439Y0098949D01*
X0204138Y0098949D01*
X0202603Y0098949D02*
X0201836Y0099717D01*
X0201836Y0102786D01*
X0202603Y0102019D02*
X0201068Y0102019D01*
X0199534Y0101251D02*
X0198766Y0102019D01*
X0197232Y0102019D01*
X0196464Y0101251D01*
X0196464Y0099717D01*
X0197232Y0098949D01*
X0198766Y0098949D01*
X0199534Y0099717D01*
X0199534Y0101251D01*
X0194930Y0098949D02*
X0193395Y0098949D01*
X0194162Y0098949D02*
X0194162Y0103553D01*
X0193395Y0103553D01*
X0191860Y0102019D02*
X0189558Y0102019D01*
X0188791Y0101251D01*
X0189558Y0100484D01*
X0191093Y0100484D01*
X0191860Y0099717D01*
X0191093Y0098949D01*
X0188791Y0098949D01*
X0182653Y0098949D02*
X0179583Y0098949D01*
X0182653Y0102019D01*
X0182653Y0102786D01*
X0181885Y0103553D01*
X0180351Y0103553D01*
X0179583Y0102786D01*
X0176898Y0096053D02*
X0175363Y0096053D01*
X0174596Y0095286D01*
X0176898Y0096053D02*
X0177665Y0095286D01*
X0177665Y0094519D01*
X0174596Y0091449D01*
X0177665Y0091449D01*
X0179200Y0091449D02*
X0179200Y0094519D01*
X0179967Y0094519D01*
X0180734Y0093751D01*
X0181502Y0094519D01*
X0182269Y0093751D01*
X0182269Y0091449D01*
X0183804Y0091449D02*
X0183804Y0094519D01*
X0184571Y0094519D01*
X0185338Y0093751D01*
X0186105Y0094519D01*
X0186873Y0093751D01*
X0186873Y0091449D01*
X0185338Y0091449D02*
X0185338Y0093751D01*
X0180734Y0093751D02*
X0180734Y0091449D01*
X0173061Y0091449D02*
X0172294Y0091449D01*
X0172294Y0092217D01*
X0173061Y0092217D01*
X0173061Y0091449D01*
X0170759Y0091449D02*
X0167690Y0091449D01*
X0169224Y0091449D02*
X0169224Y0096053D01*
X0167690Y0094519D01*
X0193011Y0094519D02*
X0196081Y0091449D01*
X0193011Y0091449D02*
X0196081Y0094519D01*
X0202219Y0095286D02*
X0202987Y0096053D01*
X0204521Y0096053D01*
X0205288Y0095286D01*
X0205288Y0094519D01*
X0204521Y0093751D01*
X0205288Y0092984D01*
X0205288Y0092217D01*
X0204521Y0091449D01*
X0202987Y0091449D01*
X0202219Y0092217D01*
X0203754Y0093751D02*
X0204521Y0093751D01*
X0206823Y0092217D02*
X0207590Y0092217D01*
X0207590Y0091449D01*
X0206823Y0091449D01*
X0206823Y0092217D01*
X0209125Y0092217D02*
X0209892Y0091449D01*
X0211427Y0091449D01*
X0212194Y0092217D01*
X0212194Y0093751D01*
X0197899Y0014203D02*
X0197899Y0011134D01*
X0198666Y0010367D01*
X0200201Y0010367D02*
X0202502Y0010367D01*
X0203270Y0011134D01*
X0202502Y0011901D01*
X0200968Y0011901D01*
X0200201Y0012669D01*
X0200968Y0013436D01*
X0203270Y0013436D01*
X0204804Y0013436D02*
X0204804Y0012669D01*
X0205572Y0012669D01*
X0205572Y0013436D01*
X0204804Y0013436D01*
X0204804Y0011134D02*
X0204804Y0010367D01*
X0205572Y0010367D01*
X0205572Y0011134D01*
X0204804Y0011134D01*
X0205955Y0007471D02*
X0207490Y0007471D01*
X0208257Y0006703D01*
X0205188Y0003634D01*
X0205955Y0002867D01*
X0207490Y0002867D01*
X0208257Y0003634D01*
X0208257Y0006703D01*
X0209792Y0005936D02*
X0210559Y0005936D01*
X0211327Y0005169D01*
X0212094Y0005936D01*
X0212861Y0005169D01*
X0212861Y0002867D01*
X0211327Y0002867D02*
X0211327Y0005169D01*
X0209792Y0005936D02*
X0209792Y0002867D01*
X0214396Y0002867D02*
X0214396Y0005936D01*
X0215163Y0005936D01*
X0215931Y0005169D01*
X0216698Y0005936D01*
X0217465Y0005169D01*
X0217465Y0002867D01*
X0215931Y0002867D02*
X0215931Y0005169D01*
X0205955Y0007471D02*
X0205188Y0006703D01*
X0205188Y0003634D01*
X0203653Y0003634D02*
X0203653Y0002867D01*
X0202886Y0002867D01*
X0202886Y0003634D01*
X0203653Y0003634D01*
X0201351Y0003634D02*
X0200584Y0002867D01*
X0199050Y0002867D01*
X0198282Y0003634D01*
X0199817Y0005169D02*
X0200584Y0005169D01*
X0201351Y0004401D01*
X0201351Y0003634D01*
X0200584Y0005169D02*
X0201351Y0005936D01*
X0201351Y0006703D01*
X0200584Y0007471D01*
X0199050Y0007471D01*
X0198282Y0006703D01*
X0192144Y0005936D02*
X0189074Y0002867D01*
X0189074Y0005936D02*
X0192144Y0002867D01*
X0182936Y0002867D02*
X0182936Y0005169D01*
X0182168Y0005936D01*
X0181401Y0005169D01*
X0181401Y0002867D01*
X0179866Y0002867D02*
X0179866Y0005936D01*
X0180634Y0005936D01*
X0181401Y0005169D01*
X0178332Y0005169D02*
X0178332Y0002867D01*
X0176797Y0002867D02*
X0176797Y0005169D01*
X0177565Y0005936D01*
X0178332Y0005169D01*
X0176797Y0005169D02*
X0176030Y0005936D01*
X0175263Y0005936D01*
X0175263Y0002867D01*
X0173728Y0002867D02*
X0170659Y0002867D01*
X0173728Y0005936D01*
X0173728Y0006703D01*
X0172961Y0007471D01*
X0171426Y0007471D01*
X0170659Y0006703D01*
X0165287Y0007471D02*
X0165287Y0002867D01*
X0163753Y0002867D02*
X0166822Y0002867D01*
X0168357Y0002867D02*
X0169124Y0002867D01*
X0169124Y0003634D01*
X0168357Y0003634D01*
X0168357Y0002867D01*
X0163753Y0005936D02*
X0165287Y0007471D01*
X0175646Y0010367D02*
X0178716Y0013436D01*
X0178716Y0014203D01*
X0177948Y0014971D01*
X0176414Y0014971D01*
X0175646Y0014203D01*
X0175646Y0010367D02*
X0178716Y0010367D01*
X0184854Y0010367D02*
X0187156Y0010367D01*
X0187923Y0011134D01*
X0187156Y0011901D01*
X0185621Y0011901D01*
X0184854Y0012669D01*
X0185621Y0013436D01*
X0187923Y0013436D01*
X0189458Y0014971D02*
X0190225Y0014971D01*
X0190225Y0010367D01*
X0189458Y0010367D02*
X0190993Y0010367D01*
X0192527Y0011134D02*
X0193295Y0010367D01*
X0194829Y0010367D01*
X0195597Y0011134D01*
X0195597Y0012669D01*
X0194829Y0013436D01*
X0193295Y0013436D01*
X0192527Y0012669D01*
X0192527Y0011134D01*
X0197131Y0013436D02*
X0198666Y0013436D01*
D12*
X0311255Y0066003D02*
X0350625Y0066003D01*
X0370310Y0085688D02*
X0370304Y0086164D01*
X0370287Y0086639D01*
X0370258Y0087114D01*
X0370218Y0087588D01*
X0370166Y0088061D01*
X0370103Y0088532D01*
X0370029Y0089002D01*
X0369943Y0089470D01*
X0369846Y0089936D01*
X0369738Y0090399D01*
X0369619Y0090859D01*
X0369488Y0091317D01*
X0369347Y0091771D01*
X0369194Y0092222D01*
X0369031Y0092668D01*
X0368857Y0093111D01*
X0368672Y0093549D01*
X0368477Y0093983D01*
X0368271Y0094412D01*
X0368055Y0094836D01*
X0367829Y0095255D01*
X0367593Y0095668D01*
X0367347Y0096075D01*
X0367091Y0096476D01*
X0366825Y0096870D01*
X0366550Y0097259D01*
X0366266Y0097640D01*
X0365973Y0098014D01*
X0365671Y0098382D01*
X0365359Y0098742D01*
X0365040Y0099094D01*
X0364712Y0099438D01*
X0364375Y0099775D01*
X0364031Y0100103D01*
X0363679Y0100422D01*
X0363319Y0100734D01*
X0362951Y0101036D01*
X0362577Y0101329D01*
X0362196Y0101613D01*
X0361807Y0101888D01*
X0361413Y0102154D01*
X0361012Y0102410D01*
X0360605Y0102656D01*
X0360192Y0102892D01*
X0359773Y0103118D01*
X0359349Y0103334D01*
X0358920Y0103540D01*
X0358486Y0103735D01*
X0358048Y0103920D01*
X0357605Y0104094D01*
X0357159Y0104257D01*
X0356708Y0104410D01*
X0356254Y0104551D01*
X0355796Y0104682D01*
X0355336Y0104801D01*
X0354873Y0104909D01*
X0354407Y0105006D01*
X0353939Y0105092D01*
X0353469Y0105166D01*
X0352998Y0105229D01*
X0352525Y0105281D01*
X0352051Y0105321D01*
X0351576Y0105350D01*
X0351101Y0105367D01*
X0350625Y0105373D01*
X0311255Y0105373D01*
X0310779Y0105367D01*
X0310304Y0105350D01*
X0309829Y0105321D01*
X0309355Y0105281D01*
X0308882Y0105229D01*
X0308411Y0105166D01*
X0307941Y0105092D01*
X0307473Y0105006D01*
X0307007Y0104909D01*
X0306544Y0104801D01*
X0306084Y0104682D01*
X0305626Y0104551D01*
X0305172Y0104410D01*
X0304721Y0104257D01*
X0304275Y0104094D01*
X0303832Y0103920D01*
X0303394Y0103735D01*
X0302960Y0103540D01*
X0302531Y0103334D01*
X0302107Y0103118D01*
X0301688Y0102892D01*
X0301275Y0102656D01*
X0300868Y0102410D01*
X0300467Y0102154D01*
X0300073Y0101888D01*
X0299684Y0101613D01*
X0299303Y0101329D01*
X0298929Y0101036D01*
X0298561Y0100734D01*
X0298201Y0100422D01*
X0297849Y0100103D01*
X0297505Y0099775D01*
X0297168Y0099438D01*
X0296840Y0099094D01*
X0296521Y0098742D01*
X0296209Y0098382D01*
X0295907Y0098014D01*
X0295614Y0097640D01*
X0295330Y0097259D01*
X0295055Y0096870D01*
X0294789Y0096476D01*
X0294533Y0096075D01*
X0294287Y0095668D01*
X0294051Y0095255D01*
X0293825Y0094836D01*
X0293609Y0094412D01*
X0293403Y0093983D01*
X0293208Y0093549D01*
X0293023Y0093111D01*
X0292849Y0092668D01*
X0292686Y0092222D01*
X0292533Y0091771D01*
X0292392Y0091317D01*
X0292261Y0090859D01*
X0292142Y0090399D01*
X0292034Y0089936D01*
X0291937Y0089470D01*
X0291851Y0089002D01*
X0291777Y0088532D01*
X0291714Y0088061D01*
X0291662Y0087588D01*
X0291622Y0087114D01*
X0291593Y0086639D01*
X0291576Y0086164D01*
X0291570Y0085688D01*
X0291576Y0085212D01*
X0291593Y0084737D01*
X0291622Y0084262D01*
X0291662Y0083788D01*
X0291714Y0083315D01*
X0291777Y0082844D01*
X0291851Y0082374D01*
X0291937Y0081906D01*
X0292034Y0081440D01*
X0292142Y0080977D01*
X0292261Y0080517D01*
X0292392Y0080059D01*
X0292533Y0079605D01*
X0292686Y0079154D01*
X0292849Y0078708D01*
X0293023Y0078265D01*
X0293208Y0077827D01*
X0293403Y0077393D01*
X0293609Y0076964D01*
X0293825Y0076540D01*
X0294051Y0076121D01*
X0294287Y0075708D01*
X0294533Y0075301D01*
X0294789Y0074900D01*
X0295055Y0074506D01*
X0295330Y0074117D01*
X0295614Y0073736D01*
X0295907Y0073362D01*
X0296209Y0072994D01*
X0296521Y0072634D01*
X0296840Y0072282D01*
X0297168Y0071938D01*
X0297505Y0071601D01*
X0297849Y0071273D01*
X0298201Y0070954D01*
X0298561Y0070642D01*
X0298929Y0070340D01*
X0299303Y0070047D01*
X0299684Y0069763D01*
X0300073Y0069488D01*
X0300467Y0069222D01*
X0300868Y0068966D01*
X0301275Y0068720D01*
X0301688Y0068484D01*
X0302107Y0068258D01*
X0302531Y0068042D01*
X0302960Y0067836D01*
X0303394Y0067641D01*
X0303832Y0067456D01*
X0304275Y0067282D01*
X0304721Y0067119D01*
X0305172Y0066966D01*
X0305626Y0066825D01*
X0306084Y0066694D01*
X0306544Y0066575D01*
X0307007Y0066467D01*
X0307473Y0066370D01*
X0307941Y0066284D01*
X0308411Y0066210D01*
X0308882Y0066147D01*
X0309355Y0066095D01*
X0309829Y0066055D01*
X0310304Y0066026D01*
X0310779Y0066009D01*
X0311255Y0066003D01*
X0350625Y0066003D02*
X0351101Y0066009D01*
X0351576Y0066026D01*
X0352051Y0066055D01*
X0352525Y0066095D01*
X0352998Y0066147D01*
X0353469Y0066210D01*
X0353939Y0066284D01*
X0354407Y0066370D01*
X0354873Y0066467D01*
X0355336Y0066575D01*
X0355796Y0066694D01*
X0356254Y0066825D01*
X0356708Y0066966D01*
X0357159Y0067119D01*
X0357605Y0067282D01*
X0358048Y0067456D01*
X0358486Y0067641D01*
X0358920Y0067836D01*
X0359349Y0068042D01*
X0359773Y0068258D01*
X0360192Y0068484D01*
X0360605Y0068720D01*
X0361012Y0068966D01*
X0361413Y0069222D01*
X0361807Y0069488D01*
X0362196Y0069763D01*
X0362577Y0070047D01*
X0362951Y0070340D01*
X0363319Y0070642D01*
X0363679Y0070954D01*
X0364031Y0071273D01*
X0364375Y0071601D01*
X0364712Y0071938D01*
X0365040Y0072282D01*
X0365359Y0072634D01*
X0365671Y0072994D01*
X0365973Y0073362D01*
X0366266Y0073736D01*
X0366550Y0074117D01*
X0366825Y0074506D01*
X0367091Y0074900D01*
X0367347Y0075301D01*
X0367593Y0075708D01*
X0367829Y0076121D01*
X0368055Y0076540D01*
X0368271Y0076964D01*
X0368477Y0077393D01*
X0368672Y0077827D01*
X0368857Y0078265D01*
X0369031Y0078708D01*
X0369194Y0079154D01*
X0369347Y0079605D01*
X0369488Y0080059D01*
X0369619Y0080517D01*
X0369738Y0080977D01*
X0369846Y0081440D01*
X0369943Y0081906D01*
X0370029Y0082374D01*
X0370103Y0082844D01*
X0370166Y0083315D01*
X0370218Y0083788D01*
X0370258Y0084262D01*
X0370287Y0084737D01*
X0370304Y0085212D01*
X0370310Y0085688D01*
D13*
X0370310Y0030767D01*
X0370054Y0038444D02*
X0360074Y0037421D01*
X0360074Y0037187D02*
X0370054Y0038444D01*
X0360074Y0039468D01*
X0360074Y0039701D02*
X0360074Y0037187D01*
X0360074Y0037932D02*
X0370054Y0038444D01*
X0360074Y0038956D01*
X0360074Y0039701D02*
X0370054Y0038444D01*
X0291826Y0038444D01*
X0301806Y0037421D01*
X0301806Y0037187D02*
X0291826Y0038444D01*
X0301806Y0039468D01*
X0301806Y0039701D02*
X0301806Y0037187D01*
X0301806Y0037932D02*
X0291826Y0038444D01*
X0301806Y0038956D01*
X0301806Y0039701D02*
X0291826Y0038444D01*
X0291570Y0030767D02*
X0291570Y0085688D01*
X0311255Y0066003D02*
X0409483Y0066003D01*
X0401806Y0066259D02*
X0402830Y0076239D01*
X0403063Y0076239D02*
X0401806Y0066259D01*
X0400783Y0076239D01*
X0400549Y0076239D02*
X0403063Y0076239D01*
X0402318Y0076239D02*
X0401806Y0066259D01*
X0401294Y0076239D01*
X0400549Y0076239D02*
X0401806Y0066259D01*
X0401806Y0105117D01*
X0402830Y0095137D01*
X0403063Y0095137D02*
X0401806Y0105117D01*
X0400783Y0095137D01*
X0400549Y0095137D02*
X0403063Y0095137D01*
X0402318Y0095137D02*
X0401806Y0105117D01*
X0401294Y0095137D01*
X0400549Y0095137D02*
X0401806Y0105117D01*
X0409483Y0105373D02*
X0311255Y0105373D01*
D14*
X0406043Y0095020D02*
X0406043Y0088614D01*
X0406043Y0091817D02*
X0410314Y0091817D01*
X0412489Y0091817D02*
X0413556Y0092885D01*
X0415692Y0092885D01*
X0416759Y0091817D01*
X0416759Y0090749D01*
X0412489Y0090749D01*
X0412489Y0089682D02*
X0412489Y0091817D01*
X0412489Y0089682D02*
X0413556Y0088614D01*
X0415692Y0088614D01*
X0418934Y0088614D02*
X0421069Y0088614D01*
X0420002Y0088614D02*
X0420002Y0092885D01*
X0418934Y0092885D01*
X0420002Y0095020D02*
X0420002Y0096087D01*
X0423231Y0091817D02*
X0424299Y0092885D01*
X0427502Y0092885D01*
X0427502Y0087547D01*
X0426434Y0086479D01*
X0425366Y0086479D01*
X0424299Y0088614D02*
X0427502Y0088614D01*
X0429677Y0088614D02*
X0429677Y0095020D01*
X0430744Y0092885D02*
X0432880Y0092885D01*
X0433947Y0091817D01*
X0433947Y0088614D01*
X0437190Y0089682D02*
X0438257Y0088614D01*
X0437190Y0089682D02*
X0437190Y0093952D01*
X0438257Y0092885D02*
X0436122Y0092885D01*
X0430744Y0092885D02*
X0429677Y0091817D01*
X0424299Y0088614D02*
X0423231Y0089682D01*
X0423231Y0091817D01*
X0410314Y0095020D02*
X0410314Y0088614D01*
X0411408Y0085587D02*
X0411408Y0084520D01*
X0411408Y0082385D02*
X0411408Y0078114D01*
X0412475Y0078114D02*
X0410340Y0078114D01*
X0408178Y0078114D02*
X0406043Y0080249D01*
X0406043Y0082385D01*
X0408178Y0084520D01*
X0410340Y0082385D02*
X0411408Y0082385D01*
X0414637Y0079182D02*
X0415705Y0079182D01*
X0415705Y0078114D01*
X0414637Y0078114D01*
X0414637Y0079182D01*
X0417860Y0079182D02*
X0417860Y0081317D01*
X0418928Y0082385D01*
X0421063Y0082385D01*
X0422130Y0081317D01*
X0422130Y0080249D01*
X0417860Y0080249D01*
X0417860Y0079182D02*
X0418928Y0078114D01*
X0421063Y0078114D01*
X0424306Y0078114D02*
X0425373Y0078114D01*
X0425373Y0079182D01*
X0424306Y0079182D01*
X0424306Y0078114D01*
X0433974Y0082385D02*
X0436109Y0082385D01*
X0435041Y0083452D02*
X0435041Y0079182D01*
X0436109Y0078114D01*
X0438271Y0079182D02*
X0438271Y0081317D01*
X0439338Y0082385D01*
X0441474Y0082385D01*
X0442541Y0081317D01*
X0442541Y0079182D01*
X0441474Y0078114D01*
X0439338Y0078114D01*
X0438271Y0079182D01*
X0444716Y0079182D02*
X0444716Y0081317D01*
X0445784Y0082385D01*
X0447919Y0082385D01*
X0448987Y0081317D01*
X0448987Y0079182D01*
X0447919Y0078114D01*
X0445784Y0078114D01*
X0444716Y0079182D01*
X0451162Y0078114D02*
X0453297Y0078114D01*
X0452229Y0078114D02*
X0452229Y0084520D01*
X0451162Y0084520D01*
X0461904Y0081317D02*
X0462972Y0082385D01*
X0466175Y0082385D01*
X0468350Y0082385D02*
X0469417Y0082385D01*
X0469417Y0078114D01*
X0468350Y0078114D02*
X0470485Y0078114D01*
X0472647Y0078114D02*
X0476917Y0078114D01*
X0479092Y0079182D02*
X0479092Y0081317D01*
X0480160Y0082385D01*
X0482295Y0082385D01*
X0483363Y0081317D01*
X0483363Y0080249D01*
X0479092Y0080249D01*
X0479092Y0079182D02*
X0480160Y0078114D01*
X0482295Y0078114D01*
X0485538Y0078114D02*
X0487673Y0080249D01*
X0487673Y0082385D01*
X0485538Y0084520D01*
X0476917Y0082385D02*
X0472647Y0078114D01*
X0472647Y0082385D02*
X0476917Y0082385D01*
X0469417Y0084520D02*
X0469417Y0085587D01*
X0465107Y0080249D02*
X0462972Y0080249D01*
X0461904Y0081317D01*
X0461904Y0078114D02*
X0465107Y0078114D01*
X0466175Y0079182D01*
X0465107Y0080249D01*
X0349841Y0045884D02*
X0349841Y0042681D01*
X0349841Y0045884D02*
X0348774Y0046952D01*
X0346639Y0046952D01*
X0345571Y0045884D01*
X0343409Y0046952D02*
X0341274Y0046952D01*
X0342342Y0048019D02*
X0342342Y0043749D01*
X0343409Y0042681D01*
X0345571Y0042681D02*
X0345571Y0049087D01*
X0339099Y0046952D02*
X0335896Y0046952D01*
X0334829Y0045884D01*
X0334829Y0043749D01*
X0335896Y0042681D01*
X0339099Y0042681D01*
X0339099Y0041614D02*
X0339099Y0046952D01*
X0332653Y0045884D02*
X0332653Y0042681D01*
X0332653Y0045884D02*
X0331586Y0046952D01*
X0328383Y0046952D01*
X0328383Y0042681D01*
X0326208Y0044816D02*
X0321938Y0044816D01*
X0321938Y0043749D02*
X0321938Y0045884D01*
X0323005Y0046952D01*
X0325140Y0046952D01*
X0326208Y0045884D01*
X0326208Y0044816D01*
X0325140Y0042681D02*
X0323005Y0042681D01*
X0321938Y0043749D01*
X0319762Y0042681D02*
X0315492Y0042681D01*
X0315492Y0049087D01*
X0336964Y0040546D02*
X0338031Y0040546D01*
X0339099Y0041614D01*
D15*
X0222279Y0047302D02*
X0215192Y0047302D01*
X0167161Y0047302D02*
X0160074Y0047302D01*
X0159090Y0070925D02*
X0168145Y0070925D01*
X0214208Y0070925D02*
X0223263Y0070925D01*
M02*
