%
M48
M72
T01C0.02362
T02C0.03150
T03C0.03200
T04C0.03937
T05C0.04724
T06C0.13780
%
T01
X73066Y46318
X74444Y54389
X93539Y60098
X110468Y54980
X106531Y70334
X96688Y69940
X88814Y69940
X82909Y69940
X88814Y83129
X98657Y84114
X104562Y84901
X110074Y84114
X128184Y69940
X175428Y89625
X183302Y89625
X189995Y115216
X165192Y114232
X105743Y131948
X99838Y131948
X99838Y137854
X105743Y137854
X86649Y137854
X86649Y131948
X69326Y134310
X50428Y148680
X15980Y103405
X35665Y95531
X53381Y89625
X63224Y85688
X70507Y82342
X69129Y91594
X35074Y85098
X42357Y73877
X32909Y67972
X26806Y57145
T02
X29759Y126043
X29759Y133917
X29759Y141791
X29759Y149665
X29759Y157539
T03
X90625Y41397
X100625Y41397
X110625Y41397
T04
X131629Y41810
X131629Y31810
X163617Y47302
X131629Y51810
X131629Y61810
X106531Y64035
X163617Y70925
X218735Y70925
X218735Y47302
X140153Y100649
X130153Y100649
X120153Y100649
X251019Y123484
X187830Y159901
T05
X41570Y40216
X52200Y50058
X41570Y59901
T06
X102594Y100649
X157712Y100649
M30
