G75*
%MOIN*%
%OFA0B0*%
%FSLAX25Y25*%
%IPPOS*%
%LPD*%
%AMOC8*
5,1,8,0,0,1.08239X$1,22.5*
%
%ADD10C,0.00300*%
%ADD11R,0.02362X0.00118*%
%ADD12R,0.04016X0.00118*%
%ADD13R,0.05197X0.00118*%
%ADD14R,0.06142X0.00118*%
%ADD15R,0.06850X0.00118*%
%ADD16R,0.07559X0.00118*%
%ADD17R,0.08268X0.00118*%
%ADD18R,0.08740X0.00118*%
%ADD19R,0.09213X0.00118*%
%ADD20R,0.09685X0.00118*%
%ADD21R,0.10157X0.00118*%
%ADD22R,0.10630X0.00118*%
%ADD23R,0.11102X0.00118*%
%ADD24R,0.11575X0.00118*%
%ADD25R,0.12047X0.00118*%
%ADD26R,0.12283X0.00118*%
%ADD27R,0.12756X0.00118*%
%ADD28R,0.12992X0.00118*%
%ADD29R,0.13228X0.00118*%
%ADD30R,0.13701X0.00118*%
%ADD31R,0.13937X0.00118*%
%ADD32R,0.14173X0.00118*%
%ADD33R,0.14409X0.00118*%
%ADD34R,0.14882X0.00118*%
%ADD35R,0.15118X0.00118*%
%ADD36R,0.15354X0.00118*%
%ADD37R,0.15591X0.00118*%
%ADD38R,0.15827X0.00118*%
%ADD39R,0.16063X0.00118*%
%ADD40R,0.16299X0.00118*%
%ADD41R,0.16535X0.00118*%
%ADD42R,0.16772X0.00118*%
%ADD43R,0.17008X0.00118*%
%ADD44R,0.17244X0.00118*%
%ADD45R,0.17480X0.00118*%
%ADD46R,0.17717X0.00118*%
%ADD47R,0.17953X0.00118*%
%ADD48R,0.18189X0.00118*%
%ADD49R,0.18425X0.00118*%
%ADD50R,0.18661X0.00118*%
%ADD51R,0.18898X0.00118*%
%ADD52R,0.19134X0.00118*%
%ADD53R,0.19370X0.00118*%
%ADD54R,0.19606X0.00118*%
%ADD55R,0.19843X0.00118*%
%ADD56R,0.05669X0.00118*%
%ADD57R,0.05079X0.00118*%
%ADD58R,0.06732X0.00118*%
%ADD59R,0.05551X0.00118*%
%ADD60R,0.04370X0.00118*%
%ADD61R,0.06378X0.00118*%
%ADD62R,0.05433X0.00118*%
%ADD63R,0.03898X0.00118*%
%ADD64R,0.06024X0.00118*%
%ADD65R,0.03543X0.00118*%
%ADD66R,0.05906X0.00118*%
%ADD67R,0.05315X0.00118*%
%ADD68R,0.03189X0.00118*%
%ADD69R,0.02953X0.00118*%
%ADD70R,0.02717X0.00118*%
%ADD71R,0.02598X0.00118*%
%ADD72R,0.02244X0.00118*%
%ADD73R,0.02126X0.00118*%
%ADD74R,0.02008X0.00118*%
%ADD75R,0.01890X0.00118*%
%ADD76R,0.04961X0.00118*%
%ADD77R,0.01772X0.00118*%
%ADD78R,0.04843X0.00118*%
%ADD79R,0.01654X0.00118*%
%ADD80R,0.01535X0.00118*%
%ADD81R,0.05787X0.00118*%
%ADD82R,0.01417X0.00118*%
%ADD83R,0.01063X0.00118*%
%ADD84R,0.04724X0.00118*%
%ADD85R,0.01299X0.00118*%
%ADD86R,0.01181X0.00118*%
%ADD87R,0.02480X0.00118*%
%ADD88R,0.04606X0.00118*%
%ADD89R,0.03071X0.00118*%
%ADD90R,0.03307X0.00118*%
%ADD91R,0.03425X0.00118*%
%ADD92R,0.02835X0.00118*%
%ADD93R,0.00827X0.00118*%
%ADD94R,0.06260X0.00118*%
%ADD95R,0.06614X0.00118*%
%ADD96R,0.03661X0.00118*%
%ADD97R,0.04134X0.00118*%
%ADD98R,0.06969X0.00118*%
%ADD99R,0.06496X0.00118*%
%ADD100R,0.07323X0.00118*%
%ADD101R,0.12638X0.00118*%
%ADD102R,0.07913X0.00118*%
%ADD103R,0.21732X0.00118*%
%ADD104R,0.21496X0.00118*%
%ADD105R,0.21260X0.00118*%
%ADD106R,0.21024X0.00118*%
%ADD107R,0.20787X0.00118*%
%ADD108R,0.13583X0.00118*%
%ADD109R,0.13346X0.00118*%
%ADD110R,0.13110X0.00118*%
%ADD111R,0.12874X0.00118*%
%ADD112R,0.12520X0.00118*%
%ADD113R,0.12402X0.00118*%
%ADD114C,0.00600*%
%ADD115C,0.00500*%
%ADD116C,0.00800*%
%ADD117C,0.01181*%
%ADD118C,0.01000*%
%ADD119C,0.00400*%
D10*
X0006282Y0029933D02*
X0005048Y0031167D01*
X0006282Y0029933D02*
X0007516Y0029933D01*
X0008751Y0031167D01*
X0008134Y0032388D02*
X0008751Y0033005D01*
X0008751Y0034857D01*
X0008751Y0036071D02*
X0007516Y0037306D01*
X0006282Y0037306D01*
X0005048Y0036071D01*
X0006282Y0034857D02*
X0006282Y0033005D01*
X0006899Y0032388D01*
X0008134Y0032388D01*
X0011048Y0031784D02*
X0011048Y0030550D01*
X0011665Y0029933D01*
X0011048Y0031784D02*
X0011665Y0032402D01*
X0012282Y0032402D01*
X0014751Y0029933D01*
X0014751Y0032402D01*
X0014134Y0033616D02*
X0011665Y0036085D01*
X0014134Y0036085D01*
X0014751Y0035468D01*
X0014751Y0034233D01*
X0014134Y0033616D01*
X0011665Y0033616D01*
X0011048Y0034233D01*
X0011048Y0035468D01*
X0011665Y0036085D01*
X0012282Y0037299D02*
X0011048Y0038533D01*
X0014751Y0038533D01*
X0014751Y0037299D02*
X0014751Y0039768D01*
X0014134Y0040982D02*
X0014751Y0041599D01*
X0014751Y0042834D01*
X0014134Y0043451D01*
X0012899Y0043451D01*
X0012282Y0042834D01*
X0012282Y0042217D01*
X0012899Y0040982D01*
X0011048Y0040982D01*
X0011048Y0043451D01*
X0008751Y0044062D02*
X0008751Y0042827D01*
X0008134Y0042210D01*
X0006899Y0042827D02*
X0006899Y0044062D01*
X0007516Y0044679D01*
X0008134Y0044679D01*
X0008751Y0044062D01*
X0008751Y0045893D02*
X0005048Y0045893D01*
X0005665Y0044679D02*
X0005048Y0044062D01*
X0005048Y0042827D01*
X0005665Y0042210D01*
X0006282Y0042210D01*
X0006899Y0042827D01*
X0006899Y0045893D02*
X0006282Y0046510D01*
X0006282Y0047745D01*
X0006899Y0048362D01*
X0008751Y0048362D01*
X0008134Y0049576D02*
X0007516Y0050193D01*
X0007516Y0052045D01*
X0006899Y0052045D02*
X0008751Y0052045D01*
X0008751Y0050193D01*
X0008134Y0049576D01*
X0006282Y0050193D02*
X0006282Y0051428D01*
X0006899Y0052045D01*
X0006282Y0053259D02*
X0006282Y0053877D01*
X0006899Y0054494D01*
X0006282Y0055111D01*
X0006899Y0055728D01*
X0008751Y0055728D01*
X0008751Y0056943D02*
X0008751Y0058794D01*
X0008134Y0059411D01*
X0006899Y0059411D01*
X0006282Y0058794D01*
X0006282Y0056943D01*
X0005048Y0056943D02*
X0008751Y0056943D01*
X0008751Y0054494D02*
X0006899Y0054494D01*
X0006282Y0053259D02*
X0008751Y0053259D01*
X0017048Y0053266D02*
X0020751Y0053266D01*
X0020751Y0052032D02*
X0020751Y0054500D01*
X0020751Y0055715D02*
X0020751Y0058184D01*
X0020751Y0056949D02*
X0017048Y0056949D01*
X0018282Y0055715D01*
X0017048Y0053266D02*
X0018282Y0052032D01*
X0020134Y0050807D02*
X0020751Y0050807D01*
X0020751Y0050190D01*
X0020134Y0050190D01*
X0020134Y0050807D01*
X0020751Y0048976D02*
X0020751Y0046507D01*
X0018282Y0048976D01*
X0017665Y0048976D01*
X0017048Y0048359D01*
X0017048Y0047124D01*
X0017665Y0046507D01*
X0018282Y0041599D02*
X0018899Y0041599D01*
X0018899Y0040982D01*
X0018282Y0040982D01*
X0018282Y0041599D01*
X0018282Y0039768D02*
X0020751Y0038533D01*
X0018282Y0037299D01*
X0018899Y0036085D02*
X0019516Y0036085D01*
X0019516Y0033616D01*
X0018899Y0033616D02*
X0018282Y0034233D01*
X0018282Y0035468D01*
X0018899Y0036085D01*
X0020751Y0035468D02*
X0020751Y0034233D01*
X0020134Y0033616D01*
X0018899Y0033616D01*
X0018899Y0032402D02*
X0019516Y0031784D01*
X0019516Y0029933D01*
X0019516Y0031167D02*
X0020751Y0032402D01*
X0018899Y0032402D02*
X0017665Y0032402D01*
X0017048Y0031784D01*
X0017048Y0029933D01*
X0020751Y0029933D01*
X0020751Y0040982D02*
X0020134Y0040982D01*
X0020134Y0041599D01*
X0020751Y0041599D01*
X0020751Y0040982D01*
X0008134Y0060626D02*
X0007516Y0061243D01*
X0007516Y0063094D01*
X0006899Y0063094D02*
X0008751Y0063094D01*
X0008751Y0061243D01*
X0008134Y0060626D01*
X0006282Y0061243D02*
X0006282Y0062477D01*
X0006899Y0063094D01*
X0005048Y0067992D02*
X0005048Y0070461D01*
X0005048Y0069226D02*
X0008751Y0069226D01*
X0008134Y0071675D02*
X0006899Y0071675D01*
X0006282Y0072292D01*
X0006282Y0073527D01*
X0006899Y0074144D01*
X0007516Y0074144D01*
X0007516Y0071675D01*
X0008134Y0071675D02*
X0008751Y0072292D01*
X0008751Y0073527D01*
X0008134Y0075358D02*
X0008751Y0075975D01*
X0008751Y0077827D01*
X0008751Y0079041D02*
X0005048Y0079041D01*
X0006282Y0079659D02*
X0006282Y0080893D01*
X0006899Y0081510D01*
X0008751Y0081510D01*
X0008751Y0082725D02*
X0006282Y0082725D01*
X0006282Y0084576D01*
X0006899Y0085193D01*
X0008751Y0085193D01*
X0008134Y0086408D02*
X0008751Y0087025D01*
X0008751Y0088259D01*
X0008134Y0088876D01*
X0006899Y0088876D01*
X0006282Y0088259D01*
X0006282Y0087025D01*
X0006899Y0086408D01*
X0008134Y0086408D01*
X0008751Y0090091D02*
X0008751Y0091325D01*
X0008751Y0090708D02*
X0005048Y0090708D01*
X0005048Y0090091D01*
X0006899Y0092546D02*
X0008134Y0092546D01*
X0008751Y0093163D01*
X0008751Y0094398D01*
X0008134Y0095015D01*
X0006899Y0095015D01*
X0006282Y0094398D01*
X0006282Y0093163D01*
X0006899Y0092546D01*
X0006899Y0096229D02*
X0008134Y0096229D01*
X0008751Y0096847D01*
X0008751Y0098698D01*
X0009368Y0098698D02*
X0006282Y0098698D01*
X0006282Y0096847D01*
X0006899Y0096229D01*
X0009985Y0097464D02*
X0009985Y0098081D01*
X0009368Y0098698D01*
X0008751Y0099913D02*
X0008751Y0101147D01*
X0008751Y0100530D02*
X0006282Y0100530D01*
X0006282Y0099913D01*
X0005048Y0100530D02*
X0004430Y0100530D01*
X0006282Y0102985D02*
X0006282Y0104220D01*
X0006899Y0104837D01*
X0007516Y0104837D01*
X0007516Y0102368D01*
X0006899Y0102368D02*
X0006282Y0102985D01*
X0006899Y0102368D02*
X0008134Y0102368D01*
X0008751Y0102985D01*
X0008751Y0104220D01*
X0008751Y0106051D02*
X0008751Y0107903D01*
X0008134Y0108520D01*
X0007516Y0107903D01*
X0007516Y0106668D01*
X0006899Y0106051D01*
X0006282Y0106668D01*
X0006282Y0108520D01*
X0006282Y0079659D02*
X0006899Y0079041D01*
X0006282Y0077827D02*
X0006282Y0075975D01*
X0006899Y0075358D01*
X0008134Y0075358D01*
X0014251Y0144382D02*
X0014735Y0144382D01*
X0015219Y0144865D01*
X0015219Y0147284D01*
X0015702Y0147284D02*
X0014735Y0147284D01*
X0016714Y0145833D02*
X0018649Y0145833D01*
X0018165Y0147284D02*
X0016714Y0145833D01*
X0018165Y0144382D02*
X0018165Y0147284D01*
X0014251Y0144382D02*
X0013767Y0144865D01*
D11*
X0228440Y0126279D03*
X0228440Y0120255D03*
X0229976Y0113287D03*
X0229976Y0135610D03*
D12*
X0229976Y0135491D03*
X0229976Y0113405D03*
D13*
X0229976Y0113523D03*
X0237889Y0120491D03*
X0238598Y0125098D03*
X0238598Y0125216D03*
X0222535Y0129350D03*
X0229976Y0135373D03*
D14*
X0229976Y0135255D03*
X0222062Y0126869D03*
X0222062Y0126751D03*
X0221944Y0126397D03*
X0221944Y0126279D03*
X0221826Y0125570D03*
X0221826Y0125452D03*
X0221826Y0125334D03*
X0221826Y0125216D03*
X0221826Y0125098D03*
X0221826Y0124980D03*
X0221826Y0124862D03*
X0221826Y0124743D03*
X0221826Y0124625D03*
X0221826Y0124507D03*
X0221826Y0124389D03*
X0221826Y0124271D03*
X0221826Y0124153D03*
X0221826Y0124035D03*
X0221826Y0123917D03*
X0221826Y0123799D03*
X0221826Y0123680D03*
X0221826Y0123562D03*
X0221826Y0123444D03*
X0221826Y0123326D03*
X0229976Y0113641D03*
D15*
X0229976Y0113759D03*
X0237535Y0126988D03*
X0229976Y0135137D03*
D16*
X0229976Y0135019D03*
X0229976Y0113877D03*
D17*
X0229976Y0113995D03*
X0229976Y0134901D03*
D18*
X0229976Y0134783D03*
X0229976Y0114114D03*
D19*
X0229976Y0114232D03*
X0229976Y0134665D03*
D20*
X0229976Y0134547D03*
X0229976Y0114350D03*
D21*
X0229976Y0114468D03*
X0229976Y0134428D03*
D22*
X0229976Y0134310D03*
X0229976Y0114586D03*
D23*
X0229976Y0114704D03*
X0229976Y0134192D03*
D24*
X0229976Y0134074D03*
X0229976Y0114822D03*
D25*
X0229976Y0114940D03*
X0229976Y0133956D03*
D26*
X0229976Y0133838D03*
X0233165Y0130649D03*
X0233283Y0130531D03*
X0233401Y0130295D03*
X0229976Y0115058D03*
D27*
X0229976Y0115177D03*
X0233637Y0129468D03*
X0229976Y0133720D03*
D28*
X0229976Y0133602D03*
X0233637Y0129232D03*
X0229976Y0115295D03*
D29*
X0229976Y0115413D03*
X0229976Y0133484D03*
D30*
X0229976Y0133365D03*
X0229976Y0115531D03*
D31*
X0229976Y0115649D03*
X0233401Y0128759D03*
X0229976Y0133247D03*
D32*
X0229976Y0133129D03*
X0229976Y0115767D03*
D33*
X0229976Y0115885D03*
X0229976Y0133011D03*
D34*
X0229976Y0132893D03*
X0229976Y0116003D03*
D35*
X0229976Y0116121D03*
X0229976Y0132775D03*
D36*
X0229976Y0132657D03*
X0229976Y0116239D03*
D37*
X0229976Y0116358D03*
X0229976Y0132539D03*
D38*
X0229976Y0132421D03*
X0229976Y0116476D03*
D39*
X0229976Y0116594D03*
X0229976Y0132302D03*
D40*
X0229976Y0132184D03*
X0229976Y0116712D03*
D41*
X0229976Y0116830D03*
X0229976Y0132066D03*
D42*
X0229976Y0131948D03*
X0229976Y0116948D03*
D43*
X0229976Y0117066D03*
X0229976Y0117184D03*
X0229976Y0131712D03*
X0229976Y0131830D03*
D44*
X0229976Y0131594D03*
X0229976Y0117302D03*
D45*
X0229976Y0117421D03*
X0229976Y0131476D03*
D46*
X0229976Y0131358D03*
X0229976Y0117539D03*
D47*
X0229976Y0117657D03*
X0229976Y0117775D03*
X0229976Y0131121D03*
X0229976Y0131239D03*
D48*
X0229976Y0117893D03*
D49*
X0229976Y0118011D03*
D50*
X0229976Y0118129D03*
X0229976Y0118247D03*
D51*
X0229976Y0118365D03*
D52*
X0229976Y0118484D03*
X0229976Y0118602D03*
D53*
X0229976Y0118720D03*
X0229976Y0118838D03*
D54*
X0229976Y0118956D03*
X0229976Y0119074D03*
D55*
X0229976Y0119192D03*
D56*
X0237298Y0119783D03*
X0237417Y0119901D03*
X0238243Y0126043D03*
X0222535Y0128995D03*
X0222062Y0121318D03*
X0222062Y0121200D03*
X0222062Y0121082D03*
X0222889Y0119310D03*
D57*
X0229090Y0119310D03*
X0237948Y0120610D03*
X0238066Y0120728D03*
X0238657Y0124862D03*
X0238657Y0124980D03*
X0222476Y0129468D03*
D58*
X0236531Y0119310D03*
D59*
X0222712Y0119428D03*
X0222121Y0120728D03*
X0222121Y0120846D03*
X0222121Y0120964D03*
X0238302Y0125925D03*
D60*
X0228972Y0119428D03*
D61*
X0236826Y0119428D03*
X0237771Y0126751D03*
X0222298Y0127106D03*
D62*
X0222535Y0129114D03*
X0238361Y0125806D03*
X0238361Y0125688D03*
X0238480Y0125570D03*
X0237653Y0120137D03*
X0237535Y0120019D03*
X0222653Y0119547D03*
X0222535Y0119665D03*
X0222298Y0120137D03*
X0222298Y0120255D03*
X0222180Y0120373D03*
X0222180Y0120491D03*
X0222180Y0120610D03*
D63*
X0228854Y0119547D03*
D64*
X0237003Y0119547D03*
X0221885Y0122499D03*
X0221885Y0122617D03*
X0221885Y0122736D03*
X0221885Y0122854D03*
X0221885Y0122972D03*
X0221885Y0123090D03*
X0221885Y0123208D03*
X0221885Y0125688D03*
X0221885Y0125806D03*
X0221885Y0125925D03*
X0221885Y0126043D03*
X0221885Y0126161D03*
X0222003Y0126515D03*
X0222003Y0126633D03*
X0237948Y0126515D03*
X0238066Y0126397D03*
D65*
X0228794Y0119665D03*
D66*
X0237180Y0119665D03*
X0221944Y0121909D03*
X0221944Y0122027D03*
X0221944Y0122145D03*
X0221944Y0122263D03*
X0221944Y0122381D03*
X0238125Y0126279D03*
D67*
X0238539Y0125452D03*
X0238539Y0125334D03*
X0237830Y0120373D03*
X0237712Y0120255D03*
X0222476Y0119783D03*
X0222357Y0119901D03*
X0222357Y0120019D03*
X0222476Y0129232D03*
D68*
X0232397Y0124035D03*
X0232397Y0123917D03*
X0232397Y0122736D03*
X0232397Y0122617D03*
X0228735Y0119783D03*
D69*
X0228617Y0119901D03*
X0232397Y0122381D03*
X0232397Y0124153D03*
D70*
X0232397Y0124389D03*
X0232397Y0122263D03*
X0228617Y0120019D03*
D71*
X0228558Y0120137D03*
X0228558Y0126515D03*
D72*
X0228381Y0126161D03*
X0232397Y0124625D03*
X0232397Y0122027D03*
X0228381Y0120373D03*
D73*
X0228322Y0120491D03*
X0228322Y0126043D03*
D74*
X0228263Y0125925D03*
X0232397Y0121909D03*
X0228263Y0120728D03*
X0228263Y0120610D03*
D75*
X0228204Y0120846D03*
X0228204Y0125806D03*
X0232338Y0124743D03*
D76*
X0238716Y0124743D03*
X0238716Y0124625D03*
X0238716Y0124507D03*
X0238243Y0121082D03*
X0238125Y0120846D03*
X0222535Y0129586D03*
X0222535Y0129704D03*
D77*
X0228145Y0125688D03*
X0228145Y0125570D03*
X0228145Y0120964D03*
D78*
X0238184Y0120964D03*
X0238302Y0121200D03*
X0238302Y0121318D03*
X0238420Y0121436D03*
X0238420Y0121554D03*
X0238775Y0123917D03*
X0238775Y0124035D03*
X0238775Y0124153D03*
X0238775Y0124271D03*
X0238775Y0124389D03*
X0223302Y0131003D03*
X0222594Y0129822D03*
D79*
X0228086Y0125452D03*
X0228086Y0121200D03*
X0228086Y0121082D03*
X0232338Y0121791D03*
D80*
X0228027Y0121436D03*
X0228027Y0121318D03*
X0228027Y0125216D03*
X0228027Y0125334D03*
X0232397Y0124862D03*
D81*
X0238184Y0126161D03*
X0222594Y0128877D03*
X0222003Y0121791D03*
X0222003Y0121673D03*
X0222003Y0121554D03*
X0222003Y0121436D03*
D82*
X0227968Y0121554D03*
X0227968Y0121673D03*
X0227968Y0124980D03*
X0227968Y0125098D03*
D83*
X0227791Y0124035D03*
X0227791Y0123917D03*
X0227791Y0123799D03*
X0227791Y0123680D03*
X0227791Y0123562D03*
X0227791Y0123444D03*
X0227791Y0123326D03*
X0227791Y0123208D03*
X0227791Y0123090D03*
X0227791Y0122972D03*
X0227791Y0122854D03*
X0227791Y0122736D03*
X0227791Y0122617D03*
X0232397Y0121673D03*
D84*
X0238480Y0121673D03*
X0238480Y0121791D03*
X0238598Y0121909D03*
X0238598Y0122027D03*
X0238598Y0122145D03*
X0238716Y0122499D03*
X0238716Y0122617D03*
X0238716Y0122736D03*
X0238834Y0123326D03*
X0238834Y0123444D03*
X0238834Y0123562D03*
X0238834Y0123680D03*
X0238834Y0123799D03*
X0223125Y0130885D03*
X0223007Y0130767D03*
X0222653Y0130177D03*
X0222653Y0130058D03*
X0222535Y0129940D03*
D85*
X0227909Y0124862D03*
X0227909Y0124743D03*
X0227909Y0124625D03*
X0227909Y0122027D03*
X0227909Y0121909D03*
X0227909Y0121791D03*
D86*
X0227850Y0122145D03*
X0227850Y0122263D03*
X0227850Y0122381D03*
X0227850Y0122499D03*
X0227850Y0124153D03*
X0227850Y0124271D03*
X0227850Y0124389D03*
X0227850Y0124507D03*
D87*
X0228499Y0126397D03*
X0232397Y0124507D03*
X0232397Y0122145D03*
D88*
X0228854Y0127224D03*
X0222948Y0130649D03*
X0222830Y0130531D03*
X0222712Y0130413D03*
X0222712Y0130295D03*
X0238775Y0123208D03*
X0238775Y0123090D03*
X0238775Y0122972D03*
X0238775Y0122854D03*
X0238657Y0122381D03*
X0238657Y0122263D03*
D89*
X0232338Y0122499D03*
X0228676Y0126751D03*
D90*
X0228676Y0126869D03*
X0232338Y0123799D03*
X0232338Y0122854D03*
D91*
X0232397Y0122972D03*
X0232397Y0123090D03*
X0232397Y0123208D03*
X0232397Y0123326D03*
X0232397Y0123444D03*
X0232397Y0123562D03*
X0232397Y0123680D03*
D92*
X0232338Y0124271D03*
X0228558Y0126633D03*
D93*
X0232397Y0124980D03*
D94*
X0237830Y0126633D03*
X0222712Y0128759D03*
X0222121Y0126988D03*
D95*
X0237653Y0126869D03*
D96*
X0228735Y0126988D03*
D97*
X0228854Y0127106D03*
D98*
X0237357Y0127106D03*
D99*
X0222357Y0127224D03*
D100*
X0237180Y0127224D03*
D101*
X0233578Y0129586D03*
X0233578Y0129704D03*
X0225428Y0127342D03*
D102*
X0236885Y0127342D03*
D103*
X0229976Y0127460D03*
D104*
X0229976Y0127578D03*
X0229976Y0127696D03*
X0229976Y0127814D03*
D105*
X0229976Y0127932D03*
X0229976Y0128051D03*
X0229976Y0128169D03*
D106*
X0229976Y0128287D03*
X0229976Y0128405D03*
X0229976Y0128523D03*
D107*
X0229976Y0128641D03*
D108*
X0233460Y0128877D03*
D109*
X0233578Y0128995D03*
D110*
X0233578Y0129114D03*
D111*
X0233578Y0129350D03*
D112*
X0233519Y0129822D03*
X0233519Y0129940D03*
X0232810Y0131003D03*
D113*
X0232987Y0130885D03*
X0233106Y0130767D03*
X0233342Y0130413D03*
X0233460Y0130177D03*
X0233460Y0130058D03*
D114*
X0173949Y0136562D02*
X0169678Y0136562D01*
X0171813Y0134427D02*
X0171813Y0138697D01*
X0249751Y0104096D02*
X0249751Y0099826D01*
X0247616Y0101961D02*
X0251886Y0101961D01*
X0136629Y0064310D02*
X0136629Y0059310D01*
X0134129Y0056810D01*
X0136629Y0054310D01*
X0136629Y0049310D01*
X0134129Y0046810D01*
X0136629Y0044310D01*
X0136629Y0039310D01*
X0134129Y0036810D01*
X0136629Y0034310D01*
X0136629Y0029310D01*
X0134129Y0026810D01*
X0129129Y0026810D01*
X0126629Y0029310D01*
X0126629Y0034310D01*
X0129129Y0036810D01*
X0126629Y0039310D01*
X0126629Y0044310D01*
X0129129Y0046810D01*
X0134129Y0046810D01*
X0129129Y0046810D02*
X0126629Y0049310D01*
X0126629Y0054310D01*
X0129129Y0056810D01*
X0126629Y0059310D01*
X0126629Y0064310D01*
X0129129Y0066810D01*
X0134129Y0066810D01*
X0136629Y0064310D01*
X0134129Y0056810D02*
X0129129Y0056810D01*
X0100625Y0047897D02*
X0100465Y0047895D01*
X0100306Y0047889D01*
X0100147Y0047879D01*
X0099988Y0047866D01*
X0099829Y0047848D01*
X0099671Y0047827D01*
X0099514Y0047801D01*
X0099357Y0047772D01*
X0099201Y0047739D01*
X0099046Y0047702D01*
X0098891Y0047662D01*
X0098738Y0047617D01*
X0098586Y0047569D01*
X0098435Y0047517D01*
X0098286Y0047461D01*
X0098138Y0047402D01*
X0097991Y0047339D01*
X0097846Y0047273D01*
X0097703Y0047203D01*
X0097561Y0047129D01*
X0097421Y0047053D01*
X0097283Y0046972D01*
X0097148Y0046889D01*
X0097014Y0046802D01*
X0096882Y0046711D01*
X0096753Y0046618D01*
X0096626Y0046521D01*
X0096501Y0046422D01*
X0096379Y0046319D01*
X0096260Y0046213D01*
X0096143Y0046105D01*
X0096029Y0045993D01*
X0095917Y0045879D01*
X0095809Y0045762D01*
X0095703Y0045643D01*
X0095600Y0045521D01*
X0095501Y0045396D01*
X0095404Y0045269D01*
X0095311Y0045140D01*
X0095220Y0045008D01*
X0095133Y0044874D01*
X0095050Y0044739D01*
X0094969Y0044601D01*
X0094893Y0044461D01*
X0094819Y0044319D01*
X0094749Y0044176D01*
X0094683Y0044031D01*
X0094620Y0043884D01*
X0094561Y0043736D01*
X0094505Y0043587D01*
X0094453Y0043436D01*
X0094405Y0043284D01*
X0094360Y0043131D01*
X0094320Y0042976D01*
X0094283Y0042821D01*
X0094250Y0042665D01*
X0094221Y0042508D01*
X0094195Y0042351D01*
X0094174Y0042193D01*
X0094156Y0042034D01*
X0094143Y0041875D01*
X0094133Y0041716D01*
X0094127Y0041557D01*
X0094125Y0041397D01*
X0100625Y0034897D02*
X0100785Y0034899D01*
X0100944Y0034905D01*
X0101103Y0034915D01*
X0101262Y0034928D01*
X0101421Y0034946D01*
X0101579Y0034967D01*
X0101736Y0034993D01*
X0101893Y0035022D01*
X0102049Y0035055D01*
X0102204Y0035092D01*
X0102359Y0035132D01*
X0102512Y0035177D01*
X0102664Y0035225D01*
X0102815Y0035277D01*
X0102964Y0035333D01*
X0103112Y0035392D01*
X0103259Y0035455D01*
X0103404Y0035521D01*
X0103547Y0035591D01*
X0103689Y0035665D01*
X0103829Y0035741D01*
X0103967Y0035822D01*
X0104102Y0035905D01*
X0104236Y0035992D01*
X0104368Y0036083D01*
X0104497Y0036176D01*
X0104624Y0036273D01*
X0104749Y0036372D01*
X0104871Y0036475D01*
X0104990Y0036581D01*
X0105107Y0036689D01*
X0105221Y0036801D01*
X0105333Y0036915D01*
X0105441Y0037032D01*
X0105547Y0037151D01*
X0105650Y0037273D01*
X0105749Y0037398D01*
X0105846Y0037525D01*
X0105939Y0037654D01*
X0106030Y0037786D01*
X0106117Y0037920D01*
X0106200Y0038055D01*
X0106281Y0038193D01*
X0106357Y0038333D01*
X0106431Y0038475D01*
X0106501Y0038618D01*
X0106567Y0038763D01*
X0106630Y0038910D01*
X0106689Y0039058D01*
X0106745Y0039207D01*
X0106797Y0039358D01*
X0106845Y0039510D01*
X0106890Y0039663D01*
X0106930Y0039818D01*
X0106967Y0039973D01*
X0107000Y0040129D01*
X0107029Y0040286D01*
X0107055Y0040443D01*
X0107076Y0040601D01*
X0107094Y0040760D01*
X0107107Y0040919D01*
X0107117Y0041078D01*
X0107123Y0041237D01*
X0107125Y0041397D01*
X0129129Y0036810D02*
X0134129Y0036810D01*
D115*
X0031728Y0015806D02*
X0031728Y0061082D01*
X0036058Y0061082D01*
X0047082Y0061082D02*
X0051413Y0061082D01*
X0051413Y0055570D01*
X0051413Y0044547D02*
X0051413Y0015806D01*
X0031728Y0015806D01*
X0080645Y0057342D02*
X0080645Y0074665D01*
X0108794Y0074665D01*
X0108794Y0057342D01*
X0080645Y0057342D01*
X0107023Y0073287D02*
X0107025Y0073314D01*
X0107031Y0073341D01*
X0107040Y0073367D01*
X0107053Y0073391D01*
X0107069Y0073414D01*
X0107088Y0073433D01*
X0107110Y0073450D01*
X0107134Y0073464D01*
X0107159Y0073474D01*
X0107186Y0073481D01*
X0107213Y0073484D01*
X0107241Y0073483D01*
X0107268Y0073478D01*
X0107294Y0073470D01*
X0107318Y0073458D01*
X0107341Y0073442D01*
X0107362Y0073424D01*
X0107379Y0073403D01*
X0107394Y0073379D01*
X0107405Y0073354D01*
X0107413Y0073328D01*
X0107417Y0073301D01*
X0107417Y0073273D01*
X0107413Y0073246D01*
X0107405Y0073220D01*
X0107394Y0073195D01*
X0107379Y0073171D01*
X0107362Y0073150D01*
X0107341Y0073132D01*
X0107319Y0073116D01*
X0107294Y0073104D01*
X0107268Y0073096D01*
X0107241Y0073091D01*
X0107213Y0073090D01*
X0107186Y0073093D01*
X0107159Y0073100D01*
X0107134Y0073110D01*
X0107110Y0073124D01*
X0107088Y0073141D01*
X0107069Y0073160D01*
X0107053Y0073183D01*
X0107040Y0073207D01*
X0107031Y0073233D01*
X0107025Y0073260D01*
X0107023Y0073287D01*
X0122279Y0075649D02*
X0122279Y0079980D01*
X0130153Y0079980D02*
X0130153Y0075649D01*
X0145901Y0074074D02*
X0151413Y0074074D01*
X0145901Y0074074D02*
X0145901Y0016988D01*
X0181334Y0016988D01*
X0181334Y0074074D01*
X0175822Y0074074D01*
X0201019Y0074074D02*
X0206531Y0074074D01*
X0201019Y0074074D02*
X0201019Y0016988D01*
X0236452Y0016988D01*
X0236452Y0074074D01*
X0230940Y0074074D01*
X0233893Y0076436D02*
X0225035Y0076436D01*
X0225035Y0110295D01*
X0233893Y0110295D01*
X0250035Y0110295D02*
X0258893Y0110295D01*
X0258893Y0076436D01*
X0250035Y0076436D01*
X0142357Y0121909D02*
X0130153Y0121909D01*
X0122279Y0128995D01*
X0138027Y0128995D01*
X0130153Y0121909D01*
X0117948Y0121909D01*
X0146294Y0128995D02*
X0146294Y0137854D01*
X0146294Y0128995D02*
X0180153Y0128995D01*
X0180153Y0137854D01*
X0211456Y0146948D02*
X0211458Y0147011D01*
X0211464Y0147073D01*
X0211474Y0147135D01*
X0211487Y0147197D01*
X0211505Y0147257D01*
X0211526Y0147316D01*
X0211551Y0147374D01*
X0211580Y0147430D01*
X0211612Y0147484D01*
X0211647Y0147536D01*
X0211685Y0147585D01*
X0211727Y0147633D01*
X0211771Y0147677D01*
X0211819Y0147719D01*
X0211868Y0147757D01*
X0211920Y0147792D01*
X0211974Y0147824D01*
X0212030Y0147853D01*
X0212088Y0147878D01*
X0212147Y0147899D01*
X0212207Y0147917D01*
X0212269Y0147930D01*
X0212331Y0147940D01*
X0212393Y0147946D01*
X0212456Y0147948D01*
X0212519Y0147946D01*
X0212581Y0147940D01*
X0212643Y0147930D01*
X0212705Y0147917D01*
X0212765Y0147899D01*
X0212824Y0147878D01*
X0212882Y0147853D01*
X0212938Y0147824D01*
X0212992Y0147792D01*
X0213044Y0147757D01*
X0213093Y0147719D01*
X0213141Y0147677D01*
X0213185Y0147633D01*
X0213227Y0147585D01*
X0213265Y0147536D01*
X0213300Y0147484D01*
X0213332Y0147430D01*
X0213361Y0147374D01*
X0213386Y0147316D01*
X0213407Y0147257D01*
X0213425Y0147197D01*
X0213438Y0147135D01*
X0213448Y0147073D01*
X0213454Y0147011D01*
X0213456Y0146948D01*
X0213454Y0146885D01*
X0213448Y0146823D01*
X0213438Y0146761D01*
X0213425Y0146699D01*
X0213407Y0146639D01*
X0213386Y0146580D01*
X0213361Y0146522D01*
X0213332Y0146466D01*
X0213300Y0146412D01*
X0213265Y0146360D01*
X0213227Y0146311D01*
X0213185Y0146263D01*
X0213141Y0146219D01*
X0213093Y0146177D01*
X0213044Y0146139D01*
X0212992Y0146104D01*
X0212938Y0146072D01*
X0212882Y0146043D01*
X0212824Y0146018D01*
X0212765Y0145997D01*
X0212705Y0145979D01*
X0212643Y0145966D01*
X0212581Y0145956D01*
X0212519Y0145950D01*
X0212456Y0145948D01*
X0212393Y0145950D01*
X0212331Y0145956D01*
X0212269Y0145966D01*
X0212207Y0145979D01*
X0212147Y0145997D01*
X0212088Y0146018D01*
X0212030Y0146043D01*
X0211974Y0146072D01*
X0211920Y0146104D01*
X0211868Y0146139D01*
X0211819Y0146177D01*
X0211771Y0146219D01*
X0211727Y0146263D01*
X0211685Y0146311D01*
X0211647Y0146360D01*
X0211612Y0146412D01*
X0211580Y0146466D01*
X0211551Y0146522D01*
X0211526Y0146580D01*
X0211505Y0146639D01*
X0211487Y0146699D01*
X0211474Y0146761D01*
X0211464Y0146823D01*
X0211458Y0146885D01*
X0211456Y0146948D01*
X0219326Y0138641D02*
X0219326Y0163444D01*
X0231138Y0154980D02*
X0231131Y0154912D01*
X0231129Y0154844D01*
X0231130Y0154776D01*
X0231135Y0154708D01*
X0231144Y0154641D01*
X0231157Y0154574D01*
X0231173Y0154508D01*
X0231193Y0154443D01*
X0231216Y0154379D01*
X0231243Y0154317D01*
X0231273Y0154256D01*
X0231306Y0154197D01*
X0231343Y0154139D01*
X0231383Y0154084D01*
X0231426Y0154032D01*
X0231471Y0153981D01*
X0231520Y0153933D01*
X0231571Y0153888D01*
X0231624Y0153846D01*
X0231680Y0153807D01*
X0231737Y0153771D01*
X0231797Y0153738D01*
X0231858Y0153709D01*
X0231921Y0153683D01*
X0231985Y0153660D01*
X0232050Y0153641D01*
X0232116Y0153626D01*
X0232183Y0153614D01*
X0232251Y0153606D01*
X0232319Y0153602D01*
X0232318Y0153543D02*
X0232249Y0153541D01*
X0232180Y0153535D01*
X0232112Y0153526D01*
X0232045Y0153513D01*
X0231978Y0153496D01*
X0231912Y0153475D01*
X0231848Y0153451D01*
X0231785Y0153423D01*
X0231723Y0153392D01*
X0231663Y0153358D01*
X0231606Y0153320D01*
X0231550Y0153279D01*
X0231497Y0153236D01*
X0231446Y0153189D01*
X0231398Y0153140D01*
X0231353Y0153088D01*
X0231311Y0153033D01*
X0231272Y0152977D01*
X0231235Y0152918D01*
X0231203Y0152857D01*
X0231173Y0152795D01*
X0231147Y0152731D01*
X0231125Y0152666D01*
X0231106Y0152600D01*
X0231091Y0152533D01*
X0231080Y0152465D01*
X0231072Y0152396D01*
X0231068Y0152327D01*
X0231068Y0152259D01*
X0231072Y0152190D01*
X0231080Y0152121D01*
X0231091Y0152053D01*
X0231106Y0151986D01*
X0231125Y0151920D01*
X0231147Y0151855D01*
X0231173Y0151791D01*
X0231203Y0151729D01*
X0231235Y0151668D01*
X0231272Y0151609D01*
X0231311Y0151553D01*
X0231353Y0151498D01*
X0231398Y0151446D01*
X0231446Y0151397D01*
X0231497Y0151350D01*
X0231550Y0151307D01*
X0231606Y0151266D01*
X0231663Y0151228D01*
X0231723Y0151194D01*
X0231785Y0151163D01*
X0231848Y0151135D01*
X0231912Y0151111D01*
X0231978Y0151090D01*
X0232045Y0151073D01*
X0232112Y0151060D01*
X0232180Y0151051D01*
X0232249Y0151045D01*
X0232318Y0151043D01*
X0232249Y0151041D01*
X0232180Y0151035D01*
X0232112Y0151026D01*
X0232045Y0151013D01*
X0231978Y0150996D01*
X0231912Y0150975D01*
X0231848Y0150951D01*
X0231785Y0150923D01*
X0231723Y0150892D01*
X0231663Y0150858D01*
X0231606Y0150820D01*
X0231550Y0150779D01*
X0231497Y0150736D01*
X0231446Y0150689D01*
X0231398Y0150640D01*
X0231353Y0150588D01*
X0231311Y0150533D01*
X0231272Y0150477D01*
X0231235Y0150418D01*
X0231203Y0150357D01*
X0231173Y0150295D01*
X0231147Y0150231D01*
X0231125Y0150166D01*
X0231106Y0150100D01*
X0231091Y0150033D01*
X0231080Y0149965D01*
X0231072Y0149896D01*
X0231068Y0149827D01*
X0231068Y0149759D01*
X0231072Y0149690D01*
X0231080Y0149621D01*
X0231091Y0149553D01*
X0231106Y0149486D01*
X0231125Y0149420D01*
X0231147Y0149355D01*
X0231173Y0149291D01*
X0231203Y0149229D01*
X0231235Y0149168D01*
X0231272Y0149109D01*
X0231311Y0149053D01*
X0231353Y0148998D01*
X0231398Y0148946D01*
X0231446Y0148897D01*
X0231497Y0148850D01*
X0231550Y0148807D01*
X0231606Y0148766D01*
X0231663Y0148728D01*
X0231723Y0148694D01*
X0231785Y0148663D01*
X0231848Y0148635D01*
X0231912Y0148611D01*
X0231978Y0148590D01*
X0232045Y0148573D01*
X0232112Y0148560D01*
X0232180Y0148551D01*
X0232249Y0148545D01*
X0232318Y0148543D01*
X0232318Y0148484D02*
X0232248Y0148482D01*
X0232179Y0148476D01*
X0232109Y0148467D01*
X0232041Y0148454D01*
X0231973Y0148437D01*
X0231906Y0148416D01*
X0231841Y0148392D01*
X0231777Y0148364D01*
X0231714Y0148333D01*
X0231653Y0148298D01*
X0231595Y0148260D01*
X0231538Y0148219D01*
X0231484Y0148175D01*
X0231432Y0148128D01*
X0231383Y0148078D01*
X0231337Y0148026D01*
X0231293Y0147971D01*
X0231253Y0147914D01*
X0231216Y0147855D01*
X0231182Y0147794D01*
X0231151Y0147731D01*
X0231124Y0147666D01*
X0231101Y0147601D01*
X0231081Y0147534D01*
X0231065Y0147466D01*
X0231053Y0147397D01*
X0231044Y0147327D01*
X0231039Y0147258D01*
X0231038Y0147188D01*
X0231041Y0147118D01*
X0231047Y0147048D01*
X0231058Y0146979D01*
X0231072Y0146911D01*
X0231090Y0146843D01*
X0231111Y0146777D01*
X0231136Y0146712D01*
X0244129Y0138641D02*
X0244129Y0163444D01*
X0180153Y0162854D02*
X0180153Y0153995D01*
X0180153Y0162854D02*
X0146294Y0162854D01*
X0146294Y0153995D01*
X0035074Y0165216D02*
X0005153Y0165216D01*
X0005153Y0118365D01*
X0035074Y0118365D01*
X0033794Y0111082D02*
X0033302Y0111082D01*
X0033302Y0104783D01*
X0033794Y0104783D01*
X0040684Y0104783D02*
X0041176Y0104783D01*
X0041176Y0111082D01*
X0040684Y0111082D01*
X0039405Y0109212D02*
X0039407Y0109256D01*
X0039413Y0109300D01*
X0039423Y0109343D01*
X0039436Y0109385D01*
X0039454Y0109425D01*
X0039475Y0109464D01*
X0039499Y0109501D01*
X0039526Y0109536D01*
X0039557Y0109568D01*
X0039590Y0109597D01*
X0039626Y0109623D01*
X0039664Y0109645D01*
X0039704Y0109664D01*
X0039745Y0109680D01*
X0039788Y0109692D01*
X0039831Y0109700D01*
X0039875Y0109704D01*
X0039919Y0109704D01*
X0039963Y0109700D01*
X0040006Y0109692D01*
X0040049Y0109680D01*
X0040090Y0109664D01*
X0040130Y0109645D01*
X0040168Y0109623D01*
X0040204Y0109597D01*
X0040237Y0109568D01*
X0040268Y0109536D01*
X0040295Y0109501D01*
X0040319Y0109464D01*
X0040340Y0109425D01*
X0040358Y0109385D01*
X0040371Y0109343D01*
X0040381Y0109300D01*
X0040387Y0109256D01*
X0040389Y0109212D01*
X0040387Y0109168D01*
X0040381Y0109124D01*
X0040371Y0109081D01*
X0040358Y0109039D01*
X0040340Y0108999D01*
X0040319Y0108960D01*
X0040295Y0108923D01*
X0040268Y0108888D01*
X0040237Y0108856D01*
X0040204Y0108827D01*
X0040168Y0108801D01*
X0040130Y0108779D01*
X0040090Y0108760D01*
X0040049Y0108744D01*
X0040006Y0108732D01*
X0039963Y0108724D01*
X0039919Y0108720D01*
X0039875Y0108720D01*
X0039831Y0108724D01*
X0039788Y0108732D01*
X0039745Y0108744D01*
X0039704Y0108760D01*
X0039664Y0108779D01*
X0039626Y0108801D01*
X0039590Y0108827D01*
X0039557Y0108856D01*
X0039526Y0108888D01*
X0039499Y0108923D01*
X0039475Y0108960D01*
X0039454Y0108999D01*
X0039436Y0109039D01*
X0039423Y0109081D01*
X0039413Y0109124D01*
X0039407Y0109168D01*
X0039405Y0109212D01*
X0039405Y0079783D02*
X0038913Y0079783D01*
X0039405Y0079783D02*
X0039405Y0073484D01*
X0038913Y0073484D01*
X0032318Y0075354D02*
X0032320Y0075398D01*
X0032326Y0075442D01*
X0032336Y0075485D01*
X0032349Y0075527D01*
X0032367Y0075567D01*
X0032388Y0075606D01*
X0032412Y0075643D01*
X0032439Y0075678D01*
X0032470Y0075710D01*
X0032503Y0075739D01*
X0032539Y0075765D01*
X0032577Y0075787D01*
X0032617Y0075806D01*
X0032658Y0075822D01*
X0032701Y0075834D01*
X0032744Y0075842D01*
X0032788Y0075846D01*
X0032832Y0075846D01*
X0032876Y0075842D01*
X0032919Y0075834D01*
X0032962Y0075822D01*
X0033003Y0075806D01*
X0033043Y0075787D01*
X0033081Y0075765D01*
X0033117Y0075739D01*
X0033150Y0075710D01*
X0033181Y0075678D01*
X0033208Y0075643D01*
X0033232Y0075606D01*
X0033253Y0075567D01*
X0033271Y0075527D01*
X0033284Y0075485D01*
X0033294Y0075442D01*
X0033300Y0075398D01*
X0033302Y0075354D01*
X0033300Y0075310D01*
X0033294Y0075266D01*
X0033284Y0075223D01*
X0033271Y0075181D01*
X0033253Y0075141D01*
X0033232Y0075102D01*
X0033208Y0075065D01*
X0033181Y0075030D01*
X0033150Y0074998D01*
X0033117Y0074969D01*
X0033081Y0074943D01*
X0033043Y0074921D01*
X0033003Y0074902D01*
X0032962Y0074886D01*
X0032919Y0074874D01*
X0032876Y0074866D01*
X0032832Y0074862D01*
X0032788Y0074862D01*
X0032744Y0074866D01*
X0032701Y0074874D01*
X0032658Y0074886D01*
X0032617Y0074902D01*
X0032577Y0074921D01*
X0032539Y0074943D01*
X0032503Y0074969D01*
X0032470Y0074998D01*
X0032439Y0075030D01*
X0032412Y0075065D01*
X0032388Y0075102D01*
X0032367Y0075141D01*
X0032349Y0075181D01*
X0032336Y0075223D01*
X0032326Y0075266D01*
X0032320Y0075310D01*
X0032318Y0075354D01*
X0032023Y0073484D02*
X0031531Y0073484D01*
X0031531Y0079783D01*
X0032023Y0079783D01*
D116*
X0058106Y0092184D02*
X0058106Y0096515D01*
X0065980Y0096515D02*
X0065980Y0092184D01*
X0075035Y0089822D02*
X0075035Y0085491D01*
X0082909Y0085491D02*
X0082909Y0089822D01*
X0195507Y0135168D02*
X0195507Y0136436D01*
X0214405Y0136436D01*
X0214405Y0135068D01*
X0214405Y0136436D02*
X0214405Y0148828D01*
X0195507Y0148828D02*
X0195507Y0136436D01*
X0065586Y0039822D02*
X0065586Y0035491D01*
X0057712Y0035491D02*
X0057712Y0039822D01*
D117*
X0058893Y0036673D03*
X0059287Y0093365D03*
D118*
X0065173Y0066822D02*
X0067273Y0064822D01*
X0067373Y0064822D02*
X0065173Y0063022D01*
X0067373Y0062922D02*
X0067373Y0064822D01*
X0067373Y0066822D01*
X0187308Y0148468D02*
X0189208Y0148468D01*
X0187408Y0150668D01*
X0189208Y0148568D02*
X0191208Y0150668D01*
X0191208Y0148468D02*
X0189208Y0148468D01*
X0139620Y0158295D02*
X0137520Y0160295D01*
X0137420Y0160295D02*
X0139620Y0162095D01*
X0137420Y0162195D02*
X0137420Y0160295D01*
X0137420Y0158295D01*
D119*
X0113998Y0035201D02*
X0113998Y0030597D01*
X0113998Y0032899D02*
X0110929Y0032899D01*
X0109394Y0032132D02*
X0109394Y0031364D01*
X0108627Y0030597D01*
X0107093Y0030597D01*
X0106325Y0031364D01*
X0107093Y0032899D02*
X0108627Y0032899D01*
X0109394Y0032132D01*
X0110929Y0030597D02*
X0110929Y0035201D01*
X0109394Y0034434D02*
X0108627Y0035201D01*
X0107093Y0035201D01*
X0106325Y0034434D01*
X0106325Y0033666D01*
X0107093Y0032899D01*
M02*
